<svg width="3361" height="175" viewBox="0 0 3361 175" fill="none" xmlns="http://www.w3.org/2000/svg">
<path d="M1002.8 34.6697H958.06V5.11584H1080.85V34.6697H1036.35H1034.35V36.6697V169.125H1004.8V36.6697V34.6697H1002.8Z" stroke="#FEFAE4" stroke-width="4"/>
<path d="M930.507 154.096C915.986 165.517 897.64 172.48 877.779 172.48C830.949 172.48 792.778 134.309 792.778 87.4795C792.778 40.65 830.949 2.47906 877.779 2.47906C896.691 2.47906 914.311 8.75755 928.554 19.2415L909.502 41.2566C892.834 31.2151 872.388 31.1088 855.937 39.063C838.939 47.2819 826.167 64.1294 826.167 87.4795C826.167 111.921 839.675 129.145 857.304 137.087C874.337 144.761 895.257 143.789 911.511 132.357L930.507 154.096Z" stroke="#FEFAE4" stroke-width="4"/>
<path d="M712.579 5.11584L790.021 169.125H757.299L743.219 139.118L742.679 137.968H741.408H671.904H670.676L670.12 139.062L654.858 169.125H621.72L705.245 5.11584H712.579ZM687.376 105.51L685.905 108.414H689.16H725.59H728.734L727.401 105.566L709.905 68.1776L708.165 64.4582L706.31 68.1217L687.376 105.51Z" stroke="#FEFAE4" stroke-width="4"/>
<path d="M549.297 34.6697H504.562V5.11584H627.347V34.6697H582.851H580.851V36.6697V169.125H551.297V36.6697V34.6697H549.297Z" stroke="#FEFAE4" stroke-width="4"/>
<path d="M448.196 97.0668V5.11584H477.75V169.125H471.733L377.893 71.7121L374.452 68.1408V73.0997V169.125H344.898V5.11584H352.608L444.773 98.4719L448.196 101.939V97.0668Z" stroke="#FEFAE4" stroke-width="4"/>
<path d="M231.948 2C278.777 2 316.948 40.1709 316.948 87.0005C316.948 133.83 278.777 172.001 231.948 172.001C185.118 172.001 146.947 133.83 146.947 87.0005C146.947 40.1709 185.118 2 231.948 2ZM231.948 32.5126C201.843 32.5126 177.46 56.8957 177.46 87.0005C177.46 117.105 201.843 141.488 231.948 141.488C262.052 141.488 286.436 117.105 286.436 87.0005C286.436 56.8957 262.052 32.5126 231.948 32.5126Z" stroke="#FEFAE4" stroke-width="4"/>
<path d="M139.729 154.096C125.207 165.517 106.861 172.48 87.0005 172.48C40.1709 172.48 2 134.309 2 87.4795C2 40.65 40.1709 2.47906 87.0005 2.47906C105.913 2.47906 123.532 8.75754 137.775 19.2415L118.724 41.2566C102.056 31.2151 81.6094 31.1088 65.1587 39.063C48.1604 47.2819 35.3886 64.1294 35.3886 87.4795C35.3886 111.921 48.8962 129.145 66.5259 137.087C83.5584 144.761 104.479 143.789 120.733 132.357L139.729 154.096Z" stroke="#FEFAE4" stroke-width="4"/>
<path d="M2094.91 3.11584H2221.69V36.6697H2175.19V171.125H2141.64V36.6697H2094.91V3.11584Z" fill="#FEFAE4"/>
<path d="M2070.31 18.9337L2048.74 43.8595C2016.15 22.7684 1967.01 42.4214 1967.01 87.4795C1967.01 134.695 2019.02 153.629 2050.66 129.662L2072.23 154.348C2057.13 166.811 2037.72 174.48 2016.62 174.48C1968.69 174.48 1929.62 135.414 1929.62 87.4795C1929.62 39.5454 1968.69 0.479065 2016.62 0.479065C2036.76 0.479065 2055.45 7.42951 2070.31 18.9337Z" fill="#FEFAE4"/>
<path d="M1894.87 171.125L1880.25 139.968H1810.75L1794.93 171.125H1757.3L1842.87 3.11584H1852.69L1932.02 171.125H1894.87ZM1828.01 106.414H1864.44L1846.94 69.0253L1828.01 106.414Z" fill="#FEFAE4"/>
<path d="M1641.41 3.11584H1768.19V36.6697H1721.7V171.125H1688.14V36.6697H1641.41V3.11584Z" fill="#FEFAE4"/>
<path d="M1609.73 171.125L1515.3 73.0997V171.125H1481.74V3.11584H1492.29L1585.04 97.0668V3.11584H1618.6V171.125H1609.73Z" fill="#FEFAE4"/>
<path d="M1370.79 0C1418.73 0 1457.79 39.0663 1457.79 87.0005C1457.79 134.935 1418.73 174.001 1370.79 174.001C1322.86 174.001 1283.79 134.935 1283.79 87.0005C1283.79 39.0663 1322.86 0 1370.79 0ZM1370.79 34.5126C1341.79 34.5126 1318.31 58.0003 1318.31 87.0005C1318.31 116.001 1341.79 139.488 1370.79 139.488C1399.79 139.488 1423.28 116.001 1423.28 87.0005C1423.28 58.0003 1399.79 34.5126 1370.79 34.5126Z" fill="#FEFAE4"/>
<path d="M1279.53 18.9337L1257.96 43.8595C1225.37 22.7684 1176.23 42.4214 1176.23 87.4795C1176.23 134.695 1228.24 153.629 1259.88 129.662L1281.45 154.348C1266.35 166.811 1246.94 174.48 1225.85 174.48C1177.91 174.48 1138.85 135.414 1138.85 87.4795C1138.85 39.5454 1177.91 0.479065 1225.85 0.479065C1245.98 0.479065 1264.67 7.42951 1279.53 18.9337Z" fill="#FEFAE4"/>
<path d="M3280.49 34.6697H3235.75V5.11584H3358.54V34.6697H3314.04H3312.04V36.6697V169.125H3282.49V36.6697V34.6697H3280.49Z" stroke="#FEFAE4" stroke-width="4"/>
<path d="M3208.2 154.096C3193.68 165.517 3175.33 172.48 3155.47 172.48C3108.64 172.48 3070.47 134.309 3070.47 87.4795C3070.47 40.65 3108.64 2.47906 3155.47 2.47906C3174.38 2.47906 3192 8.75755 3206.24 19.2415L3187.19 41.2566C3170.52 31.2151 3150.08 31.1088 3133.63 39.063C3116.63 47.2819 3103.86 64.1294 3103.86 87.4795C3103.86 111.921 3117.36 129.145 3134.99 137.087C3152.03 144.761 3172.95 143.789 3189.2 132.357L3208.2 154.096Z" stroke="#FEFAE4" stroke-width="4"/>
<path d="M2990.27 5.11584L3067.71 169.125H3034.99L3020.91 139.118L3020.37 137.968H3019.1H2949.59H2948.37L2947.81 139.062L2932.55 169.125H2899.41L2982.94 5.11584H2990.27ZM2965.07 105.51L2963.6 108.414H2966.85H3003.28H3006.42L3005.09 105.566L2987.6 68.1776L2985.86 64.4582L2984 68.1217L2965.07 105.51Z" stroke="#FEFAE4" stroke-width="4"/>
<path d="M2826.99 34.6697H2782.25V5.11584H2905.04V34.6697H2860.54H2858.54V36.6697V169.125H2828.99V36.6697V34.6697H2826.99Z" stroke="#FEFAE4" stroke-width="4"/>
<path d="M2725.89 97.0668V5.11584H2755.44V169.125H2749.42L2655.58 71.7121L2652.14 68.1408V73.0997V169.125H2622.59V5.11584H2630.3L2722.46 98.4719L2725.89 101.939V97.0668Z" stroke="#FEFAE4" stroke-width="4"/>
<path d="M2509.64 2C2556.47 2 2594.64 40.1709 2594.64 87.0005C2594.64 133.83 2556.47 172.001 2509.64 172.001C2462.81 172.001 2424.64 133.83 2424.64 87.0005C2424.64 40.1709 2462.81 2 2509.64 2ZM2509.64 32.5126C2479.53 32.5126 2455.15 56.8957 2455.15 87.0005C2455.15 117.105 2479.53 141.488 2509.64 141.488C2539.74 141.488 2564.13 117.105 2564.13 87.0005C2564.13 56.8957 2539.74 32.5126 2509.64 32.5126Z" stroke="#FEFAE4" stroke-width="4"/>
<path d="M2417.42 154.096C2402.9 165.517 2384.55 172.48 2364.69 172.48C2317.86 172.48 2279.69 134.309 2279.69 87.4795C2279.69 40.65 2317.86 2.47906 2364.69 2.47906C2383.6 2.47906 2401.22 8.75754 2415.47 19.2415L2396.41 41.2566C2379.75 31.2151 2359.3 31.1088 2342.85 39.063C2325.85 47.2819 2313.08 64.1294 2313.08 87.4795C2313.08 111.921 2326.59 129.145 2344.22 137.087C2361.25 144.761 2382.17 143.789 2398.42 132.357L2417.42 154.096Z" stroke="#FEFAE4" stroke-width="4"/>
</svg>
