<svg width="3361" height="215" viewBox="0 0 3361 215" fill="none" xmlns="http://www.w3.org/2000/svg">
<path d="M1002.8 74.6697H958.06V45.1158H1080.85V74.6697H1036.35H1034.35V76.6697V209.125H1004.8V76.6697V74.6697H1002.8Z" stroke="#0A0A0A" stroke-width="4"/>
<path d="M930.507 194.096C915.986 205.517 897.64 212.48 877.779 212.48C830.949 212.48 792.778 174.309 792.778 127.48C792.778 80.65 830.949 42.4791 877.779 42.4791C896.691 42.4791 914.311 48.7576 928.554 59.2416L909.502 81.2567C892.834 71.2152 872.388 71.1089 855.937 79.0631C838.939 87.282 826.167 104.13 826.167 127.48C826.167 151.921 839.675 169.145 857.304 177.087C874.337 184.761 895.257 183.789 911.511 172.357L930.507 194.096Z" stroke="#0A0A0A" stroke-width="4"/>
<path d="M712.579 45.1158L790.021 209.125H757.299L743.219 179.118L742.679 177.968H741.408H671.904H670.676L670.12 179.062L654.858 209.125H621.72L705.245 45.1158H712.579ZM687.376 145.51L685.905 148.414H689.16H725.59H728.734L727.401 145.566L709.905 108.178L708.165 104.458L706.31 108.122L687.376 145.51Z" stroke="#0A0A0A" stroke-width="4"/>
<path d="M549.297 74.6697H504.562V45.1158H627.347V74.6697H582.851H580.851V76.6697V209.125H551.297V76.6697V74.6697H549.297Z" stroke="#0A0A0A" stroke-width="4"/>
<path d="M448.196 137.067V45.1158H477.75V209.125H471.733L377.893 111.712L374.452 108.141V113.1V209.125H344.898V45.1158H352.608L444.773 138.472L448.196 141.939V137.067Z" stroke="#0A0A0A" stroke-width="4"/>
<path d="M231.948 42C278.777 42 316.948 80.1709 316.948 127C316.948 173.83 278.777 212.001 231.948 212.001C185.118 212.001 146.947 173.83 146.947 127C146.947 80.1709 185.118 42 231.948 42ZM231.948 72.5126C201.843 72.5126 177.46 96.8958 177.46 127C177.46 157.105 201.843 181.488 231.948 181.488C262.052 181.488 286.436 157.105 286.436 127C286.436 96.8957 262.052 72.5126 231.948 72.5126Z" stroke="#0A0A0A" stroke-width="4"/>
<path d="M139.729 194.096C125.207 205.517 106.861 212.48 87.0005 212.48C40.1709 212.48 2 174.309 2 127.48C2 80.65 40.1709 42.4791 87.0005 42.4791C105.913 42.4791 123.532 48.7576 137.775 59.2416L118.724 81.2567C102.056 71.2152 81.6094 71.1089 65.1587 79.0631C48.1604 87.282 35.3886 104.13 35.3886 127.48C35.3886 151.921 48.8962 169.145 66.5259 177.087C83.5584 184.761 104.479 183.789 120.733 172.357L139.729 194.096Z" stroke="#0A0A0A" stroke-width="4"/>
<path d="M2094.91 43.1158H2221.69V76.6697H2175.19V211.125H2141.64V76.6697H2094.91V43.1158Z" fill="#0A0A0A"/>
<path d="M2070.31 58.9338L2048.74 83.8595C2016.15 62.7685 1967.01 82.4215 1967.01 127.48C1967.01 174.695 2019.02 193.629 2050.66 169.662L2072.23 194.348C2057.13 206.811 2037.72 214.48 2016.62 214.48C1968.69 214.48 1929.62 175.414 1929.62 127.48C1929.62 79.5454 1968.69 40.4791 2016.62 40.4791C2036.76 40.4791 2055.45 47.4296 2070.31 58.9338Z" fill="#0A0A0A"/>
<path d="M1894.87 211.125L1880.25 179.968H1810.75L1794.93 211.125H1757.3L1842.87 43.1158H1852.69L1932.02 211.125H1894.87ZM1828.01 146.414H1864.44L1846.94 109.025L1828.01 146.414Z" fill="#0A0A0A"/>
<path d="M1641.41 43.1158H1768.19V76.6697H1721.7V211.125H1688.14V76.6697H1641.41V43.1158Z" fill="#0A0A0A"/>
<path d="M1609.73 211.125L1515.3 113.1V211.125H1481.74V43.1158H1492.29L1585.04 137.067V43.1158H1618.6V211.125H1609.73Z" fill="#0A0A0A"/>
<path d="M1370.79 40C1418.73 40 1457.79 79.0663 1457.79 127C1457.79 174.935 1418.73 214.001 1370.79 214.001C1322.86 214.001 1283.79 174.935 1283.79 127C1283.79 79.0663 1322.86 40 1370.79 40ZM1370.79 74.5126C1341.79 74.5126 1318.31 98.0003 1318.31 127C1318.31 156.001 1341.79 179.488 1370.79 179.488C1399.79 179.488 1423.28 156.001 1423.28 127C1423.28 98.0003 1399.79 74.5126 1370.79 74.5126Z" fill="#0A0A0A"/>
<path d="M1279.53 58.9338L1257.96 83.8595C1225.37 62.7685 1176.23 82.4215 1176.23 127.48C1176.23 174.695 1228.24 193.629 1259.88 169.662L1281.45 194.348C1266.35 206.811 1246.94 214.48 1225.85 214.48C1177.91 214.48 1138.85 175.414 1138.85 127.48C1138.85 79.5454 1177.91 40.4791 1225.85 40.4791C1245.98 40.4791 1264.67 47.4296 1279.53 58.9338Z" fill="#0A0A0A"/>
<path d="M3280.49 74.6697H3235.75V45.1158H3358.54V74.6697H3314.04H3312.04V76.6697V209.125H3282.49V76.6697V74.6697H3280.49Z" stroke="#0A0A0A" stroke-width="4"/>
<path d="M3208.2 194.096C3193.68 205.517 3175.33 212.48 3155.47 212.48C3108.64 212.48 3070.47 174.309 3070.47 127.48C3070.47 80.65 3108.64 42.4791 3155.47 42.4791C3174.38 42.4791 3192 48.7576 3206.24 59.2416L3187.19 81.2567C3170.52 71.2152 3150.08 71.1089 3133.63 79.0631C3116.63 87.282 3103.86 104.13 3103.86 127.48C3103.86 151.921 3117.36 169.145 3134.99 177.087C3152.03 184.761 3172.95 183.789 3189.2 172.357L3208.2 194.096Z" stroke="#0A0A0A" stroke-width="4"/>
<path d="M2990.27 45.1158L3067.71 209.125H3034.99L3020.91 179.118L3020.37 177.968H3019.1H2949.59H2948.37L2947.81 179.062L2932.55 209.125H2899.41L2982.94 45.1158H2990.27ZM2965.07 145.51L2963.6 148.414H2966.85H3003.28H3006.42L3005.09 145.566L2987.6 108.178L2985.86 104.458L2984 108.122L2965.07 145.51Z" stroke="#0A0A0A" stroke-width="4"/>
<path d="M2826.99 74.6697H2782.25V45.1158H2905.04V74.6697H2860.54H2858.54V76.6697V209.125H2828.99V76.6697V74.6697H2826.99Z" stroke="#0A0A0A" stroke-width="4"/>
<path d="M2725.89 137.067V45.1158H2755.44V209.125H2749.42L2655.58 111.712L2652.14 108.141V113.1V209.125H2622.59V45.1158H2630.3L2722.46 138.472L2725.89 141.939V137.067Z" stroke="#0A0A0A" stroke-width="4"/>
<path d="M2509.64 42C2556.47 42 2594.64 80.1709 2594.64 127C2594.64 173.83 2556.47 212.001 2509.64 212.001C2462.81 212.001 2424.64 173.83 2424.64 127C2424.64 80.1709 2462.81 42 2509.64 42ZM2509.64 72.5126C2479.53 72.5126 2455.15 96.8957 2455.15 127C2455.15 157.105 2479.53 181.488 2509.64 181.488C2539.74 181.488 2564.13 157.105 2564.13 127C2564.13 96.8957 2539.74 72.5126 2509.64 72.5126Z" stroke="#0A0A0A" stroke-width="4"/>
<path d="M2417.42 194.096C2402.9 205.517 2384.55 212.48 2364.69 212.48C2317.86 212.48 2279.69 174.309 2279.69 127.48C2279.69 80.65 2317.86 42.4791 2364.69 42.4791C2383.6 42.4791 2401.22 48.7576 2415.47 59.2416L2396.41 81.2567C2379.75 71.2152 2359.3 71.1089 2342.85 79.0631C2325.85 87.282 2313.08 104.13 2313.08 127.48C2313.08 151.921 2326.59 169.145 2344.22 177.087C2361.25 184.761 2382.17 183.789 2398.42 172.357L2417.42 194.096Z" stroke="#0A0A0A" stroke-width="4"/>
</svg>
