<svg width="3361" height="215" viewBox="0 0 3361 215" fill="none" xmlns="http://www.w3.org/2000/svg">
<path d="M1002.8 74.6696H958.06V45.1157H1080.85V74.6696H1036.35H1034.35V76.6696V209.125H1004.8V76.6696V74.6696H1002.8Z" stroke="#FEFAE4" stroke-width="4"/>
<path d="M930.507 194.096C915.986 205.517 897.64 212.48 877.779 212.48C830.949 212.48 792.778 174.309 792.778 127.479C792.778 80.6499 830.949 42.479 877.779 42.479C896.691 42.479 914.311 48.7575 928.554 59.2415L909.502 81.2566C892.834 71.215 872.388 71.1088 855.937 79.0629C838.939 87.2819 826.167 104.129 826.167 127.479C826.167 151.921 839.675 169.145 857.304 177.087C874.337 184.761 895.257 183.789 911.511 172.357L930.507 194.096Z" stroke="#FEFAE4" stroke-width="4"/>
<path d="M712.579 45.1157L790.021 209.125H757.299L743.219 179.118L742.679 177.968H741.408H671.904H670.676L670.12 179.062L654.858 209.125H621.72L705.245 45.1157H712.579ZM687.376 145.51L685.905 148.414H689.16H725.59H728.734L727.401 145.566L709.905 108.177L708.165 104.458L706.31 108.122L687.376 145.51Z" stroke="#FEFAE4" stroke-width="4"/>
<path d="M549.297 74.6696H504.562V45.1157H627.347V74.6696H582.851H580.851V76.6696V209.125H551.297V76.6696V74.6696H549.297Z" stroke="#FEFAE4" stroke-width="4"/>
<path d="M448.196 137.067V45.1157H477.75V209.125H471.733L377.893 111.712L374.452 108.141V113.1V209.125H344.898V45.1157H352.608L444.773 138.472L448.196 141.939V137.067Z" stroke="#FEFAE4" stroke-width="4"/>
<path d="M231.948 42C278.777 42 316.948 80.1709 316.948 127C316.948 173.83 278.777 212.001 231.948 212.001C185.118 212.001 146.947 173.83 146.947 127C146.947 80.1709 185.118 42 231.948 42ZM231.948 72.5126C201.843 72.5126 177.46 96.8957 177.46 127C177.46 157.105 201.843 181.488 231.948 181.488C262.052 181.488 286.436 157.105 286.436 127C286.436 96.8957 262.052 72.5126 231.948 72.5126Z" stroke="#FEFAE4" stroke-width="4"/>
<path d="M139.729 194.096C125.207 205.517 106.861 212.48 87.0005 212.48C40.1709 212.48 2 174.309 2 127.479C2 80.6499 40.1709 42.479 87.0005 42.479C105.913 42.479 123.532 48.7575 137.775 59.2415L118.724 81.2566C102.056 71.215 81.6094 71.1088 65.1587 79.0629C48.1604 87.2819 35.3886 104.129 35.3886 127.479C35.3886 151.921 48.8962 169.145 66.5259 177.087C83.5584 184.761 104.479 183.789 120.733 172.357L139.729 194.096Z" stroke="#FEFAE4" stroke-width="4"/>
<path d="M2094.91 43.1157H2221.69V76.6696H2175.19V211.125H2141.64V76.6696H2094.91V43.1157Z" fill="#FEFAE4"/>
<path d="M2070.31 58.9336L2048.74 83.8594C2016.15 62.7684 1967.01 82.4214 1967.01 127.479C1967.01 174.695 2019.02 193.629 2050.66 169.661L2072.23 194.348C2057.13 206.81 2037.72 214.48 2016.62 214.48C1968.69 214.48 1929.62 175.414 1929.62 127.479C1929.62 79.5453 1968.69 40.479 2016.62 40.479C2036.76 40.479 2055.45 47.4294 2070.31 58.9336Z" fill="#FEFAE4"/>
<path d="M1894.87 211.125L1880.25 179.968H1810.75L1794.93 211.125H1757.3L1842.87 43.1157H1852.69L1932.02 211.125H1894.87ZM1828.01 146.414H1864.44L1846.94 109.025L1828.01 146.414Z" fill="#FEFAE4"/>
<path d="M1641.41 43.1157H1768.19V76.6696H1721.7V211.125H1688.14V76.6696H1641.41V43.1157Z" fill="#FEFAE4"/>
<path d="M1609.73 211.125L1515.3 113.1V211.125H1481.74V43.1157H1492.29L1585.04 137.067V43.1157H1618.6V211.125H1609.73Z" fill="#FEFAE4"/>
<path d="M1370.79 40C1418.73 40 1457.79 79.0663 1457.79 127C1457.79 174.935 1418.73 214.001 1370.79 214.001C1322.86 214.001 1283.79 174.935 1283.79 127C1283.79 79.0663 1322.86 40 1370.79 40ZM1370.79 74.5126C1341.79 74.5126 1318.31 98.0003 1318.31 127C1318.31 156.001 1341.79 179.488 1370.79 179.488C1399.79 179.488 1423.28 156.001 1423.28 127C1423.28 98.0003 1399.79 74.5126 1370.79 74.5126Z" fill="#FEFAE4"/>
<path d="M1279.53 58.9336L1257.96 83.8594C1225.37 62.7684 1176.23 82.4214 1176.23 127.479C1176.23 174.695 1228.24 193.629 1259.88 169.661L1281.45 194.348C1266.35 206.81 1246.94 214.48 1225.85 214.48C1177.91 214.48 1138.85 175.414 1138.85 127.479C1138.85 79.5453 1177.91 40.479 1225.85 40.479C1245.98 40.479 1264.67 47.4294 1279.53 58.9336Z" fill="#FEFAE4"/>
<path d="M3280.49 74.6696H3235.75V45.1157H3358.54V74.6696H3314.04H3312.04V76.6696V209.125H3282.49V76.6696V74.6696H3280.49Z" stroke="#FEFAE4" stroke-width="4"/>
<path d="M3208.2 194.096C3193.68 205.517 3175.33 212.48 3155.47 212.48C3108.64 212.48 3070.47 174.309 3070.47 127.479C3070.47 80.6499 3108.64 42.479 3155.47 42.479C3174.38 42.479 3192 48.7575 3206.24 59.2415L3187.19 81.2566C3170.52 71.215 3150.08 71.1088 3133.63 79.0629C3116.63 87.2819 3103.86 104.129 3103.86 127.479C3103.86 151.921 3117.36 169.145 3134.99 177.087C3152.03 184.761 3172.95 183.789 3189.2 172.357L3208.2 194.096Z" stroke="#FEFAE4" stroke-width="4"/>
<path d="M2990.27 45.1157L3067.71 209.125H3034.99L3020.91 179.118L3020.37 177.968H3019.1H2949.59H2948.37L2947.81 179.062L2932.55 209.125H2899.41L2982.94 45.1157H2990.27ZM2965.07 145.51L2963.6 148.414H2966.85H3003.28H3006.42L3005.09 145.566L2987.6 108.177L2985.86 104.458L2984 108.122L2965.07 145.51Z" stroke="#FEFAE4" stroke-width="4"/>
<path d="M2826.99 74.6696H2782.25V45.1157H2905.04V74.6696H2860.54H2858.54V76.6696V209.125H2828.99V76.6696V74.6696H2826.99Z" stroke="#FEFAE4" stroke-width="4"/>
<path d="M2725.89 137.067V45.1157H2755.44V209.125H2749.42L2655.58 111.712L2652.14 108.141V113.1V209.125H2622.59V45.1157H2630.3L2722.46 138.472L2725.89 141.939V137.067Z" stroke="#FEFAE4" stroke-width="4"/>
<path d="M2509.64 42C2556.47 42 2594.64 80.1709 2594.64 127C2594.64 173.83 2556.47 212.001 2509.64 212.001C2462.81 212.001 2424.64 173.83 2424.64 127C2424.64 80.1709 2462.81 42 2509.64 42ZM2509.64 72.5126C2479.53 72.5126 2455.15 96.8957 2455.15 127C2455.15 157.105 2479.53 181.488 2509.64 181.488C2539.74 181.488 2564.13 157.105 2564.13 127C2564.13 96.8957 2539.74 72.5126 2509.64 72.5126Z" stroke="#FEFAE4" stroke-width="4"/>
<path d="M2417.42 194.096C2402.9 205.517 2384.55 212.48 2364.69 212.48C2317.86 212.48 2279.69 174.309 2279.69 127.479C2279.69 80.6499 2317.86 42.479 2364.69 42.479C2383.6 42.479 2401.22 48.7575 2415.47 59.2415L2396.41 81.2566C2379.75 71.215 2359.3 71.1088 2342.85 79.0629C2325.85 87.2819 2313.08 104.129 2313.08 127.479C2313.08 151.921 2326.59 169.145 2344.22 177.087C2361.25 184.761 2382.17 183.789 2398.42 172.357L2417.42 194.096Z" stroke="#FEFAE4" stroke-width="4"/>
</svg>
