<svg width="2944" height="219" viewBox="0 0 2944 219" fill="none" xmlns="http://www.w3.org/2000/svg">
<path d="M938.982 213.596H942.113L940.797 210.755L908.223 140.452C925.467 131.842 937.137 114.114 937.137 93.5936C937.137 64.623 913.662 40.8838 884.667 40.8838H821.22H819.22V42.8838V211.356V213.356H821.22H854.866H856.866V211.356V146.063H870.415L901.36 212.441L901.898 213.596H903.173H938.982ZM856.866 108.417V78.5301H884.667C892.899 78.5301 899.49 85.2881 899.49 93.5936C899.49 101.862 892.935 108.417 884.667 108.417H856.866Z" stroke="#0A0A0A" stroke-width="4"/>
<path d="M794.447 43.1248V41.1248H792.447H680.213H678.213V43.1248V211.597V213.597H680.213H791.726H793.726V211.597V177.95V175.95H791.726H715.859V143.42H778.749H780.749V141.42V107.774V105.774H778.749H715.859V78.7711H792.447H794.447V76.7711V43.1248Z" stroke="#0A0A0A" stroke-width="4"/>
<path d="M530.164 41.1248H528.164V43.1248V76.7711V78.7711H530.164H575.029V211.597V213.597H577.029H610.675H612.675V211.597V78.7711H657.299H659.299V76.7711V43.1248V41.1248H657.299H530.164Z" stroke="#0A0A0A" stroke-width="4"/>
<path d="M518.913 127.24C518.913 78.0696 478.844 38.0002 429.673 38.0002C380.502 38.0002 340.433 78.0696 340.433 127.24C340.433 176.411 380.502 216.481 429.673 216.481C478.844 216.481 518.913 176.411 518.913 127.24ZM379.041 127.24C379.041 99.2649 401.698 76.6079 429.673 76.6079C457.649 76.6079 480.306 99.2649 480.306 127.24C480.306 155.216 457.649 177.873 429.673 177.873C401.698 177.873 379.041 155.216 379.041 127.24Z" stroke="#0A0A0A" stroke-width="4"/>
<path d="M318.012 127.24C318.012 78.0696 277.943 38.0002 228.772 38.0002C179.602 38.0002 139.532 78.0696 139.532 127.24C139.532 176.411 179.602 216.481 228.772 216.481C277.943 216.481 318.012 176.411 318.012 127.24ZM178.14 127.24C178.14 99.2649 200.797 76.6079 228.772 76.6079C256.748 76.6079 279.405 99.2649 279.405 127.24C279.405 155.216 256.748 177.873 228.772 177.873C200.797 177.873 178.14 155.216 178.14 127.24Z" stroke="#0A0A0A" stroke-width="4"/>
<path d="M118.235 43.1248V41.1248H116.235H4H2V43.1248V211.597V213.597H4H37.6463H39.6463V211.597V143.42H102.536H104.536V141.42V107.774V105.774H102.536H39.6463V78.7711H116.235H118.235V76.7711V43.1248Z" stroke="#0A0A0A" stroke-width="4"/>
<path d="M1937.96 211.596H1902.15L1870.67 144.063H1853.85V211.356H1820.2V42.8838H1883.65C1911.52 42.8838 1934.12 65.7152 1934.12 93.5935C1934.12 114.022 1922.1 131.566 1904.56 139.497L1937.96 211.596ZM1883.65 76.5301H1853.85V110.417H1883.65C1893.02 110.417 1900.47 102.966 1900.47 93.5935C1900.47 84.2206 1893.02 76.5301 1883.65 76.5301Z" fill="#0A0A0A"/>
<path d="M1791.43 43.125V76.7713H1712.84V107.774H1777.73V141.42H1712.84V177.95H1790.71V211.597H1679.19V43.125H1791.43Z" fill="#0A0A0A"/>
<path d="M1529.14 43.125H1656.28V76.7713H1609.66V211.597H1576.01V76.7713H1529.14V43.125Z" fill="#0A0A0A"/>
<path d="M1428.65 40.0005C1476.72 40.0005 1515.89 79.1744 1515.89 127.24C1515.89 175.307 1476.72 214.48 1428.65 214.48C1380.59 214.48 1341.41 175.307 1341.41 127.24C1341.41 79.1744 1380.59 40.0005 1428.65 40.0005ZM1428.65 74.6081C1399.57 74.6081 1376.02 98.1605 1376.02 127.24C1376.02 156.32 1399.57 179.873 1428.65 179.873C1457.73 179.873 1481.29 156.32 1481.29 127.24C1481.29 98.1605 1457.73 74.6081 1428.65 74.6081Z" fill="#0A0A0A"/>
<path d="M1227.75 40.0005C1275.82 40.0005 1314.99 79.1744 1314.99 127.24C1314.99 175.307 1275.82 214.48 1227.75 214.48C1179.69 214.48 1140.51 175.307 1140.51 127.24C1140.51 79.1744 1179.69 40.0005 1227.75 40.0005ZM1227.75 74.6081C1198.67 74.6081 1175.12 98.1605 1175.12 127.24C1175.12 156.32 1198.67 179.873 1227.75 179.873C1256.83 179.873 1280.39 156.32 1280.39 127.24C1280.39 98.1605 1256.83 74.6081 1227.75 74.6081Z" fill="#0A0A0A"/>
<path d="M1115.22 43.125V76.7713H1036.63V107.774H1101.52V141.42H1036.63V211.597H1002.98V43.125H1115.22Z" fill="#0A0A0A"/>
<path d="M2936.94 213.596H2940.07L2938.76 210.755L2906.18 140.452C2923.43 131.842 2935.1 114.114 2935.1 93.5936C2935.1 64.623 2911.62 40.8838 2882.63 40.8838H2819.18H2817.18V42.8838V211.356V213.356H2819.18H2852.83H2854.83V211.356V146.063H2868.38L2899.32 212.441L2899.86 213.596H2901.13H2936.94ZM2854.83 108.417V78.5301H2882.63C2890.86 78.5301 2897.45 85.2881 2897.45 93.5936C2897.45 101.862 2890.9 108.417 2882.63 108.417H2854.83Z" stroke="#0A0A0A" stroke-width="4"/>
<path d="M2792.41 43.1248V41.1248H2790.41H2678.17H2676.17V43.1248V211.597V213.597H2678.17H2789.69H2791.69V211.597V177.95V175.95H2789.69H2713.82V143.42H2776.71H2778.71V141.42V107.774V105.774H2776.71H2713.82V78.7711H2790.41H2792.41V76.7711V43.1248Z" stroke="#0A0A0A" stroke-width="4"/>
<path d="M2528.13 41.1248H2526.13V43.1248V76.7711V78.7711H2528.13H2572.99V211.597V213.597H2574.99H2608.64H2610.64V211.597V78.7711H2655.26H2657.26V76.7711V43.1248V41.1248H2655.26H2528.13Z" stroke="#0A0A0A" stroke-width="4"/>
<path d="M2516.88 127.24C2516.88 78.0696 2476.81 38.0002 2427.64 38.0002C2378.46 38.0002 2338.4 78.0696 2338.4 127.24C2338.4 176.411 2378.46 216.481 2427.64 216.481C2476.81 216.481 2516.88 176.411 2516.88 127.24ZM2377 127.24C2377 99.2649 2399.66 76.6079 2427.64 76.6079C2455.61 76.6079 2478.27 99.2649 2478.27 127.24C2478.27 155.216 2455.61 177.873 2427.64 177.873C2399.66 177.873 2377 155.216 2377 127.24Z" stroke="#0A0A0A" stroke-width="4"/>
<path d="M2315.97 127.24C2315.97 78.0696 2275.91 38.0002 2226.73 38.0002C2177.56 38.0002 2137.49 78.0696 2137.49 127.24C2137.49 176.411 2177.56 216.481 2226.73 216.481C2275.91 216.481 2315.97 176.411 2315.97 127.24ZM2176.1 127.24C2176.1 99.2649 2198.76 76.6079 2226.73 76.6079C2254.71 76.6079 2277.37 99.2649 2277.37 127.24C2277.37 155.216 2254.71 177.873 2226.73 177.873C2198.76 177.873 2176.1 155.216 2176.1 127.24Z" stroke="#0A0A0A" stroke-width="4"/>
<path d="M2116.2 43.1248V41.1248H2114.2H2001.96H1999.96V43.1248V211.597V213.597H2001.96H2035.61H2037.61V211.597V143.42H2100.5H2102.5V141.42V107.774V105.774H2100.5H2037.61V78.7711H2114.2H2116.2V76.7711V43.1248Z" stroke="#0A0A0A" stroke-width="4"/>
</svg>
