<svg width="2855" height="219" viewBox="0 0 2855 219" fill="none" xmlns="http://www.w3.org/2000/svg">
<path d="M938.982 213.596H942.113L940.797 210.755L908.223 140.452C925.467 131.842 937.137 114.114 937.137 93.5936C937.137 64.623 913.662 40.8838 884.667 40.8838H821.22H819.22V42.8838V211.356V213.356H821.22H854.866H856.866V211.356V146.063H870.415L901.36 212.441L901.898 213.596H903.173H938.982ZM856.866 108.417V78.5301H884.667C892.899 78.5301 899.49 85.2881 899.49 93.5936C899.49 101.862 892.935 108.417 884.667 108.417H856.866Z" stroke="#FEFAE4" stroke-width="4"/>
<path d="M794.447 43.1248V41.1248H792.447H680.213H678.213V43.1248V211.597V213.597H680.213H791.726H793.726V211.597V177.95V175.95H791.726H715.859V143.42H778.749H780.749V141.42V107.774V105.774H778.749H715.859V78.7711H792.447H794.447V76.7711V43.1248Z" stroke="#FEFAE4" stroke-width="4"/>
<path d="M530.164 41.1248H528.164V43.1248V76.7711V78.7711H530.164H575.029V211.597V213.597H577.029H610.675H612.675V211.597V78.7711H657.299H659.299V76.7711V43.1248V41.1248H657.299H530.164Z" stroke="#FEFAE4" stroke-width="4"/>
<path d="M518.913 127.24C518.913 78.0696 478.844 38.0002 429.673 38.0002C380.502 38.0002 340.433 78.0696 340.433 127.24C340.433 176.411 380.502 216.481 429.673 216.481C478.844 216.481 518.913 176.411 518.913 127.24ZM379.041 127.24C379.041 99.2649 401.698 76.6079 429.673 76.6079C457.649 76.6079 480.306 99.2649 480.306 127.24C480.306 155.216 457.649 177.873 429.673 177.873C401.698 177.873 379.041 155.216 379.041 127.24Z" stroke="#FEFAE4" stroke-width="4"/>
<path d="M318.012 127.24C318.012 78.0696 277.943 38.0002 228.772 38.0002C179.602 38.0002 139.532 78.0696 139.532 127.24C139.532 176.411 179.602 216.481 228.772 216.481C277.943 216.481 318.012 176.411 318.012 127.24ZM178.14 127.24C178.14 99.2649 200.797 76.6079 228.772 76.6079C256.748 76.6079 279.405 99.2649 279.405 127.24C279.405 155.216 256.748 177.873 228.772 177.873C200.797 177.873 178.14 155.216 178.14 127.24Z" stroke="#FEFAE4" stroke-width="4"/>
<path d="M118.235 43.1248V41.1248H116.235H4H2V43.1248V211.597V213.597H4H37.6463H39.6463V211.597V143.42H102.536H104.536V141.42V107.774V105.774H102.536H39.6463V78.7711H116.235H118.235V76.7711V43.1248Z" stroke="#FEFAE4" stroke-width="4"/>
<path d="M1849.67 203.63H1817.24L1788.73 142.474H1773.5V203.412H1743.03V50.8501H1800.48C1825.73 50.8501 1846.19 71.5254 1846.19 96.771C1846.19 115.27 1835.3 131.157 1819.42 138.339L1849.67 203.63ZM1800.48 81.319H1773.5V112.005H1800.48C1808.97 112.005 1815.72 105.259 1815.72 96.771C1815.72 88.2833 1808.97 81.319 1800.48 81.319Z" fill="#FEFAE4"/>
<path d="M1716.97 51.0682V81.5371H1645.8V109.612H1704.57V140.081H1645.8V173.161H1716.32V203.63H1615.34V51.0682H1716.97Z" fill="#FEFAE4"/>
<path d="M1479.46 51.0682H1594.59V81.5371H1552.36V203.63H1521.9V81.5371H1479.46V51.0682Z" fill="#FEFAE4"/>
<path d="M1388.46 48.2389C1431.98 48.2389 1467.46 83.7134 1467.46 127.24C1467.46 170.767 1431.98 206.242 1388.46 206.242C1344.93 206.242 1309.46 170.767 1309.46 127.24C1309.46 83.7134 1344.93 48.2389 1388.46 48.2389ZM1388.46 79.5783C1362.12 79.5783 1340.79 100.907 1340.79 127.24C1340.79 153.574 1362.12 174.902 1388.46 174.902C1414.79 174.902 1436.12 153.574 1436.12 127.24C1436.12 100.907 1414.79 79.5783 1388.46 79.5783Z" fill="#FEFAE4"/>
<path d="M1206.53 48.2389C1250.05 48.2389 1285.53 83.7134 1285.53 127.24C1285.53 170.767 1250.05 206.242 1206.53 206.242C1163 206.242 1127.53 170.767 1127.53 127.24C1127.53 83.7134 1163 48.2389 1206.53 48.2389ZM1206.53 79.5783C1180.19 79.5783 1158.87 100.907 1158.87 127.24C1158.87 153.574 1180.19 174.902 1206.53 174.902C1232.86 174.902 1254.19 153.574 1254.19 127.24C1254.19 100.907 1232.86 79.5783 1206.53 79.5783Z" fill="#FEFAE4"/>
<path d="M1104.62 51.0682V81.5371H1033.45V109.612H1092.21V140.081H1033.45V203.63H1002.98V51.0682H1104.62Z" fill="#FEFAE4"/>
<path d="M2848.65 213.596H2851.78L2850.46 210.755L2817.89 140.452C2835.13 131.842 2846.8 114.114 2846.8 93.5936C2846.8 64.623 2823.33 40.8838 2794.33 40.8838H2730.89H2728.89V42.8838V211.356V213.356H2730.89H2764.53H2766.53V211.356V146.063H2780.08L2811.03 212.441L2811.57 213.596H2812.84H2848.65ZM2766.53 108.417V78.5301H2794.33C2802.57 78.5301 2809.16 85.2881 2809.16 93.5936C2809.16 101.862 2802.6 108.417 2794.33 108.417H2766.53Z" stroke="#FEFAE4" stroke-width="4"/>
<path d="M2704.11 43.1248V41.1248H2702.11H2589.88H2587.88V43.1248V211.597V213.597H2589.88H2701.39H2703.39V211.597V177.95V175.95H2701.39H2625.53V143.42H2688.42H2690.42V141.42V107.774V105.774H2688.42H2625.53V78.7711H2702.11H2704.11V76.7711V43.1248Z" stroke="#FEFAE4" stroke-width="4"/>
<path d="M2439.83 41.1248H2437.83V43.1248V76.7711V78.7711H2439.83H2484.7V211.597V213.597H2486.7H2520.34H2522.34V211.597V78.7711H2566.97H2568.97V76.7711V43.1248V41.1248H2566.97H2439.83Z" stroke="#FEFAE4" stroke-width="4"/>
<path d="M2428.58 127.24C2428.58 78.0696 2388.51 38.0002 2339.34 38.0002C2290.17 38.0002 2250.1 78.0696 2250.1 127.24C2250.1 176.411 2290.17 216.481 2339.34 216.481C2388.51 216.481 2428.58 176.411 2428.58 127.24ZM2288.71 127.24C2288.71 99.2649 2311.37 76.6079 2339.34 76.6079C2367.32 76.6079 2389.97 99.2649 2389.97 127.24C2389.97 155.216 2367.32 177.873 2339.34 177.873C2311.37 177.873 2288.71 155.216 2288.71 127.24Z" stroke="#FEFAE4" stroke-width="4"/>
<path d="M2227.68 127.24C2227.68 78.0696 2187.61 38.0002 2138.44 38.0002C2089.27 38.0002 2049.2 78.0696 2049.2 127.24C2049.2 176.411 2089.27 216.481 2138.44 216.481C2187.61 216.481 2227.68 176.411 2227.68 127.24ZM2087.81 127.24C2087.81 99.2649 2110.46 76.6079 2138.44 76.6079C2166.41 76.6079 2189.07 99.2649 2189.07 127.24C2189.07 155.216 2166.41 177.873 2138.44 177.873C2110.46 177.873 2087.81 155.216 2087.81 127.24Z" stroke="#FEFAE4" stroke-width="4"/>
<path d="M2027.9 43.1248V41.1248H2025.9H1913.67H1911.67V43.1248V211.597V213.597H1913.67H1947.31H1949.31V211.597V143.42H2012.2H2014.2V141.42V107.774V105.774H2012.2H1949.31V78.7711H2025.9H2027.9V76.7711V43.1248Z" stroke="#FEFAE4" stroke-width="4"/>
</svg>
