<svg width="1728" height="184" viewBox="0 0 1728 184" fill="none" xmlns="http://www.w3.org/2000/svg">
<g clip-path="url(#clip0_2128_581)">
<path d="M10.5577 35.752H9.94387L9.66601 36.2993L1.49587 52.392H-16.3548L28.3226 -35.336H32.324L73.7476 52.392H56.1211L48.583 36.3272L48.3131 35.752H47.6777H10.5577ZM18.8815 18.3802L18.1463 19.832H19.7737H39.2297H40.8017L40.1354 18.4082L30.7914 -1.55984L29.9212 -3.41954L28.9935 -1.58778L18.8815 18.3802ZM128.208 4.18021L127.661 4.96516L128.421 5.54636C134.709 10.355 138.653 17.873 138.653 26.256C138.653 40.8046 126.943 52.392 112.517 52.392H83.9487V-35.208H107.397C121.308 -35.208 132.637 -23.8797 132.637 -9.968C132.637 -4.67363 131.038 0.119686 128.208 4.18021ZM97.8207 -0.751995V0.248005H98.8207H106.629C112.091 0.248005 117.997 -4.21758 117.997 -11.12C117.997 -18.0544 112.056 -22.232 106.629 -22.232H98.8207H97.8207V-21.232V-0.751995ZM98.2047 38.16V39.16H99.2047H112.261C118.798 39.16 124.269 34.0067 124.269 27.408C124.269 20.8246 118.814 15.528 112.261 15.528H99.2047H98.2047V16.528V38.16ZM315.685 20.24V21.24H315.798C315.267 39.4202 300.314 53.928 282.125 53.928C263.477 53.928 248.435 38.8876 248.309 20.3658C248.309 20.3643 248.309 20.3628 248.309 20.3613L248.309 -35.336H264.229V20.24C264.229 24.9931 266.132 29.4692 269.514 32.8511C272.909 36.2468 277.391 38.008 282.125 38.008C286.866 38.008 291.218 36.2412 294.608 32.8511C297.998 29.4606 299.757 25.1174 299.892 20.3966L299.922 19.368H299.765V-35.336H315.685V20.24ZM354.269 -18.416V-19.416H353.269H329.309V-35.336H395.021V-19.416H371.189H370.189V-18.416V52.392H354.269V-18.416ZM154.699 8.464C154.699 -16.5837 175.115 -37 200.163 -37C225.21 -37 245.627 -16.5837 245.627 8.464C245.627 33.5117 225.21 53.928 200.163 53.928C175.115 53.928 154.699 33.5117 154.699 8.464ZM229.195 8.464C229.195 -7.57628 216.203 -20.568 200.163 -20.568C184.122 -20.568 171.131 -7.57628 171.131 8.464C171.131 24.5043 184.122 37.496 200.163 37.496C216.203 37.496 229.195 24.5043 229.195 8.464Z" stroke="#FEFAE4" stroke-width="2"/>
<path d="M460.565 35.752H459.952L459.674 36.2993L451.504 52.392H433.653L478.33 -35.336H482.332L523.755 52.392H506.129L498.591 36.3272L498.321 35.752H497.685H460.565ZM468.889 18.3802L468.154 19.832H469.781H489.237H490.81L490.143 18.4082L480.799 -1.55984L479.929 -3.41954L479.001 -1.58778L468.889 18.3802ZM578.216 4.18021L577.669 4.96516L578.429 5.54636C584.717 10.355 588.66 17.873 588.66 26.256C588.66 40.8046 576.951 52.392 562.524 52.392H533.956V-35.208H557.404C571.316 -35.208 582.644 -23.8797 582.644 -9.968C582.644 -4.67363 581.046 0.119686 578.216 4.18021ZM547.828 -0.751995V0.248005H548.828H556.636C562.099 0.248005 568.004 -4.21758 568.004 -11.12C568.004 -18.0544 562.064 -22.232 556.636 -22.232H548.828H547.828V-21.232V-0.751995ZM548.212 38.16V39.16H549.212H562.268C568.806 39.16 574.276 34.0067 574.276 27.408C574.276 20.8246 568.822 15.528 562.268 15.528H549.212H548.212V16.528V38.16ZM765.692 20.24V21.24H765.806C765.275 39.4202 750.322 53.928 732.132 53.928C713.485 53.928 698.443 38.8876 698.316 20.3658C698.316 20.3643 698.316 20.3628 698.316 20.3613L698.316 -35.336H714.236V20.24C714.236 24.9931 716.139 29.4692 719.521 32.8511C722.917 36.2468 727.399 38.008 732.132 38.008C736.874 38.008 741.225 36.2412 744.616 32.8511C748.006 29.4606 749.765 25.1174 749.9 20.3966L749.929 19.368H749.772V-35.336H765.692V20.24ZM804.276 -18.416V-19.416H803.276H779.316V-35.336H845.029V-19.416H821.196H820.196V-18.416V52.392H804.276V-18.416ZM604.706 8.464C604.706 -16.5837 625.123 -37 650.17 -37C675.218 -37 695.634 -16.5837 695.634 8.464C695.634 33.5117 675.218 53.928 650.17 53.928C625.123 53.928 604.706 33.5117 604.706 8.464ZM679.202 8.464C679.202 -7.57628 666.211 -20.568 650.17 -20.568C634.13 -20.568 621.138 -7.57628 621.138 8.464C621.138 24.5043 634.13 37.496 650.17 37.496C666.211 37.496 679.202 24.5043 679.202 8.464Z" stroke="#FEFAE4" stroke-width="2"/>
<path d="M910.572 35.752H909.959L909.681 36.2993L901.511 52.392H883.66L928.337 -35.336H932.339L973.762 52.392H956.136L948.598 36.3272L948.328 35.752H947.692H910.572ZM918.896 18.3802L918.161 19.832H919.788H939.244H940.816L940.15 18.4082L930.806 -1.55984L929.936 -3.41954L929.008 -1.58778L918.896 18.3802ZM1028.22 4.18021L1027.68 4.96516L1028.44 5.54636C1034.72 10.355 1038.67 17.873 1038.67 26.256C1038.67 40.8046 1026.96 52.392 1012.53 52.392H983.963V-35.208H1007.41C1021.32 -35.208 1032.65 -23.8797 1032.65 -9.968C1032.65 -4.67363 1031.05 0.119686 1028.22 4.18021ZM997.835 -0.751995V0.248005H998.835H1006.64C1012.11 0.248005 1018.01 -4.21758 1018.01 -11.12C1018.01 -18.0544 1012.07 -22.232 1006.64 -22.232H998.835H997.835V-21.232V-0.751995ZM998.219 38.16V39.16H999.219H1012.28C1018.81 39.16 1024.28 34.0067 1024.28 27.408C1024.28 20.8246 1018.83 15.528 1012.28 15.528H999.219H998.219V16.528V38.16ZM1215.7 20.24V21.24H1215.81C1215.28 39.4202 1200.33 53.928 1182.14 53.928C1163.49 53.928 1148.45 38.8876 1148.32 20.3658C1148.32 20.3643 1148.32 20.3628 1148.32 20.3613L1148.32 -35.336H1164.24V20.24C1164.24 24.9931 1166.15 29.4692 1169.53 32.8511C1172.92 36.2468 1177.41 38.008 1182.14 38.008C1186.88 38.008 1191.23 36.2412 1194.62 32.8511C1198.01 29.4606 1199.77 25.1174 1199.91 20.3966L1199.94 19.368H1199.78V-35.336H1215.7V20.24ZM1254.28 -18.416V-19.416H1253.28H1229.32V-35.336H1295.04V-19.416H1271.2H1270.2V-18.416V52.392H1254.28V-18.416ZM1054.71 8.464C1054.71 -16.5837 1075.13 -37 1100.18 -37C1125.23 -37 1145.64 -16.5837 1145.64 8.464C1145.64 33.5117 1125.23 53.928 1100.18 53.928C1075.13 53.928 1054.71 33.5117 1054.71 8.464ZM1129.21 8.464C1129.21 -7.57628 1116.22 -20.568 1100.18 -20.568C1084.14 -20.568 1071.15 -7.57628 1071.15 8.464C1071.15 24.5043 1084.14 37.496 1100.18 37.496C1116.22 37.496 1129.21 24.5043 1129.21 8.464Z" stroke="#FEFAE4" stroke-width="2"/>
<path d="M1360.58 35.752H1359.97L1359.69 36.2993L1351.52 52.392H1333.67L1378.34 -35.336H1382.35L1423.77 52.392H1406.14L1398.6 36.3272L1398.33 35.752H1397.7H1360.58ZM1368.9 18.3802L1368.17 19.832H1369.8H1389.25H1390.82L1390.16 18.4082L1380.81 -1.55984L1379.94 -3.41954L1379.02 -1.58778L1368.9 18.3802ZM1478.23 4.18021L1477.68 4.96516L1478.44 5.54636C1484.73 10.355 1488.67 17.873 1488.67 26.256C1488.67 40.8046 1476.96 52.392 1462.54 52.392H1433.97V-35.208H1457.42C1471.33 -35.208 1482.66 -23.8797 1482.66 -9.968C1482.66 -4.67363 1481.06 0.119686 1478.23 4.18021ZM1447.84 -0.751995V0.248005H1448.84H1456.65C1462.11 0.248005 1468.02 -4.21758 1468.02 -11.12C1468.02 -18.0544 1462.08 -22.232 1456.65 -22.232H1448.84H1447.84V-21.232V-0.751995ZM1448.23 38.16V39.16H1449.23H1462.28C1468.82 39.16 1474.29 34.0067 1474.29 27.408C1474.29 20.8246 1468.84 15.528 1462.28 15.528H1449.23H1448.23V16.528V38.16ZM1665.71 20.24V21.24H1665.82C1665.29 39.4202 1650.34 53.928 1632.15 53.928C1613.5 53.928 1598.46 38.8876 1598.33 20.3658C1598.33 20.3643 1598.33 20.3628 1598.33 20.3613L1598.33 -35.336H1614.25V20.24C1614.25 24.9931 1616.15 29.4692 1619.54 32.8511C1622.93 36.2468 1627.41 38.008 1632.15 38.008C1636.89 38.008 1641.24 36.2412 1644.63 32.8511C1648.02 29.4606 1649.78 25.1174 1649.91 20.3966L1649.94 19.368H1649.79V-35.336H1665.71V20.24ZM1704.29 -18.416V-19.416H1703.29H1679.33V-35.336H1745.04V-19.416H1721.21H1720.21V-18.416V52.392H1704.29V-18.416ZM1504.72 8.464C1504.72 -16.5837 1525.14 -37 1550.18 -37C1575.23 -37 1595.65 -16.5837 1595.65 8.464C1595.65 33.5117 1575.23 53.928 1550.18 53.928C1525.14 53.928 1504.72 33.5117 1504.72 8.464ZM1579.22 8.464C1579.22 -7.57628 1566.22 -20.568 1550.18 -20.568C1534.14 -20.568 1521.15 -7.57628 1521.15 8.464C1521.15 24.5043 1534.14 37.496 1550.18 37.496C1566.22 37.496 1579.22 24.5043 1579.22 8.464Z" stroke="#FEFAE4" stroke-width="2"/>
<path d="M-253.456 164.752H-254.07L-254.348 165.299L-262.518 181.392H-280.369L-235.691 93.664H-231.69L-190.266 181.392H-207.893L-215.431 165.327L-215.701 164.752H-216.336H-253.456ZM-245.132 147.38L-245.867 148.832H-244.24H-224.784H-223.212L-223.878 147.408L-233.222 127.44L-234.093 125.58L-235.02 127.412L-245.132 147.38ZM-135.805 133.18L-136.352 133.965L-135.592 134.546C-129.304 139.355 -125.361 146.873 -125.361 155.256C-125.361 169.805 -137.07 181.392 -151.497 181.392H-180.065V93.792H-156.617C-142.705 93.792 -131.377 105.12 -131.377 119.032C-131.377 124.326 -132.975 129.12 -135.805 133.18ZM-166.193 128.248V129.248H-165.193H-157.385C-151.922 129.248 -146.017 124.782 -146.017 117.88C-146.017 110.946 -151.958 106.768 -157.385 106.768H-165.193H-166.193V107.768V128.248ZM-165.809 167.16V168.16H-164.809H-151.753C-145.216 168.16 -139.745 163.007 -139.745 156.408C-139.745 149.825 -145.2 144.528 -151.753 144.528H-164.809H-165.809V145.528V167.16ZM51.671 149.24V150.24H51.7844C51.2537 168.42 36.3008 182.928 18.111 182.928C-0.536316 182.928 -15.5782 167.888 -15.705 149.366C-15.705 149.364 -15.705 149.363 -15.705 149.361L-15.705 93.664H0.214996V149.24C0.214996 153.993 2.11795 158.469 5.49991 161.851C8.89563 165.247 13.3776 167.008 18.111 167.008C22.8526 167.008 27.204 165.241 30.5941 161.851C33.9846 158.461 35.7437 154.117 35.8786 149.397L35.908 148.368H35.751V93.664H51.671V149.24ZM90.255 110.584V109.584H89.255H65.295V93.664H131.007V109.584H107.175H106.175V110.584V181.392H90.255V110.584ZM-109.315 137.464C-109.315 112.416 -88.8987 92 -63.851 92C-38.8033 92 -18.387 112.416 -18.387 137.464C-18.387 162.512 -38.8033 182.928 -63.851 182.928C-88.8987 182.928 -109.315 162.512 -109.315 137.464ZM-34.819 137.464C-34.819 121.424 -47.8107 108.432 -63.851 108.432C-79.8913 108.432 -92.883 121.424 -92.883 137.464C-92.883 153.504 -79.8913 166.496 -63.851 166.496C-47.8107 166.496 -34.819 153.504 -34.819 137.464Z" stroke="#FEFAE4" stroke-width="2"/>
<path d="M196.551 164.752H195.937L195.659 165.299L187.489 181.392H169.638L214.316 93.664H218.317L259.741 181.392H242.114L234.576 165.327L234.306 164.752H233.671H196.551ZM204.875 147.38L204.14 148.832H205.767H225.223H226.795L226.129 147.408L216.785 127.44L215.914 125.58L214.987 127.412L204.875 147.38ZM314.201 133.18L313.654 133.965L314.414 134.546C320.703 139.355 324.646 146.873 324.646 155.256C324.646 169.805 312.937 181.392 298.51 181.392H269.942V93.792H293.39C307.302 93.792 318.63 105.12 318.63 119.032C318.63 124.326 317.031 129.12 314.201 133.18ZM283.814 128.248V129.248H284.814H292.622C298.085 129.248 303.99 124.782 303.99 117.88C303.99 110.946 298.049 106.768 292.622 106.768H284.814H283.814V107.768V128.248ZM284.198 167.16V168.16H285.198H298.254C304.791 168.16 310.262 163.007 310.262 156.408C310.262 149.825 304.807 144.528 298.254 144.528H285.198H284.198V145.528V167.16ZM501.678 149.24V150.24H501.791C501.261 168.42 486.308 182.928 468.118 182.928C449.471 182.928 434.429 167.888 434.302 149.366C434.302 149.364 434.302 149.363 434.302 149.361L434.302 93.664H450.222V149.24C450.222 153.993 452.125 158.469 455.507 161.851C458.902 165.247 463.384 167.008 468.118 167.008C472.859 167.008 477.211 165.241 480.601 161.851C483.991 158.461 485.751 154.117 485.885 149.397L485.915 148.368H485.758V93.664H501.678V149.24ZM540.262 110.584V109.584H539.262H515.302V93.664H581.014V109.584H557.182H556.182V110.584V181.392H540.262V110.584ZM340.692 137.464C340.692 112.416 361.108 92 386.156 92C411.204 92 431.62 112.416 431.62 137.464C431.62 162.512 411.204 182.928 386.156 182.928C361.108 182.928 340.692 162.512 340.692 137.464ZM415.188 137.464C415.188 121.424 402.196 108.432 386.156 108.432C370.116 108.432 357.124 121.424 357.124 137.464C357.124 153.504 370.116 166.496 386.156 166.496C402.196 166.496 415.188 153.504 415.188 137.464Z" stroke="#FEFAE4" stroke-width="2"/>
<path d="M691.486 182.392H711.326L668.958 92.664H663.71L618.014 182.392H638.11L646.558 165.752H683.678L691.486 182.392ZM655.774 147.832L665.886 127.864L675.23 147.832H655.774Z" fill="#E6AA2B"/>
<path d="M718.949 92.792V182.392H748.517C763.493 182.392 775.653 170.36 775.653 155.256C775.653 146.552 771.557 138.744 765.029 133.752C767.973 129.528 769.637 124.536 769.637 119.032C769.637 104.568 757.861 92.792 743.397 92.792H718.949ZM734.821 128.248V107.768H742.629C747.621 107.768 752.997 111.608 752.997 117.88C752.997 124.152 747.621 128.248 742.629 128.248H734.821ZM735.205 167.16V145.528H748.261C754.277 145.528 759.269 150.392 759.269 156.408C759.269 162.424 754.277 167.16 748.261 167.16H735.205Z" fill="#E6AA2B"/>
<path d="M836.163 91C810.563 91 789.699 111.864 789.699 137.464C789.699 163.064 810.563 183.928 836.163 183.928C861.763 183.928 882.627 163.064 882.627 137.464C882.627 111.864 861.763 91 836.163 91ZM836.163 109.432C851.651 109.432 864.195 121.976 864.195 137.464C864.195 152.952 851.651 165.496 836.163 165.496C820.675 165.496 808.131 152.952 808.131 137.464C808.131 121.976 820.675 109.432 836.163 109.432Z" fill="#E6AA2B"/>
<path d="M952.685 149.24V92.664H934.765V149.368H934.893C934.765 153.848 933.101 157.944 929.901 161.144C926.701 164.344 922.605 166.008 918.125 166.008C913.645 166.008 909.421 164.344 906.221 161.144C903.021 157.944 901.229 153.72 901.229 149.24V92.664H883.309V149.368C883.437 168.44 898.925 183.928 918.125 183.928C937.197 183.928 952.813 168.44 952.813 149.24H952.685Z" fill="#E6AA2B"/>
<path d="M964.309 92.664V110.584H989.269V182.392H1007.19V110.584H1032.02V92.664H964.309Z" fill="#E6AA2B"/>
<path d="M1096.57 164.752H1095.95L1095.67 165.299L1087.5 181.392H1069.65L1114.33 93.664H1118.33L1159.76 181.392H1142.13L1134.59 165.327L1134.32 164.752H1133.69H1096.57ZM1104.89 147.38L1104.15 148.832H1105.78H1125.24H1126.81L1126.14 147.408L1116.8 127.44L1115.93 125.58L1115 127.412L1104.89 147.38ZM1214.22 133.18L1213.67 133.965L1214.43 134.546C1220.72 139.355 1224.66 146.873 1224.66 155.256C1224.66 169.805 1212.95 181.392 1198.52 181.392H1169.96V93.792H1193.4C1207.32 93.792 1218.64 105.12 1218.64 119.032C1218.64 124.326 1217.05 129.12 1214.22 133.18ZM1183.83 128.248V129.248H1184.83H1192.64C1198.1 129.248 1204 124.782 1204 117.88C1204 110.946 1198.06 106.768 1192.64 106.768H1184.83H1183.83V107.768V128.248ZM1184.21 167.16V168.16H1185.21H1198.27C1204.81 168.16 1210.28 163.007 1210.28 156.408C1210.28 149.825 1204.82 144.528 1198.27 144.528H1185.21H1184.21V145.528V167.16ZM1401.69 149.24V150.24H1401.81C1401.28 168.42 1386.32 182.928 1368.13 182.928C1349.49 182.928 1334.44 167.888 1334.32 149.366C1334.32 149.364 1334.32 149.363 1334.32 149.361L1334.32 93.664H1350.24V149.24C1350.24 153.993 1352.14 158.469 1355.52 161.851C1358.92 165.247 1363.4 167.008 1368.13 167.008C1372.87 167.008 1377.23 165.241 1380.62 161.851C1384.01 158.461 1385.77 154.117 1385.9 149.397L1385.93 148.368H1385.77V93.664H1401.69V149.24ZM1440.28 110.584V109.584H1439.28H1415.32V93.664H1481.03V109.584H1457.2H1456.2V110.584V181.392H1440.28V110.584ZM1240.71 137.464C1240.71 112.416 1261.12 92 1286.17 92C1311.22 92 1331.63 112.416 1331.63 137.464C1331.63 162.512 1311.22 182.928 1286.17 182.928C1261.12 182.928 1240.71 162.512 1240.71 137.464ZM1315.2 137.464C1315.2 121.424 1302.21 108.432 1286.17 108.432C1270.13 108.432 1257.14 121.424 1257.14 137.464C1257.14 153.504 1270.13 166.496 1286.17 166.496C1302.21 166.496 1315.2 153.504 1315.2 137.464Z" stroke="#FEFAE4" stroke-width="2"/>
<path d="M1546.57 164.752H1545.96L1545.68 165.299L1537.51 181.392H1519.66L1564.34 93.664H1568.34L1609.76 181.392H1592.14L1584.6 165.327L1584.33 164.752H1583.69H1546.57ZM1554.9 147.38L1554.16 148.832H1555.79H1575.24H1576.82L1576.15 147.408L1566.81 127.44L1565.94 125.58L1565.01 127.412L1554.9 147.38ZM1664.22 133.18L1663.68 133.965L1664.44 134.546C1670.72 139.355 1674.67 146.873 1674.67 155.256C1674.67 169.805 1662.96 181.392 1648.53 181.392H1619.96V93.792H1643.41C1657.32 93.792 1668.65 105.12 1668.65 119.032C1668.65 124.326 1667.05 129.12 1664.22 133.18ZM1633.84 128.248V129.248H1634.84H1642.64C1648.11 129.248 1654.01 124.782 1654.01 117.88C1654.01 110.946 1648.07 106.768 1642.64 106.768H1634.84H1633.84V107.768V128.248ZM1634.22 167.16V168.16H1635.22H1648.28C1654.81 168.16 1660.28 163.007 1660.28 156.408C1660.28 149.825 1654.83 144.528 1648.28 144.528H1635.22H1634.22V145.528V167.16ZM1851.7 149.24V150.24H1851.81C1851.28 168.42 1836.33 182.928 1818.14 182.928C1799.49 182.928 1784.45 167.888 1784.32 149.366C1784.32 149.364 1784.32 149.363 1784.32 149.361L1784.32 93.664H1800.24V149.24C1800.24 153.993 1802.15 158.469 1805.53 161.851C1808.92 165.247 1813.41 167.008 1818.14 167.008C1822.88 167.008 1827.23 165.241 1830.62 161.851C1834.01 158.461 1835.77 154.117 1835.91 149.397L1835.94 148.368H1835.78V93.664H1851.7V149.24ZM1890.28 110.584V109.584H1889.28H1865.32V93.664H1931.04V109.584H1907.2H1906.2V110.584V181.392H1890.28V110.584ZM1690.71 137.464C1690.71 112.416 1711.13 92 1736.18 92C1761.23 92 1781.64 112.416 1781.64 137.464C1781.64 162.512 1761.23 182.928 1736.18 182.928C1711.13 182.928 1690.71 162.512 1690.71 137.464ZM1765.21 137.464C1765.21 121.424 1752.22 108.432 1736.18 108.432C1720.14 108.432 1707.15 121.424 1707.15 137.464C1707.15 153.504 1720.14 166.496 1736.18 166.496C1752.22 166.496 1765.21 153.504 1765.21 137.464Z" stroke="#FEFAE4" stroke-width="2"/>
</g>
<defs>
<clipPath id="clip0_2128_581">
<rect width="1728" height="184" fill="white"/>
</clipPath>
</defs>
</svg>
