<svg width="1728" height="220" viewBox="0 0 1728 220" fill="none" xmlns="http://www.w3.org/2000/svg">
<g clip-path="url(#clip0_2128_581)">
<path d="M54.5809 53.8168L54.8508 54.392H55.4862H75.3262H76.9042L76.2304 52.965L33.8624 -36.763L33.5919 -37.336H32.9582H27.7102H27.0972L26.8191 -36.7898L-18.8769 52.9382L-19.6173 54.392H-17.9858H2.11016H2.72396L3.00183 53.8447L11.172 37.752H47.0428L54.5809 53.8168ZM82.9492 -37.208H81.9492V-36.208V53.392V54.392H82.9492H112.517C128.042 54.392 140.653 41.9154 140.653 26.256C140.653 17.5638 136.712 9.73146 130.375 4.54195C133.105 0.324379 134.637 -4.59017 134.637 -9.968C134.637 -24.9843 122.413 -37.208 107.397 -37.208H82.9492ZM297.765 21.368H297.835C297.507 25.2004 295.958 28.6727 293.194 31.4369C290.184 34.4468 286.344 36.008 282.125 36.008C277.899 36.008 273.933 34.4412 270.928 31.4369C267.91 28.4188 266.229 24.4469 266.229 20.24V-36.336V-37.336H265.229H247.309H246.309V-36.336V-2.65649C241.285 -23.4703 222.488 -39 200.163 -39C174.011 -39 152.699 -17.6883 152.699 8.464C152.699 34.6163 174.011 55.928 200.163 55.928C222.488 55.928 241.285 40.3983 246.309 19.5845L246.309 20.368L246.309 20.3747C246.441 39.9949 262.374 55.928 282.125 55.928C301.747 55.928 317.813 39.9947 317.813 20.24V19.24H317.685V-36.336V-37.336H316.685H298.765H297.765V-36.336V20.368V21.368ZM328.309 -37.336H327.309V-36.336V-18.416V-17.416H328.309H352.269V53.392V54.392H353.269H371.189H372.189V53.392V-17.416H396.021H397.021V-18.416V-36.336V-37.336H396.021H328.309ZM37.6581 17.832H21.4015L29.8507 1.14754L37.6581 17.832ZM99.8212 -1.752V-20.232H106.629C111.186 -20.232 115.997 -16.7296 115.997 -11.12C115.997 -5.47842 111.15 -1.752 106.629 -1.752H99.8212ZM100.205 37.16V17.528H112.261C117.74 17.528 122.269 21.9594 122.269 27.408C122.269 32.8413 117.756 37.16 112.261 37.16H100.205ZM200.163 -18.568C215.099 -18.568 227.195 -6.47171 227.195 8.464C227.195 23.3997 215.099 35.496 200.163 35.496C185.227 35.496 173.131 23.3997 173.131 8.464C173.131 -6.47171 185.227 -18.568 200.163 -18.568Z" stroke="#FEFAE4" stroke-width="2"/>
<path d="M504.588 53.8168L504.858 54.392H505.493H525.333H526.911L526.237 52.965L483.869 -36.763L483.599 -37.336H482.965H477.717H477.104L476.826 -36.7898L431.13 52.9382L430.39 54.392H432.021H452.117H452.731L453.009 53.8447L461.179 37.752H497.05L504.588 53.8168ZM532.956 -37.208H531.956V-36.208V53.392V54.392H532.956H562.524C578.049 54.392 590.66 41.9154 590.66 26.256C590.66 17.5638 586.719 9.73146 580.382 4.54195C583.112 0.324379 584.644 -4.59017 584.644 -9.968C584.644 -24.9843 572.42 -37.208 557.404 -37.208H532.956ZM747.772 21.368H747.842C747.514 25.2004 745.965 28.6727 743.201 31.4369C740.191 34.4468 736.35 36.008 732.132 36.008C727.905 36.008 723.939 34.4412 720.935 31.4369C717.917 28.4188 716.236 24.4469 716.236 20.24V-36.336V-37.336H715.236H697.316H696.316V-36.336V-2.65649C691.292 -23.4703 672.495 -39 650.17 -39C624.018 -39 602.706 -17.6883 602.706 8.464C602.706 34.6163 624.018 55.928 650.17 55.928C672.495 55.928 691.292 40.3983 696.316 19.5845L696.316 20.368L696.316 20.3747C696.448 39.9949 712.381 55.928 732.132 55.928C751.754 55.928 767.82 39.9947 767.82 20.24V19.24H767.692V-36.336V-37.336H766.692H748.772H747.772V-36.336V20.368V21.368ZM778.316 -37.336H777.316V-36.336V-18.416V-17.416H778.316H802.276V53.392V54.392H803.276H821.196H822.196V53.392V-17.416H846.028H847.028V-18.416V-36.336V-37.336H846.028H778.316ZM487.665 17.832H471.408L479.858 1.14754L487.665 17.832ZM549.828 -1.752V-20.232H556.636C561.193 -20.232 566.004 -16.7296 566.004 -11.12C566.004 -5.47842 561.157 -1.752 556.636 -1.752H549.828ZM550.212 37.16V17.528H562.268C567.747 17.528 572.276 21.9594 572.276 27.408C572.276 32.8413 567.763 37.16 562.268 37.16H550.212ZM650.17 -18.568C665.106 -18.568 677.202 -6.47171 677.202 8.464C677.202 23.3997 665.106 35.496 650.17 35.496C635.234 35.496 623.138 23.3997 623.138 8.464C623.138 -6.47171 635.234 -18.568 650.17 -18.568Z" stroke="#FEFAE4" stroke-width="2"/>
<path d="M954.595 53.8168L954.865 54.392H955.5H975.34H976.918L976.245 52.965L933.877 -36.763L933.606 -37.336H932.972H927.724H927.111L926.833 -36.7898L881.137 52.9382L880.397 54.392H882.028H902.124H902.738L903.016 53.8447L911.186 37.752H947.057L954.595 53.8168ZM982.963 -37.208H981.963V-36.208V53.392V54.392H982.963H1012.53C1028.06 54.392 1040.67 41.9154 1040.67 26.256C1040.67 17.5638 1036.73 9.73146 1030.39 4.54195C1033.12 0.324379 1034.65 -4.59017 1034.65 -9.968C1034.65 -24.9843 1022.43 -37.208 1007.41 -37.208H982.963ZM1197.78 21.368H1197.85C1197.52 25.2004 1195.97 28.6727 1193.21 31.4369C1190.2 34.4468 1186.36 36.008 1182.14 36.008C1177.91 36.008 1173.95 34.4412 1170.94 31.4369C1167.92 28.4188 1166.24 24.4469 1166.24 20.24V-36.336V-37.336H1165.24H1147.32H1146.32V-36.336V-2.65649C1141.3 -23.4703 1122.5 -39 1100.18 -39C1074.03 -39 1052.71 -17.6883 1052.71 8.464C1052.71 34.6163 1074.03 55.928 1100.18 55.928C1122.5 55.928 1141.3 40.3983 1146.32 19.5845L1146.32 20.368L1146.32 20.3747C1146.46 39.9949 1162.39 55.928 1182.14 55.928C1201.76 55.928 1217.83 39.9947 1217.83 20.24V19.24H1217.7V-36.336V-37.336H1216.7H1198.78H1197.78V-36.336V20.368V21.368ZM1228.32 -37.336H1227.32V-36.336V-18.416V-17.416H1228.32H1252.28V53.392V54.392H1253.28H1271.2H1272.2V53.392V-17.416H1296.04H1297.04V-18.416V-36.336V-37.336H1296.04H1228.32ZM937.672 17.832H921.416L929.865 1.14754L937.672 17.832ZM999.835 -1.752V-20.232H1006.64C1011.2 -20.232 1016.01 -16.7296 1016.01 -11.12C1016.01 -5.47842 1011.16 -1.752 1006.64 -1.752H999.835ZM1000.22 37.16V17.528H1012.28C1017.75 17.528 1022.28 21.9594 1022.28 27.408C1022.28 32.8413 1017.77 37.16 1012.28 37.16H1000.22ZM1100.18 -18.568C1115.11 -18.568 1127.21 -6.47171 1127.21 8.464C1127.21 23.3997 1115.11 35.496 1100.18 35.496C1085.24 35.496 1073.15 23.3997 1073.15 8.464C1073.15 -6.47171 1085.24 -18.568 1100.18 -18.568Z" stroke="#FEFAE4" stroke-width="2"/>
<path d="M1404.6 53.8168L1404.87 54.392H1405.51H1425.35H1426.93L1426.25 52.965L1383.88 -36.763L1383.61 -37.336H1382.98H1377.73H1377.12L1376.84 -36.7898L1331.14 52.9382L1330.4 54.392H1332.04H1352.13H1352.74L1353.02 53.8447L1361.19 37.752H1397.06L1404.6 53.8168ZM1432.97 -37.208H1431.97V-36.208V53.392V54.392H1432.97H1462.54C1478.06 54.392 1490.67 41.9154 1490.67 26.256C1490.67 17.5638 1486.73 9.73146 1480.4 4.54195C1483.13 0.324379 1484.66 -4.59017 1484.66 -9.968C1484.66 -24.9843 1472.43 -37.208 1457.42 -37.208H1432.97ZM1647.79 21.368H1647.86C1647.53 25.2004 1645.98 28.6727 1643.22 31.4369C1640.21 34.4468 1636.36 36.008 1632.15 36.008C1627.92 36.008 1623.95 34.4412 1620.95 31.4369C1617.93 28.4188 1616.25 24.4469 1616.25 20.24V-36.336V-37.336H1615.25H1597.33H1596.33V-36.336V-2.65649C1591.31 -23.4703 1572.51 -39 1550.18 -39C1524.03 -39 1502.72 -17.6883 1502.72 8.464C1502.72 34.6163 1524.03 55.928 1550.18 55.928C1572.51 55.928 1591.31 40.3983 1596.33 19.5845L1596.33 20.368L1596.33 20.3747C1596.46 39.9949 1612.39 55.928 1632.15 55.928C1651.77 55.928 1667.83 39.9947 1667.83 20.24V19.24H1667.71V-36.336V-37.336H1666.71H1648.79H1647.79V-36.336V20.368V21.368ZM1678.33 -37.336H1677.33V-36.336V-18.416V-17.416H1678.33H1702.29V53.392V54.392H1703.29H1721.21H1722.21V53.392V-17.416H1746.04H1747.04V-18.416V-36.336V-37.336H1746.04H1678.33ZM1387.68 17.832H1371.42L1379.87 1.14754L1387.68 17.832ZM1449.84 -1.752V-20.232H1456.65C1461.21 -20.232 1466.02 -16.7296 1466.02 -11.12C1466.02 -5.47842 1461.17 -1.752 1456.65 -1.752H1449.84ZM1450.23 37.16V17.528H1462.28C1467.76 17.528 1472.29 21.9594 1472.29 27.408C1472.29 32.8413 1467.78 37.16 1462.28 37.16H1450.23ZM1550.18 -18.568C1565.12 -18.568 1577.22 -6.47171 1577.22 8.464C1577.22 23.3997 1565.12 35.496 1550.18 35.496C1535.25 35.496 1523.15 23.3997 1523.15 8.464C1523.15 -6.47171 1535.25 -18.568 1550.18 -18.568Z" stroke="#FEFAE4" stroke-width="2"/>
<path d="M-209.433 182.745L-209.163 183.32H-208.528H-188.688H-187.11L-187.784 181.893L-230.152 92.165L-230.422 91.592H-231.056H-236.304H-236.917L-237.195 92.1382L-282.891 181.866L-283.631 183.32H-282H-261.904H-261.29L-261.012 182.773L-252.842 166.68H-216.971L-209.433 182.745ZM-181.065 91.72H-182.065V92.72V182.32V183.32H-181.065H-151.497C-135.972 183.32 -123.361 170.843 -123.361 155.184C-123.361 146.492 -127.302 138.659 -133.639 133.47C-130.909 129.252 -129.377 124.338 -129.377 118.96C-129.377 103.944 -141.601 91.72 -156.617 91.72H-181.065ZM33.751 150.296H33.8209C33.493 154.128 31.9441 157.601 29.1799 160.365C26.17 163.375 22.3294 164.936 18.111 164.936C13.8844 164.936 9.9184 163.369 6.91409 160.365C3.89603 157.347 2.215 153.375 2.215 149.168V92.592V91.592H1.215H-16.705H-17.705V92.592V126.271C-22.7292 105.458 -41.5264 89.928 -63.851 89.928C-90.0033 89.928 -111.315 111.24 -111.315 137.392C-111.315 163.544 -90.0033 184.856 -63.851 184.856C-41.5264 184.856 -22.7292 169.326 -17.705 148.512L-17.705 149.296L-17.705 149.303C-17.5733 168.923 -1.6402 184.856 18.111 184.856C37.7328 184.856 53.799 168.923 53.799 149.168V148.168H53.671V92.592V91.592H52.671H34.751H33.751V92.592V149.296V150.296ZM64.295 91.592H63.295V92.592V110.512V111.512H64.295H88.255V182.32V183.32H89.255H107.175H108.175V182.32V111.512H132.007H133.007V110.512V92.592V91.592H132.007H64.295ZM-226.356 146.76H-242.613L-234.163 130.076L-226.356 146.76ZM-164.193 127.176V108.696H-157.385C-152.828 108.696 -148.017 112.198 -148.017 117.808C-148.017 123.45 -152.864 127.176 -157.385 127.176H-164.193ZM-163.809 166.088V146.456H-151.753C-146.274 146.456 -141.745 150.887 -141.745 156.336C-141.745 161.769 -146.258 166.088 -151.753 166.088H-163.809ZM-63.851 110.36C-48.9153 110.36 -36.819 122.456 -36.819 137.392C-36.819 152.328 -48.9153 164.424 -63.851 164.424C-78.7867 164.424 -90.883 152.328 -90.883 137.392C-90.883 122.456 -78.7867 110.36 -63.851 110.36Z" stroke="#FEFAE4" stroke-width="2"/>
<path d="M240.574 182.745L240.843 183.32H241.479H261.319H262.897L262.223 181.893L219.855 92.165L219.585 91.592H218.951H213.703H213.09L212.812 92.1382L167.116 181.866L166.375 183.32H168.007H188.103H188.717L188.995 182.773L197.165 166.68H233.035L240.574 182.745ZM268.942 91.72H267.942V92.72V182.32V183.32H268.942H298.51C314.035 183.32 326.646 170.843 326.646 155.184C326.646 146.492 322.705 138.659 316.368 133.47C319.098 129.252 320.63 124.338 320.63 118.96C320.63 103.944 308.406 91.72 293.39 91.72H268.942ZM483.758 150.296H483.828C483.5 154.128 481.951 157.601 479.187 160.365C476.177 163.375 472.336 164.936 468.118 164.936C463.891 164.936 459.925 163.369 456.921 160.365C453.903 157.347 452.222 153.375 452.222 149.168V92.592V91.592H451.222H433.302H432.302V92.592V126.271C427.278 105.458 408.48 89.928 386.156 89.928C360.004 89.928 338.692 111.24 338.692 137.392C338.692 163.544 360.004 184.856 386.156 184.856C408.48 184.856 427.278 169.326 432.302 148.512L432.302 149.296L432.302 149.303C432.434 168.923 448.367 184.856 468.118 184.856C487.74 184.856 503.806 168.923 503.806 149.168V148.168H503.678V92.592V91.592H502.678H484.758H483.758V92.592V149.296V150.296ZM514.302 91.592H513.302V92.592V110.512V111.512H514.302H538.262V182.32V183.32H539.262H557.182H558.182V182.32V111.512H582.014H583.014V110.512V92.592V91.592H582.014H514.302ZM223.651 146.76H207.394L215.843 130.076L223.651 146.76ZM285.814 127.176V108.696H292.622C297.179 108.696 301.99 112.198 301.99 117.808C301.99 123.45 297.143 127.176 292.622 127.176H285.814ZM286.198 166.088V146.456H298.254C303.733 146.456 308.262 150.887 308.262 156.336C308.262 161.769 303.748 166.088 298.254 166.088H286.198ZM386.156 110.36C401.092 110.36 413.188 122.456 413.188 137.392C413.188 152.328 401.092 164.424 386.156 164.424C371.22 164.424 359.124 152.328 359.124 137.392C359.124 122.456 371.22 110.36 386.156 110.36Z" stroke="#FEFAE4" stroke-width="2"/>
<path d="M691.486 182.32H711.326L668.958 92.592H663.71L618.014 182.32H638.11L646.558 165.68H683.678L691.486 182.32ZM655.774 147.76L665.886 127.792L675.23 147.76H655.774Z" fill="#E6AA2B"/>
<path d="M718.949 92.72V182.32H748.517C763.493 182.32 775.653 170.288 775.653 155.184C775.653 146.48 771.557 138.672 765.029 133.68C767.973 129.456 769.637 124.464 769.637 118.96C769.637 104.496 757.861 92.72 743.397 92.72H718.949ZM734.821 128.176V107.696H742.629C747.621 107.696 752.997 111.536 752.997 117.808C752.997 124.08 747.621 128.176 742.629 128.176H734.821ZM735.205 167.088V145.456H748.261C754.277 145.456 759.269 150.32 759.269 156.336C759.269 162.352 754.277 167.088 748.261 167.088H735.205Z" fill="#E6AA2B"/>
<path d="M836.163 90.928C810.563 90.928 789.699 111.792 789.699 137.392C789.699 162.992 810.563 183.856 836.163 183.856C861.763 183.856 882.627 162.992 882.627 137.392C882.627 111.792 861.763 90.928 836.163 90.928ZM836.163 109.36C851.651 109.36 864.195 121.904 864.195 137.392C864.195 152.88 851.651 165.424 836.163 165.424C820.675 165.424 808.131 152.88 808.131 137.392C808.131 121.904 820.675 109.36 836.163 109.36Z" fill="#E6AA2B"/>
<path d="M952.685 149.168V92.592H934.765V149.296H934.893C934.765 153.776 933.101 157.872 929.901 161.072C926.701 164.272 922.605 165.936 918.125 165.936C913.645 165.936 909.421 164.272 906.221 161.072C903.021 157.872 901.229 153.648 901.229 149.168V92.592H883.309V149.296C883.437 168.368 898.925 183.856 918.125 183.856C937.197 183.856 952.813 168.368 952.813 149.168H952.685Z" fill="#E6AA2B"/>
<path d="M964.309 92.592V110.512H989.269V182.32H1007.19V110.512H1032.02V92.592H964.309Z" fill="#E6AA2B"/>
<path d="M1140.59 182.745L1140.86 183.32H1141.49H1161.33H1162.91L1162.24 181.893L1119.87 92.165L1119.6 91.592H1118.97H1113.72H1113.1L1112.83 92.1382L1067.13 181.866L1066.39 183.32H1068.02H1088.12H1088.73L1089.01 182.773L1097.18 166.68H1133.05L1140.59 182.745ZM1168.96 91.72H1167.96V92.72V182.32V183.32H1168.96H1198.52C1214.05 183.32 1226.66 170.843 1226.66 155.184C1226.66 146.492 1222.72 138.659 1216.38 133.47C1219.11 129.252 1220.64 124.338 1220.64 118.96C1220.64 103.944 1208.42 91.72 1193.4 91.72H1168.96ZM1383.77 150.296H1383.84C1383.51 154.128 1381.97 157.601 1379.2 160.365C1376.19 163.375 1372.35 164.936 1368.13 164.936C1363.91 164.936 1359.94 163.369 1356.94 160.365C1353.92 157.347 1352.24 153.375 1352.24 149.168V92.592V91.592H1351.24H1333.32H1332.32V92.592V126.271C1327.29 105.458 1308.49 89.928 1286.17 89.928C1260.02 89.928 1238.71 111.24 1238.71 137.392C1238.71 163.544 1260.02 184.856 1286.17 184.856C1308.49 184.856 1327.29 169.326 1332.32 148.512L1332.32 149.296L1332.32 149.303C1332.45 168.923 1348.38 184.856 1368.13 184.856C1387.75 184.856 1403.82 168.923 1403.82 149.168V148.168H1403.69V92.592V91.592H1402.69H1384.77H1383.77V92.592V149.296V150.296ZM1414.32 91.592H1413.32V92.592V110.512V111.512H1414.32H1438.28V182.32V183.32H1439.28H1457.2H1458.2V182.32V111.512H1482.03H1483.03V110.512V92.592V91.592H1482.03H1414.32ZM1123.66 146.76H1107.41L1115.86 130.076L1123.66 146.76ZM1185.83 127.176V108.696H1192.64C1197.19 108.696 1202 112.198 1202 117.808C1202 123.45 1197.16 127.176 1192.64 127.176H1185.83ZM1186.21 166.088V146.456H1198.27C1203.75 146.456 1208.28 150.887 1208.28 156.336C1208.28 161.769 1203.76 166.088 1198.27 166.088H1186.21ZM1286.17 110.36C1301.11 110.36 1313.2 122.456 1313.2 137.392C1313.2 152.328 1301.11 164.424 1286.17 164.424C1271.23 164.424 1259.14 152.328 1259.14 137.392C1259.14 122.456 1271.23 110.36 1286.17 110.36Z" stroke="#FEFAE4" stroke-width="2"/>
<path d="M1590.6 182.745L1590.86 183.32H1591.5H1611.34H1612.92L1612.24 181.893L1569.88 92.165L1569.61 91.592H1568.97H1563.72H1563.11L1562.83 92.1382L1517.14 181.866L1516.4 183.32H1518.03H1538.12H1538.74L1539.02 182.773L1547.19 166.68H1583.06L1590.6 182.745ZM1618.96 91.72H1617.96V92.72V182.32V183.32H1618.96H1648.53C1664.06 183.32 1676.67 170.843 1676.67 155.184C1676.67 146.492 1672.73 138.659 1666.39 133.47C1669.12 129.252 1670.65 124.338 1670.65 118.96C1670.65 103.944 1658.43 91.72 1643.41 91.72H1618.96ZM1833.78 150.296H1833.85C1833.52 154.128 1831.97 157.601 1829.21 160.365C1826.2 163.375 1822.36 164.936 1818.14 164.936C1813.91 164.936 1809.95 163.369 1806.94 160.365C1803.92 157.347 1802.24 153.375 1802.24 149.168V92.592V91.592H1801.24H1783.32H1782.32V92.592V126.271C1777.3 105.458 1758.5 89.928 1736.18 89.928C1710.03 89.928 1688.71 111.24 1688.71 137.392C1688.71 163.544 1710.03 184.856 1736.18 184.856C1758.5 184.856 1777.3 169.326 1782.32 148.512L1782.32 149.296L1782.32 149.303C1782.46 168.923 1798.39 184.856 1818.14 184.856C1837.76 184.856 1853.83 168.923 1853.83 149.168V148.168H1853.7V92.592V91.592H1852.7H1834.78H1833.78V92.592V149.296V150.296ZM1864.32 91.592H1863.32V92.592V110.512V111.512H1864.32H1888.28V182.32V183.32H1889.28H1907.2H1908.2V182.32V111.512H1932.04H1933.04V110.512V92.592V91.592H1932.04H1864.32ZM1573.67 146.76H1557.42L1565.86 130.076L1573.67 146.76ZM1635.84 127.176V108.696H1642.64C1647.2 108.696 1652.01 112.198 1652.01 117.808C1652.01 123.45 1647.16 127.176 1642.64 127.176H1635.84ZM1636.22 166.088V146.456H1648.28C1653.75 146.456 1658.28 150.887 1658.28 156.336C1658.28 161.769 1653.77 166.088 1648.28 166.088H1636.22ZM1736.18 110.36C1751.11 110.36 1763.21 122.456 1763.21 137.392C1763.21 152.328 1751.11 164.424 1736.18 164.424C1721.24 164.424 1709.15 152.328 1709.15 137.392C1709.15 122.456 1721.24 110.36 1736.18 110.36Z" stroke="#FEFAE4" stroke-width="2"/>
</g>
<defs>
<clipPath id="clip0_2128_581">
<rect width="1728" height="220" fill="white"/>
</clipPath>
</defs>
</svg>
