<svg width="1728" height="220" viewBox="0 0 1728 220" fill="none" xmlns="http://www.w3.org/2000/svg">
<g clip-path="url(#clip0_2130_737)">
<mask id="path-1-outside-1_2130_737" maskUnits="userSpaceOnUse" x="-650.024" y="-40" width="734" height="97" fill="black">
<rect fill="white" x="-650.024" y="-40" width="734" height="97"/>
<path d="M-578.648 53.008V-1.904L-604.376 21.52L-630.104 -1.904V53.008H-648.024V-36.72H-641.88L-604.376 -2.672L-567 -36.72H-560.728V53.008H-578.648Z"/>
<path d="M-484.373 -36.72H-544.149V53.008H-484.757V35.088H-526.229V15.632H-491.669V-2.288H-526.229V-18.8H-484.373V-36.72Z"/>
<path d="M-399.422 53.008L-449.854 0.656002V53.008H-467.774V-36.72H-462.142L-412.606 13.456V-36.72H-394.686V53.008H-399.422Z"/>
<path d="M-313.517 53.008H-293.677L-336.045 -36.72H-341.293L-386.989 53.008H-366.893L-358.445 36.368H-321.325L-313.517 53.008ZM-349.229 18.448L-339.117 -1.52L-329.773 18.448H-349.229Z"/>
<path d="M-237.773 15.632H-217.037C-218.317 20.624 -220.877 25.104 -224.717 28.816C-230.093 34.064 -237.133 37.008 -244.685 37.008H-245.069C-252.621 37.008 -259.789 33.936 -265.165 28.432C-270.413 23.056 -273.357 15.76 -273.229 8.208C-273.229 0.656002 -270.157 -6.512 -264.781 -11.76C-259.405 -17.136 -252.237 -20.08 -244.685 -20.08H-244.429C-238.669 -19.952 -233.293 -18.288 -228.685 -15.088L-215.757 -27.76C-223.565 -34.032 -233.421 -37.872 -244.301 -38H-244.685C-270.157 -38 -290.893 -17.52 -291.149 7.952C-291.405 33.68 -270.925 54.288 -245.197 54.544C-238.413 54.544 -227.405 52.368 -216.909 44.048V53.008H-198.989V-2.288H-237.773V15.632Z"/>
<path d="M-122.623 -36.72H-182.399V53.008H-123.007V35.088H-164.479V15.632H-129.919V-2.288H-164.479V-18.8H-122.623V-36.72Z"/>
<path d="M-44.5839 53.008L-62.3759 14.608C-53.0319 10.384 -46.6319 1.04 -46.6319 -9.84C-46.6319 -24.688 -58.6639 -36.848 -73.5119 -36.848H-107.304V52.88H-89.3839V17.04H-80.424L-63.6559 53.008H-44.5839ZM-73.5119 -18.928C-68.5199 -18.928 -64.5519 -14.832 -64.5519 -9.84C-64.5519 -4.848 -68.5199 -0.880001 -73.5119 -0.880001H-89.3839V-18.928H-73.5119Z"/>
<path d="M4.59308 -18.8V-36.72H-32.3989V-18.8H-22.799V35.088H-32.3989V53.008H4.59308V35.088H-4.87891V-18.8H4.59308Z"/>
<path d="M81.0021 -36.72H21.2261V53.008H80.6181V35.088H39.1461V15.632H73.7061V-2.288H39.1461V-18.8H81.0021V-36.72Z"/>
</mask>
<path d="M-578.648 53.008V-1.904L-604.376 21.52L-630.104 -1.904V53.008H-648.024V-36.72H-641.88L-604.376 -2.672L-567 -36.72H-560.728V53.008H-578.648Z" stroke="#FEFAE4" stroke-width="4" mask="url(#path-1-outside-1_2130_737)"/>
<path d="M-484.373 -36.72H-544.149V53.008H-484.757V35.088H-526.229V15.632H-491.669V-2.288H-526.229V-18.8H-484.373V-36.72Z" stroke="#FEFAE4" stroke-width="4" mask="url(#path-1-outside-1_2130_737)"/>
<path d="M-399.422 53.008L-449.854 0.656002V53.008H-467.774V-36.72H-462.142L-412.606 13.456V-36.72H-394.686V53.008H-399.422Z" stroke="#FEFAE4" stroke-width="4" mask="url(#path-1-outside-1_2130_737)"/>
<path d="M-313.517 53.008H-293.677L-336.045 -36.72H-341.293L-386.989 53.008H-366.893L-358.445 36.368H-321.325L-313.517 53.008ZM-349.229 18.448L-339.117 -1.52L-329.773 18.448H-349.229Z" stroke="#FEFAE4" stroke-width="4" mask="url(#path-1-outside-1_2130_737)"/>
<path d="M-237.773 15.632H-217.037C-218.317 20.624 -220.877 25.104 -224.717 28.816C-230.093 34.064 -237.133 37.008 -244.685 37.008H-245.069C-252.621 37.008 -259.789 33.936 -265.165 28.432C-270.413 23.056 -273.357 15.76 -273.229 8.208C-273.229 0.656002 -270.157 -6.512 -264.781 -11.76C-259.405 -17.136 -252.237 -20.08 -244.685 -20.08H-244.429C-238.669 -19.952 -233.293 -18.288 -228.685 -15.088L-215.757 -27.76C-223.565 -34.032 -233.421 -37.872 -244.301 -38H-244.685C-270.157 -38 -290.893 -17.52 -291.149 7.952C-291.405 33.68 -270.925 54.288 -245.197 54.544C-238.413 54.544 -227.405 52.368 -216.909 44.048V53.008H-198.989V-2.288H-237.773V15.632Z" stroke="#FEFAE4" stroke-width="4" mask="url(#path-1-outside-1_2130_737)"/>
<path d="M-122.623 -36.72H-182.399V53.008H-123.007V35.088H-164.479V15.632H-129.919V-2.288H-164.479V-18.8H-122.623V-36.72Z" stroke="#FEFAE4" stroke-width="4" mask="url(#path-1-outside-1_2130_737)"/>
<path d="M-44.5839 53.008L-62.3759 14.608C-53.0319 10.384 -46.6319 1.04 -46.6319 -9.84C-46.6319 -24.688 -58.6639 -36.848 -73.5119 -36.848H-107.304V52.88H-89.3839V17.04H-80.424L-63.6559 53.008H-44.5839ZM-73.5119 -18.928C-68.5199 -18.928 -64.5519 -14.832 -64.5519 -9.84C-64.5519 -4.848 -68.5199 -0.880001 -73.5119 -0.880001H-89.3839V-18.928H-73.5119Z" stroke="#FEFAE4" stroke-width="4" mask="url(#path-1-outside-1_2130_737)"/>
<path d="M4.59308 -18.8V-36.72H-32.3989V-18.8H-22.799V35.088H-32.3989V53.008H4.59308V35.088H-4.87891V-18.8H4.59308Z" stroke="#FEFAE4" stroke-width="4" mask="url(#path-1-outside-1_2130_737)"/>
<path d="M81.0021 -36.72H21.2261V53.008H80.6181V35.088H39.1461V15.632H73.7061V-2.288H39.1461V-18.8H81.0021V-36.72Z" stroke="#FEFAE4" stroke-width="4" mask="url(#path-1-outside-1_2130_737)"/>
<mask id="path-2-outside-2_2130_737" maskUnits="userSpaceOnUse" x="115.002" y="-40" width="734" height="97" fill="black">
<rect fill="white" x="115.002" y="-40" width="734" height="97"/>
<path d="M186.378 53.008V-1.904L160.65 21.52L134.922 -1.904V53.008H117.002V-36.72H123.146L160.65 -2.672L198.026 -36.72H204.298V53.008H186.378Z"/>
<path d="M280.653 -36.72H220.877V53.008H280.269V35.088H238.797V15.632H273.357V-2.288H238.797V-18.8H280.653V-36.72Z"/>
<path d="M365.604 53.008L315.172 0.656002V53.008H297.252V-36.72H302.884L352.42 13.456V-36.72H370.34V53.008H365.604Z"/>
<path d="M451.509 53.008H471.349L428.981 -36.72H423.733L378.037 53.008H398.133L406.581 36.368H443.701L451.509 53.008ZM415.797 18.448L425.909 -1.52L435.253 18.448H415.797Z"/>
<path d="M527.253 15.632H547.989C546.709 20.624 544.149 25.104 540.309 28.816C534.933 34.064 527.893 37.008 520.341 37.008H519.957C512.405 37.008 505.237 33.936 499.861 28.432C494.613 23.056 491.669 15.76 491.797 8.208C491.797 0.656002 494.869 -6.512 500.245 -11.76C505.621 -17.136 512.789 -20.08 520.341 -20.08H520.597C526.357 -19.952 531.733 -18.288 536.341 -15.088L549.269 -27.76C541.461 -34.032 531.605 -37.872 520.725 -38H520.341C494.869 -38 474.133 -17.52 473.877 7.952C473.621 33.68 494.101 54.288 519.829 54.544C526.613 54.544 537.621 52.368 548.117 44.048V53.008H566.037V-2.288H527.253V15.632Z"/>
<path d="M642.403 -36.72H582.627V53.008H642.019V35.088H600.547V15.632H635.107V-2.288H600.547V-18.8H642.403V-36.72Z"/>
<path d="M720.442 53.008L702.65 14.608C711.994 10.384 718.394 1.04 718.394 -9.84C718.394 -24.688 706.362 -36.848 691.514 -36.848H657.722V52.88H675.642V17.04H684.602L701.37 53.008H720.442ZM691.514 -18.928C696.506 -18.928 700.474 -14.832 700.474 -9.84C700.474 -4.848 696.506 -0.880001 691.514 -0.880001H675.642V-18.928H691.514Z"/>
<path d="M769.619 -18.8V-36.72H732.627V-18.8H742.227V35.088H732.627V53.008H769.619V35.088H760.147V-18.8H769.619Z"/>
<path d="M846.028 -36.72H786.252V53.008H845.644V35.088H804.172V15.632H838.732V-2.288H804.172V-18.8H846.028V-36.72Z"/>
</mask>
<path d="M186.378 53.008V-1.904L160.65 21.52L134.922 -1.904V53.008H117.002V-36.72H123.146L160.65 -2.672L198.026 -36.72H204.298V53.008H186.378Z" stroke="#FEFAE4" stroke-width="4" mask="url(#path-2-outside-2_2130_737)"/>
<path d="M280.653 -36.72H220.877V53.008H280.269V35.088H238.797V15.632H273.357V-2.288H238.797V-18.8H280.653V-36.72Z" stroke="#FEFAE4" stroke-width="4" mask="url(#path-2-outside-2_2130_737)"/>
<path d="M365.604 53.008L315.172 0.656002V53.008H297.252V-36.72H302.884L352.42 13.456V-36.72H370.34V53.008H365.604Z" stroke="#FEFAE4" stroke-width="4" mask="url(#path-2-outside-2_2130_737)"/>
<path d="M451.509 53.008H471.349L428.981 -36.72H423.733L378.037 53.008H398.133L406.581 36.368H443.701L451.509 53.008ZM415.797 18.448L425.909 -1.52L435.253 18.448H415.797Z" stroke="#FEFAE4" stroke-width="4" mask="url(#path-2-outside-2_2130_737)"/>
<path d="M527.253 15.632H547.989C546.709 20.624 544.149 25.104 540.309 28.816C534.933 34.064 527.893 37.008 520.341 37.008H519.957C512.405 37.008 505.237 33.936 499.861 28.432C494.613 23.056 491.669 15.76 491.797 8.208C491.797 0.656002 494.869 -6.512 500.245 -11.76C505.621 -17.136 512.789 -20.08 520.341 -20.08H520.597C526.357 -19.952 531.733 -18.288 536.341 -15.088L549.269 -27.76C541.461 -34.032 531.605 -37.872 520.725 -38H520.341C494.869 -38 474.133 -17.52 473.877 7.952C473.621 33.68 494.101 54.288 519.829 54.544C526.613 54.544 537.621 52.368 548.117 44.048V53.008H566.037V-2.288H527.253V15.632Z" stroke="#FEFAE4" stroke-width="4" mask="url(#path-2-outside-2_2130_737)"/>
<path d="M642.403 -36.72H582.627V53.008H642.019V35.088H600.547V15.632H635.107V-2.288H600.547V-18.8H642.403V-36.72Z" stroke="#FEFAE4" stroke-width="4" mask="url(#path-2-outside-2_2130_737)"/>
<path d="M720.442 53.008L702.65 14.608C711.994 10.384 718.394 1.04 718.394 -9.84C718.394 -24.688 706.362 -36.848 691.514 -36.848H657.722V52.88H675.642V17.04H684.602L701.37 53.008H720.442ZM691.514 -18.928C696.506 -18.928 700.474 -14.832 700.474 -9.84C700.474 -4.848 696.506 -0.880001 691.514 -0.880001H675.642V-18.928H691.514Z" stroke="#FEFAE4" stroke-width="4" mask="url(#path-2-outside-2_2130_737)"/>
<path d="M769.619 -18.8V-36.72H732.627V-18.8H742.227V35.088H732.627V53.008H769.619V35.088H760.147V-18.8H769.619Z" stroke="#FEFAE4" stroke-width="4" mask="url(#path-2-outside-2_2130_737)"/>
<path d="M846.028 -36.72H786.252V53.008H845.644V35.088H804.172V15.632H838.732V-2.288H804.172V-18.8H846.028V-36.72Z" stroke="#FEFAE4" stroke-width="4" mask="url(#path-2-outside-2_2130_737)"/>
<mask id="path-3-outside-3_2130_737" maskUnits="userSpaceOnUse" x="880.028" y="-40" width="734" height="97" fill="black">
<rect fill="white" x="880.028" y="-40" width="734" height="97"/>
<path d="M951.404 53.008V-1.904L925.676 21.52L899.948 -1.904V53.008H882.028V-36.72H888.172L925.676 -2.672L963.052 -36.72H969.324V53.008H951.404Z"/>
<path d="M1045.68 -36.72H985.903V53.008H1045.3V35.088H1003.82V15.632H1038.38V-2.288H1003.82V-18.8H1045.68V-36.72Z"/>
<path d="M1130.63 53.008L1080.2 0.656002V53.008H1062.28V-36.72H1067.91L1117.45 13.456V-36.72H1135.37V53.008H1130.63Z"/>
<path d="M1216.54 53.008H1236.38L1194.01 -36.72H1188.76L1143.06 53.008H1163.16L1171.61 36.368H1208.73L1216.54 53.008ZM1180.82 18.448L1190.94 -1.52L1200.28 18.448H1180.82Z"/>
<path d="M1292.28 15.632H1313.02C1311.74 20.624 1309.18 25.104 1305.34 28.816C1299.96 34.064 1292.92 37.008 1285.37 37.008H1284.98C1277.43 37.008 1270.26 33.936 1264.89 28.432C1259.64 23.056 1256.7 15.76 1256.82 8.208C1256.82 0.656002 1259.9 -6.512 1265.27 -11.76C1270.65 -17.136 1277.82 -20.08 1285.37 -20.08H1285.62C1291.38 -19.952 1296.76 -18.288 1301.37 -15.088L1314.3 -27.76C1306.49 -34.032 1296.63 -37.872 1285.75 -38H1285.37C1259.9 -38 1239.16 -17.52 1238.9 7.952C1238.65 33.68 1259.13 54.288 1284.86 54.544C1291.64 54.544 1302.65 52.368 1313.14 44.048V53.008H1331.06V-2.288H1292.28V15.632Z"/>
<path d="M1407.43 -36.72H1347.65V53.008H1407.05V35.088H1365.57V15.632H1400.13V-2.288H1365.57V-18.8H1407.43V-36.72Z"/>
<path d="M1485.47 53.008L1467.68 14.608C1477.02 10.384 1483.42 1.04 1483.42 -9.84C1483.42 -24.688 1471.39 -36.848 1456.54 -36.848H1422.75V52.88H1440.67V17.04H1449.63L1466.4 53.008H1485.47ZM1456.54 -18.928C1461.53 -18.928 1465.5 -14.832 1465.5 -9.84C1465.5 -4.848 1461.53 -0.880001 1456.54 -0.880001H1440.67V-18.928H1456.54Z"/>
<path d="M1534.65 -18.8V-36.72H1497.65V-18.8H1507.25V35.088H1497.65V53.008H1534.65V35.088H1525.17V-18.8H1534.65Z"/>
<path d="M1611.05 -36.72H1551.28V53.008H1610.67V35.088H1569.2V15.632H1603.76V-2.288H1569.2V-18.8H1611.05V-36.72Z"/>
</mask>
<path d="M951.404 53.008V-1.904L925.676 21.52L899.948 -1.904V53.008H882.028V-36.72H888.172L925.676 -2.672L963.052 -36.72H969.324V53.008H951.404Z" stroke="#FEFAE4" stroke-width="4" mask="url(#path-3-outside-3_2130_737)"/>
<path d="M1045.68 -36.72H985.903V53.008H1045.3V35.088H1003.82V15.632H1038.38V-2.288H1003.82V-18.8H1045.68V-36.72Z" stroke="#FEFAE4" stroke-width="4" mask="url(#path-3-outside-3_2130_737)"/>
<path d="M1130.63 53.008L1080.2 0.656002V53.008H1062.28V-36.72H1067.91L1117.45 13.456V-36.72H1135.37V53.008H1130.63Z" stroke="#FEFAE4" stroke-width="4" mask="url(#path-3-outside-3_2130_737)"/>
<path d="M1216.54 53.008H1236.38L1194.01 -36.72H1188.76L1143.06 53.008H1163.16L1171.61 36.368H1208.73L1216.54 53.008ZM1180.82 18.448L1190.94 -1.52L1200.28 18.448H1180.82Z" stroke="#FEFAE4" stroke-width="4" mask="url(#path-3-outside-3_2130_737)"/>
<path d="M1292.28 15.632H1313.02C1311.74 20.624 1309.18 25.104 1305.34 28.816C1299.96 34.064 1292.92 37.008 1285.37 37.008H1284.98C1277.43 37.008 1270.26 33.936 1264.89 28.432C1259.64 23.056 1256.7 15.76 1256.82 8.208C1256.82 0.656002 1259.9 -6.512 1265.27 -11.76C1270.65 -17.136 1277.82 -20.08 1285.37 -20.08H1285.62C1291.38 -19.952 1296.76 -18.288 1301.37 -15.088L1314.3 -27.76C1306.49 -34.032 1296.63 -37.872 1285.75 -38H1285.37C1259.9 -38 1239.16 -17.52 1238.9 7.952C1238.65 33.68 1259.13 54.288 1284.86 54.544C1291.64 54.544 1302.65 52.368 1313.14 44.048V53.008H1331.06V-2.288H1292.28V15.632Z" stroke="#FEFAE4" stroke-width="4" mask="url(#path-3-outside-3_2130_737)"/>
<path d="M1407.43 -36.72H1347.65V53.008H1407.05V35.088H1365.57V15.632H1400.13V-2.288H1365.57V-18.8H1407.43V-36.72Z" stroke="#FEFAE4" stroke-width="4" mask="url(#path-3-outside-3_2130_737)"/>
<path d="M1485.47 53.008L1467.68 14.608C1477.02 10.384 1483.42 1.04 1483.42 -9.84C1483.42 -24.688 1471.39 -36.848 1456.54 -36.848H1422.75V52.88H1440.67V17.04H1449.63L1466.4 53.008H1485.47ZM1456.54 -18.928C1461.53 -18.928 1465.5 -14.832 1465.5 -9.84C1465.5 -4.848 1461.53 -0.880001 1456.54 -0.880001H1440.67V-18.928H1456.54Z" stroke="#FEFAE4" stroke-width="4" mask="url(#path-3-outside-3_2130_737)"/>
<path d="M1534.65 -18.8V-36.72H1497.65V-18.8H1507.25V35.088H1497.65V53.008H1534.65V35.088H1525.17V-18.8H1534.65Z" stroke="#FEFAE4" stroke-width="4" mask="url(#path-3-outside-3_2130_737)"/>
<path d="M1611.05 -36.72H1551.28V53.008H1610.67V35.088H1569.2V15.632H1603.76V-2.288H1569.2V-18.8H1611.05V-36.72Z" stroke="#FEFAE4" stroke-width="4" mask="url(#path-3-outside-3_2130_737)"/>
<mask id="path-4-outside-4_2130_737" maskUnits="userSpaceOnUse" x="1645.05" y="-40" width="734" height="97" fill="black">
<rect fill="white" x="1645.05" y="-40" width="734" height="97"/>
<path d="M1716.43 53.008V-1.904L1690.7 21.52L1664.97 -1.904V53.008H1647.05V-36.72H1653.2L1690.7 -2.672L1728.08 -36.72H1734.35V53.008H1716.43Z"/>
<path d="M1810.71 -36.72H1750.93V53.008H1810.32V35.088H1768.85V15.632H1803.41V-2.288H1768.85V-18.8H1810.71V-36.72Z"/>
<path d="M1895.66 53.008L1845.22 0.656002V53.008H1827.3V-36.72H1832.94L1882.47 13.456V-36.72H1900.39V53.008H1895.66Z"/>
<path d="M1981.56 53.008H2001.4L1959.03 -36.72H1953.79L1908.09 53.008H1928.19L1936.63 36.368H1973.75L1981.56 53.008ZM1945.85 18.448L1955.96 -1.52L1965.31 18.448H1945.85Z"/>
<path d="M2057.31 15.632H2078.04C2076.76 20.624 2074.2 25.104 2070.36 28.816C2064.99 34.064 2057.95 37.008 2050.39 37.008H2050.01C2042.46 37.008 2035.29 33.936 2029.91 28.432C2024.67 23.056 2021.72 15.76 2021.85 8.208C2021.85 0.656002 2024.92 -6.512 2030.3 -11.76C2035.67 -17.136 2042.84 -20.08 2050.39 -20.08H2050.65C2056.41 -19.952 2061.79 -18.288 2066.39 -15.088L2079.32 -27.76C2071.51 -34.032 2061.66 -37.872 2050.78 -38H2050.39C2024.92 -38 2004.19 -17.52 2003.93 7.952C2003.67 33.68 2024.15 54.288 2049.88 54.544C2056.67 54.544 2067.67 52.368 2078.17 44.048V53.008H2096.09V-2.288H2057.31V15.632Z"/>
<path d="M2172.46 -36.72H2112.68V53.008H2172.07V35.088H2130.6V15.632H2165.16V-2.288H2130.6V-18.8H2172.46V-36.72Z"/>
<path d="M2250.49 53.008L2232.7 14.608C2242.05 10.384 2248.45 1.04 2248.45 -9.84C2248.45 -24.688 2236.41 -36.848 2221.57 -36.848H2187.77V52.88H2205.69V17.04H2214.65L2231.42 53.008H2250.49ZM2221.57 -18.928C2226.56 -18.928 2230.53 -14.832 2230.53 -9.84C2230.53 -4.848 2226.56 -0.880001 2221.57 -0.880001H2205.69V-18.928H2221.57Z"/>
<path d="M2299.67 -18.8V-36.72H2262.68V-18.8H2272.28V35.088H2262.68V53.008H2299.67V35.088H2290.2V-18.8H2299.67Z"/>
<path d="M2376.08 -36.72H2316.3V53.008H2375.7V35.088H2334.22V15.632H2368.78V-2.288H2334.22V-18.8H2376.08V-36.72Z"/>
</mask>
<path d="M1716.43 53.008V-1.904L1690.7 21.52L1664.97 -1.904V53.008H1647.05V-36.72H1653.2L1690.7 -2.672L1728.08 -36.72H1734.35V53.008H1716.43Z" stroke="#FEFAE4" stroke-width="4" mask="url(#path-4-outside-4_2130_737)"/>
<path d="M1810.71 -36.72H1750.93V53.008H1810.32V35.088H1768.85V15.632H1803.41V-2.288H1768.85V-18.8H1810.71V-36.72Z" stroke="#FEFAE4" stroke-width="4" mask="url(#path-4-outside-4_2130_737)"/>
<path d="M1895.66 53.008L1845.22 0.656002V53.008H1827.3V-36.72H1832.94L1882.47 13.456V-36.72H1900.39V53.008H1895.66Z" stroke="#FEFAE4" stroke-width="4" mask="url(#path-4-outside-4_2130_737)"/>
<path d="M1981.56 53.008H2001.4L1959.03 -36.72H1953.79L1908.09 53.008H1928.19L1936.63 36.368H1973.75L1981.56 53.008ZM1945.85 18.448L1955.96 -1.52L1965.31 18.448H1945.85Z" stroke="#FEFAE4" stroke-width="4" mask="url(#path-4-outside-4_2130_737)"/>
<path d="M2057.31 15.632H2078.04C2076.76 20.624 2074.2 25.104 2070.36 28.816C2064.99 34.064 2057.95 37.008 2050.39 37.008H2050.01C2042.46 37.008 2035.29 33.936 2029.91 28.432C2024.67 23.056 2021.72 15.76 2021.85 8.208C2021.85 0.656002 2024.92 -6.512 2030.3 -11.76C2035.67 -17.136 2042.84 -20.08 2050.39 -20.08H2050.65C2056.41 -19.952 2061.79 -18.288 2066.39 -15.088L2079.32 -27.76C2071.51 -34.032 2061.66 -37.872 2050.78 -38H2050.39C2024.92 -38 2004.19 -17.52 2003.93 7.952C2003.67 33.68 2024.15 54.288 2049.88 54.544C2056.67 54.544 2067.67 52.368 2078.17 44.048V53.008H2096.09V-2.288H2057.31V15.632Z" stroke="#FEFAE4" stroke-width="4" mask="url(#path-4-outside-4_2130_737)"/>
<path d="M2172.46 -36.72H2112.68V53.008H2172.07V35.088H2130.6V15.632H2165.16V-2.288H2130.6V-18.8H2172.46V-36.72Z" stroke="#FEFAE4" stroke-width="4" mask="url(#path-4-outside-4_2130_737)"/>
<path d="M2250.49 53.008L2232.7 14.608C2242.05 10.384 2248.45 1.04 2248.45 -9.84C2248.45 -24.688 2236.41 -36.848 2221.57 -36.848H2187.77V52.88H2205.69V17.04H2214.65L2231.42 53.008H2250.49ZM2221.57 -18.928C2226.56 -18.928 2230.53 -14.832 2230.53 -9.84C2230.53 -4.848 2226.56 -0.880001 2221.57 -0.880001H2205.69V-18.928H2221.57Z" stroke="#FEFAE4" stroke-width="4" mask="url(#path-4-outside-4_2130_737)"/>
<path d="M2299.67 -18.8V-36.72H2262.68V-18.8H2272.28V35.088H2262.68V53.008H2299.67V35.088H2290.2V-18.8H2299.67Z" stroke="#FEFAE4" stroke-width="4" mask="url(#path-4-outside-4_2130_737)"/>
<path d="M2376.08 -36.72H2316.3V53.008H2375.7V35.088H2334.22V15.632H2368.78V-2.288H2334.22V-18.8H2376.08V-36.72Z" stroke="#FEFAE4" stroke-width="4" mask="url(#path-4-outside-4_2130_737)"/>
<mask id="path-5-outside-5_2130_737" maskUnits="userSpaceOnUse" x="-148.948" y="88.928" width="734" height="97" fill="black">
<rect fill="white" x="-148.948" y="88.928" width="734" height="97"/>
<path d="M-77.5722 181.936V127.024L-103.3 150.448L-129.028 127.024V181.936H-146.948V92.208H-140.804L-103.3 126.256L-65.9242 92.208H-59.6522V181.936H-77.5722Z"/>
<path d="M16.7028 92.208H-43.0732V181.936H16.3188V164.016H-25.1532V144.56H9.40675V126.64H-25.1532V110.128H16.7028V92.208Z"/>
<path d="M101.654 181.936L51.2218 129.584V181.936H33.3018V92.208H38.9338L88.4698 142.384V92.208H106.39V181.936H101.654Z"/>
<path d="M187.559 181.936H207.399L165.031 92.208H159.783L114.087 181.936H134.183L142.631 165.296H179.751L187.559 181.936ZM151.847 147.376L161.959 127.408L171.303 147.376H151.847Z"/>
<path d="M263.303 144.56H284.039C282.759 149.552 280.199 154.032 276.359 157.744C270.983 162.992 263.943 165.936 256.391 165.936H256.007C248.455 165.936 241.287 162.864 235.911 157.36C230.663 151.984 227.719 144.688 227.847 137.136C227.847 129.584 230.919 122.416 236.295 117.168C241.671 111.792 248.839 108.848 256.391 108.848H256.647C262.407 108.976 267.783 110.64 272.391 113.84L285.319 101.168C277.511 94.896 267.655 91.056 256.775 90.928H256.391C230.919 90.928 210.183 111.408 209.927 136.88C209.671 162.608 230.151 183.216 255.879 183.472C262.663 183.472 273.671 181.296 284.167 172.976V181.936H302.087V126.64H263.303V144.56Z"/>
<path d="M378.453 92.208H318.677V181.936H378.069V164.016H336.597V144.56H371.157V126.64H336.597V110.128H378.453V92.208Z"/>
<path d="M456.492 181.936L438.7 143.536C448.044 139.312 454.444 129.968 454.444 119.088C454.444 104.24 442.412 92.08 427.564 92.08H393.772V181.808H411.692V145.968H420.652L437.42 181.936H456.492ZM427.564 110C432.556 110 436.524 114.096 436.524 119.088C436.524 124.08 432.556 128.048 427.564 128.048H411.692V110H427.564Z"/>
<path d="M505.669 110.128V92.208H468.677V110.128H478.277V164.016H468.677V181.936H505.669V164.016H496.197V110.128H505.669Z"/>
<path d="M582.078 92.208H522.302V181.936H581.694V164.016H540.222V144.56H574.782V126.64H540.222V110.128H582.078V92.208Z"/>
</mask>
<path d="M-77.5722 181.936V127.024L-103.3 150.448L-129.028 127.024V181.936H-146.948V92.208H-140.804L-103.3 126.256L-65.9242 92.208H-59.6522V181.936H-77.5722Z" stroke="#FEFAE4" stroke-width="4" mask="url(#path-5-outside-5_2130_737)"/>
<path d="M16.7028 92.208H-43.0732V181.936H16.3188V164.016H-25.1532V144.56H9.40675V126.64H-25.1532V110.128H16.7028V92.208Z" stroke="#FEFAE4" stroke-width="4" mask="url(#path-5-outside-5_2130_737)"/>
<path d="M101.654 181.936L51.2218 129.584V181.936H33.3018V92.208H38.9338L88.4698 142.384V92.208H106.39V181.936H101.654Z" stroke="#FEFAE4" stroke-width="4" mask="url(#path-5-outside-5_2130_737)"/>
<path d="M187.559 181.936H207.399L165.031 92.208H159.783L114.087 181.936H134.183L142.631 165.296H179.751L187.559 181.936ZM151.847 147.376L161.959 127.408L171.303 147.376H151.847Z" stroke="#FEFAE4" stroke-width="4" mask="url(#path-5-outside-5_2130_737)"/>
<path d="M263.303 144.56H284.039C282.759 149.552 280.199 154.032 276.359 157.744C270.983 162.992 263.943 165.936 256.391 165.936H256.007C248.455 165.936 241.287 162.864 235.911 157.36C230.663 151.984 227.719 144.688 227.847 137.136C227.847 129.584 230.919 122.416 236.295 117.168C241.671 111.792 248.839 108.848 256.391 108.848H256.647C262.407 108.976 267.783 110.64 272.391 113.84L285.319 101.168C277.511 94.896 267.655 91.056 256.775 90.928H256.391C230.919 90.928 210.183 111.408 209.927 136.88C209.671 162.608 230.151 183.216 255.879 183.472C262.663 183.472 273.671 181.296 284.167 172.976V181.936H302.087V126.64H263.303V144.56Z" stroke="#FEFAE4" stroke-width="4" mask="url(#path-5-outside-5_2130_737)"/>
<path d="M378.453 92.208H318.677V181.936H378.069V164.016H336.597V144.56H371.157V126.64H336.597V110.128H378.453V92.208Z" stroke="#FEFAE4" stroke-width="4" mask="url(#path-5-outside-5_2130_737)"/>
<path d="M456.492 181.936L438.7 143.536C448.044 139.312 454.444 129.968 454.444 119.088C454.444 104.24 442.412 92.08 427.564 92.08H393.772V181.808H411.692V145.968H420.652L437.42 181.936H456.492ZM427.564 110C432.556 110 436.524 114.096 436.524 119.088C436.524 124.08 432.556 128.048 427.564 128.048H411.692V110H427.564Z" stroke="#FEFAE4" stroke-width="4" mask="url(#path-5-outside-5_2130_737)"/>
<path d="M505.669 110.128V92.208H468.677V110.128H478.277V164.016H468.677V181.936H505.669V164.016H496.197V110.128H505.669Z" stroke="#FEFAE4" stroke-width="4" mask="url(#path-5-outside-5_2130_737)"/>
<path d="M582.078 92.208H522.302V181.936H581.694V164.016H540.222V144.56H574.782V126.64H540.222V110.128H582.078V92.208Z" stroke="#FEFAE4" stroke-width="4" mask="url(#path-5-outside-5_2130_737)"/>
<path d="M687.454 181.936V127.024L661.726 150.448L635.998 127.024V181.936H618.078V92.208H624.222L661.726 126.256L699.102 92.208H705.374V181.936H687.454Z" fill="#2D6CFF"/>
<path d="M781.729 92.208H721.953V181.936H781.345V164.016H739.873V144.56H774.433V126.64H739.873V110.128H781.729V92.208Z" fill="#2D6CFF"/>
<path d="M866.68 181.936L816.248 129.584V181.936H798.328V92.208H803.96L853.496 142.384V92.208H871.416V181.936H866.68Z" fill="#2D6CFF"/>
<path d="M952.585 181.936H972.425L930.057 92.208H924.809L879.113 181.936H899.209L907.657 165.296H944.777L952.585 181.936ZM916.873 147.376L926.985 127.408L936.329 147.376H916.873Z" fill="#2D6CFF"/>
<path d="M1028.33 144.56H1049.07C1047.79 149.552 1045.23 154.032 1041.39 157.744C1036.01 162.992 1028.97 165.936 1021.42 165.936H1021.03C1013.48 165.936 1006.31 162.864 1000.94 157.36C995.689 151.984 992.745 144.688 992.873 137.136C992.873 129.584 995.945 122.416 1001.32 117.168C1006.7 111.792 1013.87 108.848 1021.42 108.848H1021.67C1027.43 108.976 1032.81 110.64 1037.42 113.84L1050.35 101.168C1042.54 94.896 1032.68 91.056 1021.8 90.928H1021.42C995.945 90.928 975.209 111.408 974.953 136.88C974.697 162.608 995.177 183.216 1020.91 183.472C1027.69 183.472 1038.7 181.296 1049.19 172.976V181.936H1067.11V126.64H1028.33V144.56Z" fill="#2D6CFF"/>
<path d="M1143.48 92.208H1083.7V181.936H1143.1V164.016H1101.62V144.56H1136.18V126.64H1101.62V110.128H1143.48V92.208Z" fill="#2D6CFF"/>
<path d="M1221.52 181.936L1203.73 143.536C1213.07 139.312 1219.47 129.968 1219.47 119.088C1219.47 104.24 1207.44 92.08 1192.59 92.08H1158.8V181.808H1176.72V145.968H1185.68L1202.45 181.936H1221.52ZM1192.59 110C1197.58 110 1201.55 114.096 1201.55 119.088C1201.55 124.08 1197.58 128.048 1192.59 128.048H1176.72V110H1192.59Z" fill="#2D6CFF"/>
<path d="M1270.7 110.128V92.208H1233.7V110.128H1243.3V164.016H1233.7V181.936H1270.7V164.016H1261.22V110.128H1270.7Z" fill="#2D6CFF"/>
<path d="M1347.1 92.208H1287.33V181.936H1346.72V164.016H1305.25V144.56H1339.81V126.64H1305.25V110.128H1347.1V92.208Z" fill="#2D6CFF"/>
<mask id="path-7-outside-6_2130_737" maskUnits="userSpaceOnUse" x="1381.1" y="88.928" width="734" height="97" fill="black">
<rect fill="white" x="1381.1" y="88.928" width="734" height="97"/>
<path d="M1452.48 181.936V127.024L1426.75 150.448L1401.02 127.024V181.936H1383.1V92.208H1389.25L1426.75 126.256L1464.13 92.208H1470.4V181.936H1452.48Z"/>
<path d="M1546.76 92.208H1486.98V181.936H1546.37V164.016H1504.9V144.56H1539.46V126.64H1504.9V110.128H1546.76V92.208Z"/>
<path d="M1631.71 181.936L1581.27 129.584V181.936H1563.35V92.208H1568.99L1618.52 142.384V92.208H1636.44V181.936H1631.71Z"/>
<path d="M1717.61 181.936H1737.45L1695.08 92.208H1689.83L1644.14 181.936H1664.24L1672.68 165.296H1709.8L1717.61 181.936ZM1681.9 147.376L1692.01 127.408L1701.36 147.376H1681.9Z"/>
<path d="M1793.36 144.56H1814.09C1812.81 149.552 1810.25 154.032 1806.41 157.744C1801.04 162.992 1793.99 165.936 1786.44 165.936H1786.06C1778.51 165.936 1771.34 162.864 1765.96 157.36C1760.72 151.984 1757.77 144.688 1757.9 137.136C1757.9 129.584 1760.97 122.416 1766.35 117.168C1771.72 111.792 1778.89 108.848 1786.44 108.848H1786.7C1792.46 108.976 1797.83 110.64 1802.44 113.84L1815.37 101.168C1807.56 94.896 1797.71 91.056 1786.83 90.928H1786.44C1760.97 90.928 1740.24 111.408 1739.98 136.88C1739.72 162.608 1760.2 183.216 1785.93 183.472C1792.71 183.472 1803.72 181.296 1814.22 172.976V181.936H1832.14V126.64H1793.36V144.56Z"/>
<path d="M1908.51 92.208H1848.73V181.936H1908.12V164.016H1866.65V144.56H1901.21V126.64H1866.65V110.128H1908.51V92.208Z"/>
<path d="M1986.54 181.936L1968.75 143.536C1978.1 139.312 1984.5 129.968 1984.5 119.088C1984.5 104.24 1972.46 92.08 1957.62 92.08H1923.82V181.808H1941.74V145.968H1950.7L1967.47 181.936H1986.54ZM1957.62 110C1962.61 110 1966.58 114.096 1966.58 119.088C1966.58 124.08 1962.61 128.048 1957.62 128.048H1941.74V110H1957.62Z"/>
<path d="M2035.72 110.128V92.208H1998.73V110.128H2008.33V164.016H1998.73V181.936H2035.72V164.016H2026.25V110.128H2035.72Z"/>
<path d="M2112.13 92.208H2052.35V181.936H2111.75V164.016H2070.27V144.56H2104.83V126.64H2070.27V110.128H2112.13V92.208Z"/>
</mask>
<path d="M1452.48 181.936V127.024L1426.75 150.448L1401.02 127.024V181.936H1383.1V92.208H1389.25L1426.75 126.256L1464.13 92.208H1470.4V181.936H1452.48Z" stroke="#FEFAE4" stroke-width="4" mask="url(#path-7-outside-6_2130_737)"/>
<path d="M1546.76 92.208H1486.98V181.936H1546.37V164.016H1504.9V144.56H1539.46V126.64H1504.9V110.128H1546.76V92.208Z" stroke="#FEFAE4" stroke-width="4" mask="url(#path-7-outside-6_2130_737)"/>
<path d="M1631.71 181.936L1581.27 129.584V181.936H1563.35V92.208H1568.99L1618.52 142.384V92.208H1636.44V181.936H1631.71Z" stroke="#FEFAE4" stroke-width="4" mask="url(#path-7-outside-6_2130_737)"/>
<path d="M1717.61 181.936H1737.45L1695.08 92.208H1689.83L1644.14 181.936H1664.24L1672.68 165.296H1709.8L1717.61 181.936ZM1681.9 147.376L1692.01 127.408L1701.36 147.376H1681.9Z" stroke="#FEFAE4" stroke-width="4" mask="url(#path-7-outside-6_2130_737)"/>
<path d="M1793.36 144.56H1814.09C1812.81 149.552 1810.25 154.032 1806.41 157.744C1801.04 162.992 1793.99 165.936 1786.44 165.936H1786.06C1778.51 165.936 1771.34 162.864 1765.96 157.36C1760.72 151.984 1757.77 144.688 1757.9 137.136C1757.9 129.584 1760.97 122.416 1766.35 117.168C1771.72 111.792 1778.89 108.848 1786.44 108.848H1786.7C1792.46 108.976 1797.83 110.64 1802.44 113.84L1815.37 101.168C1807.56 94.896 1797.71 91.056 1786.83 90.928H1786.44C1760.97 90.928 1740.24 111.408 1739.98 136.88C1739.72 162.608 1760.2 183.216 1785.93 183.472C1792.71 183.472 1803.72 181.296 1814.22 172.976V181.936H1832.14V126.64H1793.36V144.56Z" stroke="#FEFAE4" stroke-width="4" mask="url(#path-7-outside-6_2130_737)"/>
<path d="M1908.51 92.208H1848.73V181.936H1908.12V164.016H1866.65V144.56H1901.21V126.64H1866.65V110.128H1908.51V92.208Z" stroke="#FEFAE4" stroke-width="4" mask="url(#path-7-outside-6_2130_737)"/>
<path d="M1986.54 181.936L1968.75 143.536C1978.1 139.312 1984.5 129.968 1984.5 119.088C1984.5 104.24 1972.46 92.08 1957.62 92.08H1923.82V181.808H1941.74V145.968H1950.7L1967.47 181.936H1986.54ZM1957.62 110C1962.61 110 1966.58 114.096 1966.58 119.088C1966.58 124.08 1962.61 128.048 1957.62 128.048H1941.74V110H1957.62Z" stroke="#FEFAE4" stroke-width="4" mask="url(#path-7-outside-6_2130_737)"/>
<path d="M2035.72 110.128V92.208H1998.73V110.128H2008.33V164.016H1998.73V181.936H2035.72V164.016H2026.25V110.128H2035.72Z" stroke="#FEFAE4" stroke-width="4" mask="url(#path-7-outside-6_2130_737)"/>
<path d="M2112.13 92.208H2052.35V181.936H2111.75V164.016H2070.27V144.56H2104.83V126.64H2070.27V110.128H2112.13V92.208Z" stroke="#FEFAE4" stroke-width="4" mask="url(#path-7-outside-6_2130_737)"/>
</g>
<defs>
<clipPath id="clip0_2130_737">
<rect width="1728" height="220" fill="white"/>
</clipPath>
</defs>
</svg>
