<svg width="1728" height="190" viewBox="0 0 1728 190" fill="none" xmlns="http://www.w3.org/2000/svg">
<g clip-path="url(#clip0_2150_864)">
<path d="M241.63 14.1856L241.571 14.1659L241.51 14.1537L240.902 14.0322L240.84 14.016C237.896 13.2482 232.641 11.8777 227.763 8.58525L227.763 8.58522L227.755 8.57977C220.9 4.05059 217.129 -2.52197 216.763 -10.7148L216.763 -10.7148L216.762 -10.7236C216.395 -17.5774 218.591 -23.5339 222.969 -28.1568C229.332 -34.7623 238.565 -36.6185 242.966 -36.6185C255.614 -36.6185 262.651 -32.0646 269.093 -27.8966L269.114 -27.8829L269.117 -27.8809L271.223 -26.5075L262.985 -13.0787L260.668 -14.5614L260.666 -14.5631L260.492 -14.6749C257.727 -16.4574 255.339 -17.9963 252.687 -19.0797C249.949 -20.1983 246.959 -20.8224 242.966 -20.8224C242.247 -20.8224 240.734 -20.5672 239.132 -20.0223C237.529 -19.4769 235.674 -18.5876 234.368 -17.2149C233.397 -16.2389 232.424 -14.5642 232.56 -11.3972C232.633 -8.83442 233.585 -6.77579 235.652 -5.12241C237.653 -3.52156 240.655 -2.33595 244.757 -1.31036C245.732 -1.06671 246.462 -0.823776 247.222 -0.570496C255.631 2.31664 262.076 6.18058 266.506 10.9775C270.93 15.8948 273.236 21.6342 273.236 27.7187C273.236 33.6739 270.677 39.9247 266.374 44.7198L266.372 44.7223C261.349 50.3579 254.374 53.54 246.652 53.54C242.764 53.54 237.536 53.2894 231.312 51.4236C223.773 49.0287 217.038 44.9094 211.209 38.9414L222.72 28.1078C232.243 37.7428 242.739 37.7439 246.652 37.7439C250.691 37.7439 253.415 35.8801 255.102 33.7015C256.75 31.5727 257.44 29.1046 257.44 27.7187C257.44 24.8953 255.84 22.3206 253.189 20.1033C250.535 17.883 246.724 15.9266 242.019 14.3153L242.019 14.3153L242.011 14.3127L241.63 14.1856Z" stroke="#0A0A0A" stroke-width="2"/>
<path d="M138.519 51.6332H132.273V-35.3474H156.442C162.287 -35.3474 168.001 -34.2287 173.34 -31.9945C178.561 -29.7562 183.157 -26.6504 187.133 -22.6746C191.239 -18.5686 194.339 -13.9766 196.446 -8.76956L196.452 -8.75498L196.459 -8.74059C198.814 -3.4111 199.933 2.29733 199.933 8.14292C199.933 14.1171 198.813 19.8253 196.459 25.1535L196.452 25.1679L196.446 25.1825C194.339 30.3904 191.24 34.9774 187.144 38.9496L187.138 38.9549L187.133 38.9604C183.146 42.9471 178.552 46.1703 173.355 48.2742L173.34 48.2801L173.326 48.2864C167.996 50.6413 162.288 51.7604 156.442 51.7604H139.519V51.6332H138.519ZM148.07 34.9642V35.9642H149.07H156.442C171.746 35.9642 184.136 23.4344 184.136 8.14292C184.136 -7.15473 171.74 -19.5513 156.442 -19.5513H149.07H148.07V-18.5513V34.9642Z" stroke="#0A0A0A" stroke-width="2"/>
<path d="M97.9302 13.4818V-35.3474H113.726V51.7604H110.448L60.6599 0.0764618L58.9397 -1.70922V0.770237V51.7604H43.1436V-35.3474H47.3186L96.2186 14.1843L97.9302 15.9181V13.4818Z" stroke="#0A0A0A" stroke-width="2"/>
<path d="M-15.907 35.9642H24.2783V51.7604H-32.7031V-35.3474H24.6597V-19.5513H-15.907H-16.907V-18.5513V-2.15342V-1.15342H-15.907H17.4141V14.6427H-15.907H-16.907V15.6427V34.9642V35.9642H-15.907Z" stroke="#0A0A0A" stroke-width="2"/>
<path d="M1085.25 14.1856L1085.19 14.1659L1085.13 14.1537L1084.52 14.0322L1084.46 14.016C1081.51 13.2482 1076.26 11.8777 1071.38 8.58525L1071.38 8.58522L1071.37 8.57977C1064.52 4.05059 1060.75 -2.52197 1060.38 -10.7148L1060.38 -10.7148L1060.38 -10.7236C1060.01 -17.5774 1062.21 -23.5339 1066.59 -28.1568C1072.95 -34.7623 1082.18 -36.6185 1086.58 -36.6185C1099.23 -36.6185 1106.27 -32.0646 1112.71 -27.8966L1112.73 -27.8829L1112.74 -27.8809L1114.84 -26.5075L1106.6 -13.0787L1104.29 -14.5614L1104.28 -14.5631L1104.11 -14.6749C1101.35 -16.4574 1098.96 -17.9963 1096.31 -19.0797C1093.57 -20.1983 1090.58 -20.8224 1086.58 -20.8224C1085.86 -20.8224 1084.35 -20.5672 1082.75 -20.0223C1081.15 -19.4769 1079.29 -18.5876 1077.99 -17.2149C1077.02 -16.2389 1076.04 -14.5642 1076.18 -11.3972C1076.25 -8.83442 1077.2 -6.77579 1079.27 -5.12241C1081.27 -3.52156 1084.27 -2.33595 1088.38 -1.31036C1089.35 -1.06671 1090.08 -0.823776 1090.84 -0.570496C1099.25 2.31664 1105.69 6.18058 1110.12 10.9775C1114.55 15.8948 1116.85 21.6342 1116.85 27.7187C1116.85 33.6739 1114.3 39.9247 1109.99 44.7198L1109.99 44.7223C1104.97 50.3579 1097.99 53.54 1090.27 53.54C1086.38 53.54 1081.15 53.2894 1074.93 51.4236C1067.39 49.0287 1060.66 44.9094 1054.83 38.9414L1066.34 28.1078C1075.86 37.7428 1086.36 37.7439 1090.27 37.7439C1094.31 37.7439 1097.03 35.8801 1098.72 33.7015C1100.37 31.5727 1101.06 29.1046 1101.06 27.7187C1101.06 24.8953 1099.46 22.3206 1096.81 20.1033C1094.15 17.883 1090.34 15.9266 1085.64 14.3153L1085.64 14.3153L1085.63 14.3127L1085.25 14.1856Z" stroke="#0A0A0A" stroke-width="2"/>
<path d="M982.137 51.6332H975.892V-35.3474H1000.06C1005.9 -35.3474 1011.62 -34.2287 1016.96 -31.9945C1022.18 -29.7562 1026.77 -26.6504 1030.75 -22.6746C1034.86 -18.5686 1037.96 -13.9766 1040.06 -8.76956L1040.07 -8.75498L1040.08 -8.74059C1042.43 -3.4111 1043.55 2.29733 1043.55 8.14292C1043.55 14.1171 1042.43 19.8253 1040.08 25.1535L1040.07 25.1679L1040.06 25.1825C1037.96 30.3904 1034.86 34.9774 1030.76 38.9496L1030.76 38.9549L1030.75 38.9604C1026.76 42.9471 1022.17 46.1703 1016.97 48.2742L1016.96 48.2801L1016.94 48.2864C1011.61 50.6413 1005.91 51.7604 1000.06 51.7604H983.137V51.6332H982.137ZM991.688 34.9642V35.9642H992.688H1000.06C1015.36 35.9642 1027.75 23.4344 1027.75 8.14292C1027.75 -7.15473 1015.36 -19.5513 1000.06 -19.5513H992.688H991.688V-18.5513V34.9642Z" stroke="#0A0A0A" stroke-width="2"/>
<path d="M941.548 13.4818V-35.3474H957.345V51.7604H954.066L904.278 0.0764618L902.558 -1.70922V0.770237V51.7604H886.762V-35.3474H890.937L939.837 14.1843L941.548 15.9181V13.4818Z" stroke="#0A0A0A" stroke-width="2"/>
<path d="M827.711 35.9642H867.897V51.7604H810.915V-35.3474H868.278V-19.5513H827.711H826.711V-18.5513V-2.15342V-1.15342H827.711H861.032V14.6427H827.711H826.711V15.6427V34.9642V35.9642H827.711Z" stroke="#0A0A0A" stroke-width="2"/>
<path d="M743.591 26.1933V19.5664H756.209V51.7604H743.921L743.589 45.4623L743.406 41.9874L741.716 45.0292C740.263 47.6455 737.568 49.7815 734.439 51.2694C731.317 52.754 727.872 53.54 725.049 53.54C717.021 53.54 709.634 51.3297 704.275 46.9937C698.942 42.679 695.541 36.2008 695.541 27.4645C695.541 16.5493 701.038 9.70229 706.703 5.51501L707.661 4.80711L706.798 3.98628C701.8 -0.768108 699.609 -6.21921 699.609 -13.3395C699.609 -27.1812 710.753 -36.6185 724.794 -36.6185C738.508 -36.6185 749.563 -27.7424 750.088 -14.3395H737.449C737.173 -17.7185 735.498 -20.1166 733.204 -21.6678C730.736 -23.3363 727.599 -24.0003 724.794 -24.0003C721.758 -24.0003 718.646 -23.1258 716.268 -21.3554C713.865 -19.5658 712.227 -16.8651 712.227 -13.3395C712.227 -7.32912 716.115 -3.45858 721.305 -1.14471C726.19 1.03347 732.39 1.92529 738.158 2.0166V13.2357C732.407 13.1349 726.978 12.1825 721.953 11.1057L721.669 11.0447L721.396 11.146C715.092 13.4857 711.723 16.3705 709.965 19.363C708.214 22.3456 708.159 25.2866 708.159 27.4645C708.159 31.8584 709.76 35.4016 712.757 37.8235C715.725 40.2218 719.948 41.4302 725.049 41.4302C730.344 41.4302 734.961 39.2856 738.252 36.3456C741.516 33.4294 743.591 29.6194 743.591 26.1933Z" stroke="#0A0A0A" stroke-width="2"/>
<path d="M611.794 14.1856L611.735 14.1659L611.674 14.1537L611.067 14.0323L611.004 14.016C608.06 13.2482 602.805 11.8777 597.927 8.58525L597.927 8.58522L597.919 8.57977C591.064 4.05059 587.293 -2.52197 586.927 -10.7148L586.927 -10.7148L586.926 -10.7236C586.559 -17.5774 588.755 -23.5339 593.134 -28.1568C599.496 -34.7623 608.729 -36.6185 613.13 -36.6185C625.778 -36.6185 632.815 -32.0646 639.257 -27.8966L639.278 -27.8829L639.281 -27.8809L641.387 -26.5075L633.149 -13.0787L630.832 -14.5614L630.83 -14.5631L630.656 -14.6749C627.891 -16.4574 625.503 -17.9963 622.851 -19.0797C620.113 -20.1983 617.123 -20.8224 613.13 -20.8224C612.411 -20.8224 610.898 -20.5672 609.297 -20.0223C607.694 -19.4769 605.838 -18.5876 604.532 -17.2149C603.561 -16.2389 602.588 -14.5641 602.724 -11.3972C602.797 -8.83442 603.749 -6.77579 605.816 -5.12241C607.817 -3.52156 610.819 -2.33595 614.921 -1.31036C615.896 -1.06672 616.626 -0.823814 617.386 -0.570541C625.795 2.3166 632.24 6.18056 636.67 10.9775C641.094 15.8948 643.401 21.6342 643.401 27.7187C643.401 33.6739 640.841 39.9247 636.538 44.7198L636.536 44.7223C631.513 50.3579 624.538 53.54 616.817 53.54C612.929 53.54 607.7 53.2894 601.476 51.4236C593.937 49.0287 587.202 44.9094 581.373 38.9414L592.884 28.1078C602.407 37.7428 612.903 37.7439 616.817 37.7439C620.855 37.7439 623.579 35.8801 625.266 33.7015C626.914 31.5727 627.604 29.1046 627.604 27.7187C627.604 24.8953 626.004 22.3206 623.353 20.1033C620.699 17.883 616.888 15.9266 612.183 14.3153L612.183 14.3153L612.175 14.3127L611.794 14.1856Z" stroke="#0A0A0A" stroke-width="2"/>
<path d="M508.682 51.6332H502.437V-35.3474H526.605C532.45 -35.3474 538.164 -34.2288 543.503 -31.9945C548.724 -29.7562 553.32 -26.6504 557.296 -22.6746C561.402 -18.5686 564.502 -13.9766 566.609 -8.76956L566.615 -8.75498L566.622 -8.74059C568.977 -3.4111 570.096 2.29734 570.096 8.14292C570.096 14.1171 568.976 19.8253 566.622 25.1535L566.615 25.1679L566.609 25.1825C564.502 30.3904 561.403 34.9774 557.307 38.9496L557.301 38.9549L557.296 38.9604C553.309 42.9471 548.716 46.1703 543.518 48.2742L543.503 48.2801L543.489 48.2864C538.159 50.6413 532.451 51.7604 526.605 51.7604H509.682V51.6332H508.682ZM518.233 34.9642V35.9642H519.233H526.605C541.909 35.9642 554.3 23.4344 554.3 8.14292C554.3 -7.15473 541.903 -19.5513 526.605 -19.5513H519.233H518.233V-18.5513V34.9642Z" stroke="#0A0A0A" stroke-width="2"/>
<path d="M422.532 51.6332H416.286V-35.3474H440.455C446.299 -35.3474 452.014 -34.2287 457.353 -31.9945C462.574 -29.7562 467.169 -26.6504 471.145 -22.6746C475.251 -18.5686 478.352 -13.9766 480.459 -8.76956L480.465 -8.75498L480.471 -8.74059C482.826 -3.4111 483.945 2.29734 483.945 8.14292C483.945 14.1171 482.826 19.8253 480.471 25.1535L480.465 25.1679L480.459 25.1825C478.351 30.3904 475.253 34.9774 471.156 38.9496L471.151 38.9549L471.145 38.9604C467.159 42.9471 462.565 46.1703 457.367 48.2742L457.353 48.2801L457.338 48.2864C452.009 50.6413 446.301 51.7604 440.455 51.7604H423.532V51.6332H422.532ZM432.082 34.9642V35.9642H433.082H440.455C455.759 35.9642 468.149 23.4344 468.149 8.14292C468.149 -7.15473 455.753 -19.5513 440.455 -19.5513H433.082H432.082V-18.5513V34.9642Z" stroke="#0A0A0A" stroke-width="2"/>
<path d="M356.379 -37C381.25 -37 401.522 -16.7279 401.522 8.14284C401.522 33.0136 381.25 53.2857 356.379 53.2857C331.508 53.2857 311.236 33.0136 311.236 8.14284C311.236 -16.7279 331.508 -37 356.379 -37ZM356.379 -20.6954C340.446 -20.6954 327.541 -7.79039 327.541 8.14284C327.541 24.0761 340.446 36.9811 356.379 36.9811C372.312 36.9811 385.217 24.0761 385.217 8.14284C385.217 -7.79039 372.312 -20.6954 356.379 -20.6954Z" stroke="#0A0A0A" stroke-width="2"/>
<path d="M1671.33 35.9642H1711.52V51.7604H1654.53V-35.3474H1711.9V-19.5513H1671.33H1670.33V-18.5513V-2.15342V-1.15342H1671.33H1704.65V14.6427H1671.33H1670.33V15.6427V34.9642V35.9642H1671.33Z" stroke="#0A0A0A" stroke-width="2"/>
<path d="M1587.21 26.1933V19.5664H1599.83V51.7604H1587.54L1587.21 45.4623L1587.03 41.9874L1585.34 45.0292C1583.88 47.6455 1581.19 49.7815 1578.06 51.2694C1574.94 52.754 1571.49 53.54 1568.67 53.54C1560.64 53.54 1553.25 51.3297 1547.89 46.9937C1542.56 42.679 1539.16 36.2008 1539.16 27.4645C1539.16 16.5493 1544.66 9.70229 1550.32 5.51501L1551.28 4.80711L1550.42 3.98628C1545.42 -0.768108 1543.23 -6.21921 1543.23 -13.3395C1543.23 -27.1812 1554.37 -36.6185 1568.41 -36.6185C1582.13 -36.6185 1593.18 -27.7424 1593.71 -14.3395H1581.07C1580.79 -17.7185 1579.12 -20.1166 1576.82 -21.6678C1574.35 -23.3363 1571.22 -24.0003 1568.41 -24.0003C1565.38 -24.0003 1562.27 -23.1258 1559.89 -21.3554C1557.48 -19.5658 1555.85 -16.8651 1555.85 -13.3395C1555.85 -7.32912 1559.73 -3.45858 1564.92 -1.14471C1569.81 1.03347 1576.01 1.92529 1581.78 2.0166V13.2357C1576.03 13.1349 1570.6 12.1825 1565.57 11.1057L1565.29 11.0447L1565.01 11.146C1558.71 13.4857 1555.34 16.3705 1553.58 19.363C1551.83 22.3456 1551.78 25.2866 1551.78 27.4645C1551.78 31.8584 1553.38 35.4016 1556.38 37.8235C1559.34 40.2218 1563.57 41.4302 1568.67 41.4302C1573.96 41.4302 1578.58 39.2856 1581.87 36.3456C1585.13 33.4294 1587.21 29.6194 1587.21 26.1933Z" stroke="#0A0A0A" stroke-width="2"/>
<path d="M1455.41 14.1856L1455.35 14.1659L1455.29 14.1537L1454.69 14.0323L1454.62 14.016C1451.68 13.2482 1446.42 11.8777 1441.55 8.58525L1441.55 8.58522L1441.54 8.57977C1434.68 4.05059 1430.91 -2.52197 1430.55 -10.7148L1430.55 -10.7148L1430.55 -10.7236C1430.18 -17.5774 1432.37 -23.5339 1436.75 -28.1568C1443.12 -34.7623 1452.35 -36.6185 1456.75 -36.6185C1469.4 -36.6185 1476.43 -32.0646 1482.88 -27.8966L1482.9 -27.8829L1482.9 -27.8809L1485.01 -26.5075L1476.77 -13.0787L1474.45 -14.5614L1474.45 -14.5631L1474.28 -14.6749C1471.51 -16.4574 1469.12 -17.9963 1466.47 -19.0797C1463.73 -20.1983 1460.74 -20.8224 1456.75 -20.8224C1456.03 -20.8224 1454.52 -20.5672 1452.92 -20.0223C1451.31 -19.4769 1449.46 -18.5876 1448.15 -17.2149C1447.18 -16.2389 1446.21 -14.5641 1446.34 -11.3972C1446.42 -8.83442 1447.37 -6.77579 1449.44 -5.12241C1451.44 -3.52156 1454.44 -2.33595 1458.54 -1.31036C1459.52 -1.06672 1460.25 -0.823814 1461 -0.570541C1469.41 2.3166 1475.86 6.18056 1480.29 10.9775C1484.71 15.8948 1487.02 21.6342 1487.02 27.7187C1487.02 33.6739 1484.46 39.9247 1480.16 44.7198L1480.15 44.7223C1475.13 50.3579 1468.16 53.54 1460.44 53.54C1456.55 53.54 1451.32 53.2894 1445.1 51.4236C1437.56 49.0287 1430.82 44.9094 1424.99 38.9414L1436.5 28.1078C1446.03 37.7428 1456.52 37.7439 1460.44 37.7439C1464.47 37.7439 1467.2 35.8801 1468.89 33.7015C1470.53 31.5727 1471.22 29.1046 1471.22 27.7187C1471.22 24.8953 1469.62 22.3206 1466.97 20.1033C1464.32 17.883 1460.51 15.9266 1455.8 14.3153L1455.8 14.3153L1455.79 14.3127L1455.41 14.1856Z" stroke="#0A0A0A" stroke-width="2"/>
<path d="M1352.3 51.6332H1346.06V-35.3474H1370.22C1376.07 -35.3474 1381.78 -34.2288 1387.12 -31.9945C1392.34 -29.7562 1396.94 -26.6504 1400.91 -22.6746C1405.02 -18.5686 1408.12 -13.9766 1410.23 -8.76956L1410.23 -8.75498L1410.24 -8.74059C1412.6 -3.4111 1413.71 2.29734 1413.71 8.14292C1413.71 14.1171 1412.6 19.8253 1410.24 25.1535L1410.23 25.1679L1410.23 25.1825C1408.12 30.3904 1405.02 34.9774 1400.93 38.9496L1400.92 38.9549L1400.91 38.9604C1396.93 42.9471 1392.33 46.1703 1387.14 48.2742L1387.12 48.2801L1387.11 48.2864C1381.78 50.6413 1376.07 51.7604 1370.22 51.7604H1353.3V51.6332H1352.3ZM1361.85 34.9642V35.9642H1362.85H1370.22C1385.53 35.9642 1397.92 23.4344 1397.92 8.14292C1397.92 -7.15473 1385.52 -19.5513 1370.22 -19.5513H1362.85H1361.85V-18.5513V34.9642Z" stroke="#0A0A0A" stroke-width="2"/>
<path d="M1266.15 51.6332H1259.91V-35.3474H1284.07C1289.92 -35.3474 1295.63 -34.2287 1300.97 -31.9945C1306.19 -29.7562 1310.79 -26.6504 1314.76 -22.6746C1318.87 -18.5686 1321.97 -13.9766 1324.08 -8.76956L1324.08 -8.75498L1324.09 -8.74059C1326.45 -3.4111 1327.56 2.29734 1327.56 8.14292C1327.56 14.1171 1326.44 19.8253 1324.09 25.1535L1324.08 25.1679L1324.08 25.1825C1321.97 30.3904 1318.87 34.9774 1314.78 38.9496L1314.77 38.9549L1314.76 38.9604C1310.78 42.9471 1306.18 46.1703 1300.99 48.2742L1300.97 48.2801L1300.96 48.2864C1295.63 50.6413 1289.92 51.7604 1284.07 51.7604H1267.15V51.6332H1266.15ZM1275.7 34.9642V35.9642H1276.7H1284.07C1299.38 35.9642 1311.77 23.4344 1311.77 8.14292C1311.77 -7.15473 1299.37 -19.5513 1284.07 -19.5513H1276.7H1275.7V-18.5513V34.9642Z" stroke="#0A0A0A" stroke-width="2"/>
<path d="M1200 -37C1224.87 -37 1245.14 -16.7279 1245.14 8.14284C1245.14 33.0136 1224.87 53.2857 1200 53.2857C1175.13 53.2857 1154.86 33.0136 1154.86 8.14284C1154.86 -16.7279 1175.13 -37 1200 -37ZM1200 -20.6954C1184.07 -20.6954 1171.16 -7.79039 1171.16 8.14284C1171.16 24.0761 1184.07 36.9811 1200 36.9811C1215.93 36.9811 1228.84 24.0761 1228.84 8.14284C1228.84 -7.79039 1215.93 -20.6954 1200 -20.6954Z" stroke="#0A0A0A" stroke-width="2"/>
<path d="M549.173 143.114L549.114 143.094L549.053 143.082L548.445 142.96L548.383 142.944C545.439 142.176 540.184 140.806 535.306 137.513L535.306 137.513L535.298 137.508C528.443 132.979 524.672 126.406 524.305 118.213L524.306 118.213L524.305 118.204C523.938 111.351 526.134 105.394 530.512 100.771C536.875 94.1657 546.108 92.3094 550.509 92.3094C563.156 92.3094 570.194 96.8634 576.636 101.031L576.657 101.045L576.66 101.047L578.766 102.42L570.528 115.849L568.211 114.367L568.209 114.365L568.035 114.253C565.27 112.471 562.882 110.932 560.23 109.848C557.492 108.73 554.502 108.106 550.509 108.106C549.79 108.106 548.277 108.361 546.675 108.906C545.072 109.451 543.216 110.34 541.911 111.713C540.94 112.689 539.967 114.364 540.103 117.531C540.176 120.094 541.128 122.152 543.195 123.806C545.196 125.406 548.198 126.592 552.3 127.618C553.275 127.861 554.005 128.104 554.765 128.357C563.174 131.245 569.619 135.109 574.049 139.906C578.473 144.823 580.779 150.562 580.779 156.647C580.779 162.602 578.22 168.853 573.917 173.648L573.915 173.65C568.891 179.286 561.917 182.468 554.195 182.468C550.307 182.468 545.079 182.217 538.855 180.352C531.316 177.957 524.581 173.837 518.752 167.869L530.263 157.036C539.786 166.671 550.282 166.672 554.195 166.672C558.234 166.672 560.958 164.808 562.645 162.629C564.293 160.501 564.983 158.033 564.983 156.647C564.983 153.823 563.383 151.249 560.732 149.031C558.078 146.811 554.267 144.855 549.562 143.243L549.562 143.243L549.554 143.241L549.173 143.114Z" stroke="#0A0A0A" stroke-width="2"/>
<path d="M446.062 180.561H439.816V93.5806H463.985C469.83 93.5806 475.544 94.6992 480.883 96.9335C486.104 99.1718 490.7 102.278 494.676 106.253C498.782 110.359 501.882 114.951 503.989 120.158L503.995 120.173L504.002 120.187C506.357 125.517 507.476 131.225 507.476 137.071C507.476 143.045 506.356 148.753 504.002 154.082L503.995 154.096L503.989 154.11C501.881 159.318 498.783 163.905 494.687 167.878L494.681 167.883L494.676 167.888C490.689 171.875 486.095 175.098 480.898 177.202L480.883 177.208L480.869 177.214C475.539 179.569 469.831 180.688 463.985 180.688H447.062V180.561H446.062ZM455.613 163.892V164.892H456.613H463.985C479.289 164.892 491.679 152.362 491.679 137.071C491.679 121.773 479.283 109.377 463.985 109.377H456.613H455.613V110.377V163.892Z" stroke="#0A0A0A" stroke-width="2"/>
<path d="M405.473 142.41V93.5806H421.269V180.688H417.991L368.203 129.004L366.483 127.219V129.698V180.688H350.687V93.5806H354.862L403.762 143.112L405.473 144.846V142.41Z" stroke="#0A0A0A" stroke-width="2"/>
<path d="M291.636 164.892H331.821V180.688H274.84V93.5806H332.203V109.377H291.636H290.636V110.377V126.775V127.775H291.636H324.957V143.571H291.636H290.636V144.571V163.892V164.892H291.636Z" stroke="#0A0A0A" stroke-width="2"/>
<path d="M207.515 155.121V148.494H220.134V180.688H207.846L207.514 174.39L207.331 170.915L205.641 173.957C204.188 176.573 201.493 178.709 198.364 180.197C195.241 181.682 191.796 182.468 188.973 182.468C180.946 182.468 173.558 180.258 168.199 175.922C162.867 171.607 159.466 165.129 159.466 156.392C159.466 145.477 164.963 138.63 170.628 134.443L171.585 133.735L170.723 132.914C165.724 128.16 163.534 122.709 163.534 115.588C163.534 101.747 174.678 92.3094 188.719 92.3094C202.433 92.3094 213.488 101.186 214.013 114.588H201.374C201.098 111.209 199.423 108.811 197.129 107.26C194.661 105.592 191.524 104.928 188.719 104.928C185.682 104.928 182.571 105.802 180.193 107.573C177.79 109.362 176.152 112.063 176.152 115.588C176.152 121.599 180.04 125.469 185.229 127.783C190.115 129.961 196.315 130.853 202.083 130.945V142.164C196.331 142.063 190.903 141.11 185.878 140.034L185.593 139.973L185.321 140.074C179.016 142.414 175.647 145.298 173.89 148.291C172.139 151.274 172.084 154.215 172.084 156.392C172.084 160.786 173.685 164.33 176.682 166.752C179.65 169.15 183.873 170.358 188.973 170.358C194.269 170.358 198.886 168.214 202.176 165.274C205.441 162.357 207.515 158.547 207.515 155.121Z" stroke="#0A0A0A" stroke-width="2"/>
<path d="M75.7187 143.114L75.6597 143.094L75.5986 143.082L74.9914 142.96L74.9291 142.944C71.985 142.176 66.7299 140.806 61.8522 137.513L61.8522 137.513L61.844 137.508C54.989 132.979 51.2182 126.406 50.8513 118.213L50.8514 118.213L50.8509 118.204C50.4837 111.351 52.6801 105.394 57.0583 100.771C63.4213 94.1657 72.6535 92.3094 77.055 92.3094C89.7024 92.3094 96.7402 96.8634 103.182 101.031L103.203 101.045L103.206 101.047L105.312 102.42L97.074 115.849L94.7572 114.367L94.7546 114.365L94.5812 114.253C91.8157 112.471 89.4281 110.932 86.7762 109.848C84.0382 108.73 81.048 108.106 77.055 108.106C76.3355 108.106 74.8231 108.361 73.2214 108.906C71.6183 109.451 69.7624 110.34 68.4571 111.713C67.4857 112.689 66.5131 114.364 66.6491 117.531C66.7221 120.094 67.6741 122.152 69.7409 123.806C71.7419 125.406 74.7439 126.592 78.8463 127.618C79.8208 127.861 80.5508 128.104 81.3107 128.357C89.7194 131.245 96.1651 135.109 100.595 139.906C105.019 144.823 107.325 150.562 107.325 156.647C107.325 162.602 104.766 168.853 100.463 173.648L100.46 173.65C95.4373 179.286 88.4629 182.468 80.7413 182.468C76.8534 182.468 71.6245 182.217 65.4013 180.352C57.8617 177.957 51.1264 173.837 45.2982 167.869L56.8088 157.036C66.3316 166.671 76.8277 166.672 80.7413 166.672C84.7803 166.672 87.5041 164.808 89.1908 162.629C90.8389 160.501 91.5292 158.033 91.5292 156.647C91.5292 153.823 89.9286 151.249 87.2779 149.031C84.6236 146.811 80.8126 144.855 76.1078 143.243L76.1078 143.243L76.1001 143.241L75.7187 143.114Z" stroke="#0A0A0A" stroke-width="2"/>
<path d="M-27.3931 180.561H-33.6387V93.5806H-9.46987C-3.62544 93.5806 2.08886 94.6992 7.42773 96.9335C12.6492 99.1718 17.2446 102.278 21.2205 106.253C25.3265 110.359 28.4267 114.951 30.5343 120.158L30.5402 120.173L30.5465 120.187C32.9014 125.517 34.0205 131.225 34.0205 137.071C34.0205 143.045 32.9009 148.753 30.5465 154.082L30.5402 154.096L30.5343 154.11C28.4263 159.318 25.3278 163.905 21.2315 167.878L21.2259 167.883L21.2205 167.888C17.2338 171.875 12.6403 175.098 7.44261 177.202L7.42803 177.208L7.41364 177.214C2.08414 179.569 -3.62428 180.688 -9.46987 180.688H-26.3931V180.561H-27.3931ZM-17.8425 163.892V164.892H-16.8425H-9.46987C5.83396 164.892 18.2243 152.362 18.2243 137.071C18.2243 121.773 5.82779 109.377 -9.46987 109.377H-16.8425H-17.8425V110.377V163.892Z" stroke="#0A0A0A" stroke-width="2"/>
<path d="M1392.47 144.062L1391.84 143.935C1388.92 143.172 1383.45 141.774 1378.36 138.342C1371.25 133.639 1367.31 126.775 1366.92 118.258C1366.54 111.139 1368.83 104.911 1373.41 100.08C1380.02 93.2162 1389.55 91.3094 1394.13 91.3094C1407.09 91.3094 1414.34 96.0127 1420.82 100.208L1423.75 102.114L1414.47 117.241L1411.29 115.207C1405.57 111.521 1401.88 109.106 1394.13 109.106C1392.98 109.106 1388.53 109.995 1386.25 112.411C1385.48 113.173 1384.59 114.572 1384.72 117.495C1384.85 122.071 1388.03 124.614 1396.16 126.647C1397.18 126.902 1397.94 127.156 1398.7 127.41C1407.22 130.334 1413.83 134.274 1418.41 139.232C1422.98 144.316 1425.4 150.291 1425.4 156.647C1425.4 162.875 1422.73 169.358 1418.28 174.316C1413.07 180.163 1405.82 183.468 1397.81 183.468C1393.87 183.468 1388.53 183.214 1382.18 181.307C1374.17 178.765 1367.05 174.316 1360.95 167.833L1373.92 155.63C1383.32 165.672 1393.87 165.672 1397.81 165.672C1405.19 165.672 1407.6 158.935 1407.6 156.647C1407.6 151.816 1402.14 147.367 1392.86 144.189L1392.47 144.062Z" fill="#2D6CFF"/>
<path d="M1282.43 92.5806H1307.6C1313.58 92.5806 1319.43 93.7246 1324.89 96.0127C1330.23 98.3008 1334.93 101.479 1339 105.546C1343.2 109.741 1346.37 114.444 1348.53 119.783C1350.95 125.249 1352.09 131.096 1352.09 137.071C1352.09 143.172 1350.95 149.02 1348.53 154.486C1346.37 159.825 1343.2 164.528 1339 168.595C1334.93 172.663 1330.23 175.968 1324.89 178.129C1319.43 180.544 1313.58 181.688 1307.6 181.688H1289.68V181.561H1282.43V92.5806ZM1300.23 163.892H1307.6C1322.35 163.892 1334.3 151.816 1334.3 137.071C1334.3 122.326 1322.35 110.377 1307.6 110.377H1300.23V163.892Z" fill="#2D6CFF"/>
<path d="M1261.18 181.688L1211.1 129.698V181.688H1193.3V92.5806H1198.9L1248.09 142.41V92.5806H1265.89V181.688H1261.18Z" fill="#2D6CFF"/>
<path d="M1176.82 92.5806V110.377H1135.25V126.775H1169.58V144.571H1135.25V163.892H1176.44V181.688H1117.46V92.5806H1176.82Z" fill="#2D6CFF"/>
<path d="M1050.51 181.688L1050.13 174.443C1046.96 180.163 1038.57 183.468 1032.59 183.468C1016.19 183.468 1002.08 174.443 1002.08 156.392C1002.08 145.079 1007.8 137.961 1013.65 133.639C1008.44 128.681 1006.15 122.961 1006.15 115.588C1006.15 101.097 1017.85 91.3094 1032.34 91.3094C1046.83 91.3094 1058.65 100.97 1058.65 115.588H1044.03C1044.03 108.47 1037.68 105.928 1032.34 105.928C1026.62 105.928 1020.77 109.233 1020.77 115.588C1020.77 126.52 1034.75 129.952 1046.7 129.952V143.172C1040.47 143.172 1034.63 142.156 1029.29 141.012C1016.96 145.588 1016.7 152.071 1016.7 156.392C1016.7 164.655 1022.68 169.358 1032.59 169.358C1042.63 169.358 1050.13 161.223 1050.13 155.121V147.494H1064.75V181.688H1050.51Z" fill="#2D6CFF"/>
<path d="M919.021 144.062L918.385 143.935C915.461 143.172 909.995 141.774 904.911 138.342C897.792 133.639 893.852 126.775 893.47 118.258C893.089 111.139 895.377 104.911 899.953 100.08C906.563 93.2162 916.097 91.3094 920.673 91.3094C933.639 91.3094 940.884 96.0127 947.367 100.208L950.291 102.114L941.012 117.241L937.834 115.207C932.114 111.521 928.427 109.106 920.673 109.106C919.529 109.106 915.08 109.995 912.792 112.411C912.029 113.173 911.14 114.572 911.267 117.495C911.394 122.071 914.572 124.614 922.707 126.647C923.724 126.902 924.487 127.156 925.249 127.41C933.766 130.334 940.376 134.274 944.952 139.232C949.528 144.316 951.944 150.291 951.944 156.647C951.944 162.875 949.274 169.358 944.825 174.316C939.613 180.163 932.368 183.468 924.36 183.468C920.419 183.468 915.08 183.214 908.724 181.307C900.716 178.765 893.598 174.316 887.496 167.833L900.462 155.63C909.868 165.672 920.419 165.672 924.36 165.672C931.732 165.672 934.147 158.935 934.147 156.647C934.147 151.816 928.681 147.367 919.402 144.189L919.021 144.062Z" fill="#2D6CFF"/>
<path d="M808.979 92.5806H834.148C840.123 92.5806 845.97 93.7246 851.436 96.0127C856.775 98.3008 861.478 101.479 865.546 105.546C869.741 109.741 872.918 114.444 875.079 119.783C877.495 125.249 878.639 131.096 878.639 137.071C878.639 143.172 877.495 149.02 875.079 154.486C872.918 159.825 869.741 164.528 865.546 168.595C861.478 172.663 856.775 175.968 851.436 178.129C845.97 180.544 840.123 181.688 834.148 181.688H816.225V181.561H808.979V92.5806ZM826.776 163.892H834.148C848.894 163.892 860.842 151.816 860.842 137.071C860.842 122.326 848.894 110.377 834.148 110.377H826.776V163.892Z" fill="#2D6CFF"/>
<path d="M722.829 92.5806H747.998C753.972 92.5806 759.82 93.7246 765.286 96.0127C770.624 98.3008 775.328 101.479 779.395 105.546C783.59 109.741 786.768 114.444 788.929 119.783C791.344 125.249 792.488 131.096 792.488 137.071C792.488 143.172 791.344 149.02 788.929 154.486C786.768 159.825 783.59 164.528 779.395 168.595C775.328 172.663 770.624 175.968 765.286 178.129C759.82 180.544 753.972 181.688 747.998 181.688H730.075V181.561H722.829V92.5806ZM740.625 163.892H747.998C762.743 163.892 774.692 151.816 774.692 137.071C774.692 122.326 762.743 110.377 747.998 110.377H740.625V163.892Z" fill="#2D6CFF"/>
<path d="M663.922 90.928C689.345 90.928 710.065 111.648 710.065 137.071C710.065 162.494 689.345 183.214 663.922 183.214C638.499 183.214 617.779 162.494 617.779 137.071C617.779 111.648 638.499 90.928 663.922 90.928ZM663.922 109.233C648.541 109.233 636.084 121.69 636.084 137.071C636.084 152.452 648.541 164.909 663.922 164.909C679.303 164.909 691.76 152.452 691.76 137.071C691.76 121.69 679.303 109.233 663.922 109.233Z" fill="#2D6CFF"/>
<path d="M1659.84 180.561H1653.6V93.5806H1677.77C1683.61 93.5806 1689.33 94.6992 1694.67 96.9335C1699.89 99.1718 1704.48 102.278 1708.46 106.253C1712.56 110.359 1715.66 114.951 1717.77 120.158L1717.78 120.173L1717.78 120.187C1720.14 125.517 1721.26 131.225 1721.26 137.071C1721.26 143.045 1720.14 148.753 1717.78 154.082L1717.78 154.096L1717.77 154.11C1715.66 159.318 1712.57 163.905 1708.47 167.878L1708.46 167.883L1708.46 167.888C1704.47 171.875 1699.88 175.098 1694.68 177.202L1694.67 177.208L1694.65 177.214C1689.32 179.569 1683.61 180.688 1677.77 180.688H1660.84V180.561H1659.84ZM1669.39 163.892V164.892H1670.39H1677.77C1693.07 164.892 1705.46 152.362 1705.46 137.071C1705.46 121.773 1693.07 109.377 1677.77 109.377H1670.39H1669.39V110.377V163.892Z" stroke="#0A0A0A" stroke-width="2"/>
<path d="M1573.69 180.561H1567.45V93.5806H1591.62C1597.46 93.5806 1603.18 94.6992 1608.51 96.9335C1613.74 99.1718 1618.33 102.278 1622.31 106.253C1626.41 110.359 1629.51 114.951 1631.62 120.158L1631.63 120.173L1631.63 120.187C1633.99 125.517 1635.11 131.225 1635.11 137.071C1635.11 143.045 1633.99 148.753 1631.63 154.082L1631.63 154.096L1631.62 154.11C1629.51 159.318 1626.41 163.905 1622.32 167.878L1622.31 167.883L1622.31 167.888C1618.32 171.875 1613.73 175.098 1608.53 177.202L1608.51 177.208L1608.5 177.214C1603.17 179.569 1597.46 180.688 1591.62 180.688H1574.69V180.561H1573.69ZM1583.24 163.892V164.892H1584.24H1591.62C1606.92 164.892 1619.31 152.362 1619.31 137.071C1619.31 121.773 1606.91 109.377 1591.62 109.377H1584.24H1583.24V110.377V163.892Z" stroke="#0A0A0A" stroke-width="2"/>
<path d="M1507.54 91.928C1532.41 91.928 1552.68 112.2 1552.68 137.071C1552.68 161.942 1532.41 182.214 1507.54 182.214C1482.67 182.214 1462.4 161.942 1462.4 137.071C1462.4 112.2 1482.67 91.928 1507.54 91.928ZM1507.54 108.233C1491.61 108.233 1478.7 121.138 1478.7 137.071C1478.7 153.004 1491.61 165.909 1507.54 165.909C1523.47 165.909 1536.38 153.004 1536.38 137.071C1536.38 121.138 1523.47 108.233 1507.54 108.233Z" stroke="#0A0A0A" stroke-width="2"/>
</g>
<defs>
<clipPath id="clip0_2150_864">
<rect width="1728" height="190" fill="white"/>
</clipPath>
</defs>
</svg>
