<svg width="16" height="16" viewBox="0 0 16 16" fill="none" xmlns="http://www.w3.org/2000/svg">
<path d="M1 4H3.16788C3.68248 4 4.18613 4.10271 4.65693 4.30813C5.11679 4.51355 5.5219 4.79886 5.87226 5.16405C6.23358 5.54066 6.5073 5.96291 6.69343 6.44223C6.90146 6.93295 7 7.45792 7 7.99429C7 8.54208 6.90146 9.06705 6.69343 9.55777C6.5073 10.0371 6.23358 10.4593 5.87226 10.8245C5.5219 11.1897 5.11679 11.4864 4.65693 11.6805C4.18613 11.8973 3.68248 12 3.16788 12H1.62409V11.9886H1V4ZM2.53285 10.4023H3.16788C4.43796 10.4023 5.46715 9.31812 5.46715 7.99429C5.46715 6.67047 4.43796 5.59772 3.16788 5.59772H2.53285V10.4023Z" fill="var(--color-accent-2)"/>
<path d="M14.5464 12L9.71629 7.33238V12H8V4H8.5394L13.2837 8.47361V4H15V12H14.5464Z" fill="var(--color-accent-2)"/>
</svg>
