<svg width="1728" height="184" viewBox="0 0 1728 184" fill="none" xmlns="http://www.w3.org/2000/svg">
<g clip-path="url(#clip0_2150_1010)">
<path d="M-21.4973 -35.336L-61.6694 52.392H-64.736L-79.4454 20.0817L-80.3516 18.091L-81.2643 20.0787L-96.1007 52.392H-99.1687L-139.216 -35.336H-121.564L-97.8989 14.5248L-97.0409 16.3325L-96.1102 14.5611L-88.1742 -0.542866L-87.9384 -0.991814L-88.1612 -1.44738L-104.737 -35.336H-87.135L-64.1088 13.7527L-63.206 15.6775L-62.299 13.7546L-39.1455 -35.336H-21.4973ZM103.994 17.424V52.264H88.0735V-35.464H120.866C135.155 -35.464 146.746 -23.7579 146.746 -9.456C146.746 1.0201 140.586 10.014 131.59 14.0808L130.67 14.4966L131.094 15.4124L148.228 52.392H131.359L114.86 17.0015L114.591 16.424H113.954H104.994H103.994V17.424ZM103.994 -0.495998V0.504002H104.994H120.866C126.41 0.504002 130.826 -3.91171 130.826 -9.456C130.826 -14.9817 126.428 -19.544 120.866 -19.544H104.994H103.994V-18.544V-0.495998ZM180.149 19.344V52.264H164.229V-35.336H180.149V-7.408V-4.81715L181.889 -6.73614L207.832 -35.336H229.345L199.475 -1.93055L198.988 -1.38588L199.359 -0.756359L230.599 52.264H211.559L188.933 11.8158L188.282 10.6512L187.347 11.6034L180.435 18.6434L180.149 18.9352V19.344ZM-18.9265 8.464C-18.9265 -16.5837 1.48981 -37 26.5375 -37C51.5852 -37 72.0015 -16.5837 72.0015 8.464C72.0015 33.5117 51.5852 53.928 26.5375 53.928C1.48981 53.928 -18.9265 33.5117 -18.9265 8.464ZM55.5695 8.464C55.5695 -7.57628 42.5778 -20.568 26.5375 -20.568C10.4972 -20.568 -2.49448 -7.57628 -2.49448 8.464C-2.49448 24.5043 10.4972 37.496 26.5375 37.496C42.5778 37.496 55.5695 24.5043 55.5695 8.464Z" stroke="#0A0A0A" stroke-width="2"/>
<path d="M387.623 -35.336L347.451 52.392H344.384L329.675 20.0817L328.769 18.091L327.856 20.0787L313.019 52.392H309.951L269.904 -35.336H287.556L311.221 14.5248L312.079 16.3325L313.01 14.5611L320.946 -0.542866L321.182 -0.991814L320.959 -1.44738L304.383 -35.336H321.985L345.011 13.7527L345.914 15.6775L346.821 13.7546L369.975 -35.336H387.623ZM513.114 17.424V52.264H497.194V-35.464H529.986C544.275 -35.464 555.866 -23.7579 555.866 -9.456C555.866 1.0201 549.706 10.014 540.71 14.0808L539.79 14.4966L540.214 15.4124L557.348 52.392H540.479L523.98 17.0015L523.711 16.424H523.074H514.114H513.114V17.424ZM513.114 -0.495998V0.504002H514.114H529.986C535.53 0.504002 539.946 -3.91171 539.946 -9.456C539.946 -14.9817 535.548 -19.544 529.986 -19.544H514.114H513.114V-18.544V-0.495998ZM589.269 19.344V52.264H573.349V-35.336H589.269V-7.408V-4.81715L591.009 -6.73614L616.952 -35.336H638.465L608.595 -1.93055L608.108 -1.38588L608.479 -0.756359L639.719 52.264H620.679L598.053 11.8158L597.402 10.6512L596.467 11.6034L589.555 18.6434L589.269 18.9352V19.344ZM390.194 8.464C390.194 -16.5837 410.61 -37 435.658 -37C460.705 -37 481.122 -16.5837 481.122 8.464C481.122 33.5117 460.705 53.928 435.658 53.928C410.61 53.928 390.194 33.5117 390.194 8.464ZM464.69 8.464C464.69 -7.57628 451.698 -20.568 435.658 -20.568C419.617 -20.568 406.626 -7.57628 406.626 8.464C406.626 24.5043 419.617 37.496 435.658 37.496C451.698 37.496 464.69 24.5043 464.69 8.464Z" stroke="#0A0A0A" stroke-width="2"/>
<path d="M796.743 -35.336L756.571 52.392H753.504L738.795 20.0817L737.889 18.091L736.976 20.0787L722.14 52.392H719.072L679.025 -35.336H696.676L720.341 14.5248L721.199 16.3325L722.13 14.5611L730.066 -0.542866L730.302 -0.991814L730.079 -1.44738L713.503 -35.336H731.105L754.131 13.7527L755.034 15.6775L755.941 13.7546L779.095 -35.336H796.743ZM922.234 17.424V52.264H906.314V-35.464H939.106C953.395 -35.464 964.986 -23.7579 964.986 -9.456C964.986 1.0201 958.826 10.014 949.83 14.0808L948.91 14.4966L949.334 15.4124L966.468 52.392H949.599L933.1 17.0015L932.831 16.424H932.194H923.234H922.234V17.424ZM922.234 -0.495998V0.504002H923.234H939.106C944.65 0.504002 949.066 -3.91171 949.066 -9.456C949.066 -14.9817 944.668 -19.544 939.106 -19.544H923.234H922.234V-18.544V-0.495998ZM998.389 19.344V52.264H982.469V-35.336H998.389V-7.408V-4.81715L1000.13 -6.73614L1026.07 -35.336H1047.59L1017.72 -1.93055L1017.23 -1.38588L1017.6 -0.756359L1048.84 52.264H1029.8L1007.17 11.8158L1006.52 10.6512L1005.59 11.6034L998.675 18.6434L998.389 18.9352V19.344ZM799.314 8.464C799.314 -16.5837 819.73 -37 844.778 -37C869.825 -37 890.242 -16.5837 890.242 8.464C890.242 33.5117 869.825 53.928 844.778 53.928C819.73 53.928 799.314 33.5117 799.314 8.464ZM873.81 8.464C873.81 -7.57628 860.818 -20.568 844.778 -20.568C828.737 -20.568 815.746 -7.57628 815.746 8.464C815.746 24.5043 828.737 37.496 844.778 37.496C860.818 37.496 873.81 24.5043 873.81 8.464Z" stroke="#0A0A0A" stroke-width="2"/>
<path d="M1205.86 -35.336L1165.69 52.392H1162.62L1147.91 20.0817L1147.01 18.091L1146.1 20.0787L1131.26 52.392H1128.19L1088.14 -35.336H1105.8L1129.46 14.5248L1130.32 16.3325L1131.25 14.5611L1139.19 -0.542866L1139.42 -0.991814L1139.2 -1.44738L1122.62 -35.336H1140.22L1163.25 13.7527L1164.15 15.6775L1165.06 13.7546L1188.21 -35.336H1205.86ZM1331.35 17.424V52.264H1315.43V-35.464H1348.22C1362.51 -35.464 1374.1 -23.7579 1374.1 -9.456C1374.1 1.0201 1367.95 10.014 1358.95 14.0808L1358.03 14.4966L1358.45 15.4124L1375.59 52.392H1358.72L1342.22 17.0015L1341.95 16.424H1341.31H1332.35H1331.35V17.424ZM1331.35 -0.495998V0.504002H1332.35H1348.22C1353.77 0.504002 1358.18 -3.91171 1358.18 -9.456C1358.18 -14.9817 1353.79 -19.544 1348.22 -19.544H1332.35H1331.35V-18.544V-0.495998ZM1407.51 19.344V52.264H1391.59V-35.336H1407.51V-7.408V-4.81715L1409.25 -6.73614L1435.19 -35.336H1456.7L1426.83 -1.93055L1426.35 -1.38588L1426.72 -0.756359L1457.96 52.264H1438.92L1416.29 11.8158L1415.64 10.6512L1414.71 11.6034L1407.79 18.6434L1407.51 18.9352V19.344ZM1208.43 8.464C1208.43 -16.5837 1228.85 -37 1253.9 -37C1278.94 -37 1299.36 -16.5837 1299.36 8.464C1299.36 33.5117 1278.94 53.928 1253.9 53.928C1228.85 53.928 1208.43 33.5117 1208.43 8.464ZM1282.93 8.464C1282.93 -7.57628 1269.94 -20.568 1253.9 -20.568C1237.86 -20.568 1224.86 -7.57628 1224.86 8.464C1224.86 24.5043 1237.86 37.496 1253.9 37.496C1269.94 37.496 1282.93 24.5043 1282.93 8.464Z" stroke="#0A0A0A" stroke-width="2"/>
<path d="M1614.98 -35.336L1574.81 52.392H1571.74L1557.03 20.0817L1556.13 18.091L1555.22 20.0787L1540.38 52.392H1537.31L1497.26 -35.336H1514.92L1538.58 14.5248L1539.44 16.3325L1540.37 14.5611L1548.31 -0.542866L1548.54 -0.991814L1548.32 -1.44738L1531.74 -35.336H1549.34L1572.37 13.7527L1573.27 15.6775L1574.18 13.7546L1597.33 -35.336H1614.98ZM1740.47 17.424V52.264H1724.55V-35.464H1757.35C1771.63 -35.464 1783.23 -23.7579 1783.23 -9.456C1783.23 1.0201 1777.07 10.014 1768.07 14.0808L1767.15 14.4966L1767.57 15.4124L1784.71 52.392H1767.84L1751.34 17.0015L1751.07 16.424H1750.43H1741.47H1740.47V17.424ZM1740.47 -0.495998V0.504002H1741.47H1757.35C1762.89 0.504002 1767.31 -3.91171 1767.31 -9.456C1767.31 -14.9817 1762.91 -19.544 1757.35 -19.544H1741.47H1740.47V-18.544V-0.495998ZM1816.63 19.344V52.264H1800.71V-35.336H1816.63V-7.408V-4.81715L1818.37 -6.73614L1844.31 -35.336H1865.82L1835.95 -1.93055L1835.47 -1.38588L1835.84 -0.756359L1867.08 52.264H1848.04L1825.41 11.8158L1824.76 10.6512L1823.83 11.6034L1816.91 18.6434L1816.63 18.9352V19.344ZM1617.55 8.464C1617.55 -16.5837 1637.97 -37 1663.02 -37C1688.06 -37 1708.48 -16.5837 1708.48 8.464C1708.48 33.5117 1688.06 53.928 1663.02 53.928C1637.97 53.928 1617.55 33.5117 1617.55 8.464ZM1692.05 8.464C1692.05 -7.57628 1679.06 -20.568 1663.02 -20.568C1646.98 -20.568 1633.99 -7.57628 1633.99 8.464C1633.99 24.5043 1646.98 37.496 1663.02 37.496C1679.06 37.496 1692.05 24.5043 1692.05 8.464Z" stroke="#0A0A0A" stroke-width="2"/>
<path d="M-80.6057 93.592L-120.778 181.32H-123.844L-138.554 149.01L-139.46 147.019L-140.373 149.007L-155.209 181.32H-158.277L-198.324 93.592H-180.672L-157.007 143.453L-156.149 145.26L-155.219 143.489L-147.283 128.385L-147.047 127.936L-147.27 127.481L-163.846 93.592H-146.243L-123.217 142.681L-122.314 144.605L-121.407 142.683L-98.2539 93.592H-80.6057ZM44.8851 146.352V181.192H28.9651V93.464H61.7571C76.0467 93.464 87.6371 105.17 87.6371 119.472C87.6371 129.948 81.4773 138.942 72.4812 143.009L71.5615 143.425L71.9858 144.34L89.1197 181.32H72.2502L55.7515 145.929L55.4823 145.352H54.8451H45.8851H44.8851V146.352ZM44.8851 128.432V129.432H45.8851H61.7571C67.3014 129.432 71.7171 125.016 71.7171 119.472C71.7171 113.946 67.3198 109.384 61.7571 109.384H45.8851H44.8851V110.384V128.432ZM121.04 148.272V181.192H105.12V93.592H121.04V121.52V124.111L122.781 122.192L148.723 93.592H170.236L140.367 126.997L139.88 127.542L140.251 128.172L171.49 181.192H152.451L129.825 140.744L129.173 139.579L128.239 140.531L121.327 147.571L121.04 147.863V148.272ZM-78.0349 137.392C-78.0349 112.344 -57.6186 91.928 -32.5709 91.928C-7.52316 91.928 12.8931 112.344 12.8931 137.392C12.8931 162.44 -7.52316 182.856 -32.5709 182.856C-57.6186 182.856 -78.0349 162.44 -78.0349 137.392ZM-3.53888 137.392C-3.53888 121.352 -16.5306 108.36 -32.5709 108.36C-48.6112 108.36 -61.6029 121.352 -61.6029 137.392C-61.6029 153.432 -48.6112 166.424 -32.5709 166.424C-16.5306 166.424 -3.53888 153.432 -3.53888 137.392Z" stroke="#0A0A0A" stroke-width="2"/>
<path d="M328.514 93.592L288.342 181.32H285.276L270.566 149.01L269.66 147.019L268.747 149.007L253.911 181.32H250.843L210.796 93.592H228.448L252.113 143.453L252.971 145.26L253.901 143.489L261.837 128.385L262.073 127.936L261.851 127.481L245.275 93.592H262.877L285.903 142.681L286.806 144.605L287.713 142.683L310.866 93.592H328.514ZM454.005 146.352V181.192H438.085V93.464H470.877C485.167 93.464 496.757 105.17 496.757 119.472C496.757 129.948 490.597 138.942 481.601 143.009L480.682 143.425L481.106 144.34L498.24 181.32H481.37L464.872 145.929L464.602 145.352H463.965H455.005H454.005V146.352ZM454.005 128.432V129.432H455.005H470.877C476.422 129.432 480.837 125.016 480.837 119.472C480.837 113.946 476.44 109.384 470.877 109.384H455.005H454.005V110.384V128.432ZM530.16 148.272V181.192H514.24V93.592H530.16V121.52V124.111L531.901 122.192L557.843 93.592H579.357L549.487 126.997L549 127.542L549.371 128.172L580.61 181.192H561.571L538.945 140.744L538.294 139.579L537.359 140.531L530.447 147.571L530.16 147.863V148.272ZM331.085 137.392C331.085 112.344 351.502 91.928 376.549 91.928C401.597 91.928 422.013 112.344 422.013 137.392C422.013 162.44 401.597 182.856 376.549 182.856C351.502 182.856 331.085 162.44 331.085 137.392ZM405.581 137.392C405.581 121.352 392.59 108.36 376.549 108.36C360.509 108.36 347.517 121.352 347.517 137.392C347.517 153.432 360.509 166.424 376.549 166.424C392.59 166.424 405.581 153.432 405.581 137.392Z" stroke="#0A0A0A" stroke-width="2"/>
<path d="M719.352 92.592L695.928 142.256L672.632 92.592H652.792L670.072 127.92L662.136 143.024L638.2 92.592H618.36L659.32 182.32H663.672L678.776 149.424L693.752 182.32H698.104L739.192 92.592H719.352Z" fill="#FF6262"/>
<path d="M785.669 90.928C760.069 90.928 739.205 111.792 739.205 137.392C739.205 162.992 760.069 183.856 785.669 183.856C811.269 183.856 832.133 162.992 832.133 137.392C832.133 111.792 811.269 90.928 785.669 90.928ZM785.669 109.36C801.157 109.36 813.701 121.904 813.701 137.392C813.701 152.88 801.157 165.424 785.669 165.424C770.181 165.424 757.637 152.88 757.637 137.392C757.637 121.904 770.181 109.36 785.669 109.36Z" fill="#FF6262"/>
<path d="M908.925 182.32L891.133 143.92C900.477 139.696 906.877 130.352 906.877 119.472C906.877 104.624 894.845 92.464 879.997 92.464H846.205V182.192H864.125V146.352H873.085L889.853 182.32H908.925ZM879.997 110.384C884.989 110.384 888.957 114.48 888.957 119.472C888.957 124.464 884.989 128.432 879.997 128.432H864.125V110.384H879.997Z" fill="#FF6262"/>
<path d="M970.104 182.192H991.48L959.352 127.664L990.712 92.592H966.52L940.28 121.52V92.592H922.36V182.192H940.28V148.272L947.192 141.232L970.104 182.192Z" fill="#FF6262"/>
<path d="M1146.75 93.592L1106.58 181.32H1103.52L1088.81 149.01L1087.9 147.019L1086.99 149.007L1072.15 181.32H1069.08L1029.04 93.592H1046.69L1070.35 143.453L1071.21 145.26L1072.14 143.489L1080.08 128.385L1080.31 127.936L1080.09 127.481L1063.51 93.592H1081.12L1104.14 142.681L1105.05 144.605L1105.95 142.683L1129.11 93.592H1146.75ZM1272.25 146.352V181.192H1256.33V93.464H1289.12C1303.41 93.464 1315 105.17 1315 119.472C1315 129.948 1308.84 138.942 1299.84 143.009L1298.92 143.425L1299.35 144.34L1316.48 181.32H1299.61L1283.11 145.929L1282.84 145.352H1282.21H1273.25H1272.25V146.352ZM1272.25 128.432V129.432H1273.25H1289.12C1294.66 129.432 1299.08 125.016 1299.08 119.472C1299.08 113.946 1294.68 109.384 1289.12 109.384H1273.25H1272.25V110.384V128.432ZM1348.4 148.272V181.192H1332.48V93.592H1348.4V121.52V124.111L1350.14 122.192L1376.08 93.592H1397.6L1367.73 126.997L1367.24 127.542L1367.61 128.172L1398.85 181.192H1379.81L1357.19 140.744L1356.53 139.579L1355.6 140.531L1348.69 147.571L1348.4 147.863V148.272ZM1149.33 137.392C1149.33 112.344 1169.74 91.928 1194.79 91.928C1219.84 91.928 1240.25 112.344 1240.25 137.392C1240.25 162.44 1219.84 182.856 1194.79 182.856C1169.74 182.856 1149.33 162.44 1149.33 137.392ZM1223.82 137.392C1223.82 121.352 1210.83 108.36 1194.79 108.36C1178.75 108.36 1165.76 121.352 1165.76 137.392C1165.76 153.432 1178.75 166.424 1194.79 166.424C1210.83 166.424 1223.82 153.432 1223.82 137.392Z" stroke="#0A0A0A" stroke-width="2"/>
<path d="M1555.87 93.592L1515.7 181.32H1512.64L1497.93 149.01L1497.02 147.019L1496.11 149.007L1481.27 181.32H1478.2L1438.16 93.592H1455.81L1479.47 143.453L1480.33 145.26L1481.26 143.489L1489.2 128.385L1489.43 127.936L1489.21 127.481L1472.63 93.592H1490.24L1513.26 142.681L1514.17 144.605L1515.07 142.683L1538.23 93.592H1555.87ZM1681.36 146.352V181.192H1665.44V93.464H1698.24C1712.53 93.464 1724.12 105.17 1724.12 119.472C1724.12 129.948 1717.96 138.942 1708.96 143.009L1708.04 143.425L1708.47 144.34L1725.6 181.32H1708.73L1692.23 145.929L1691.96 145.352H1691.32H1682.36H1681.36V146.352ZM1681.36 128.432V129.432H1682.36H1698.24C1703.78 129.432 1708.2 125.016 1708.2 119.472C1708.2 113.946 1703.8 109.384 1698.24 109.384H1682.36H1681.36V110.384V128.432ZM1757.52 148.272V181.192H1741.6V93.592H1757.52V121.52V124.111L1759.26 122.192L1785.2 93.592H1806.72L1776.85 126.997L1776.36 127.542L1776.73 128.172L1807.97 181.192H1788.93L1766.3 140.744L1765.65 139.579L1764.72 140.531L1757.81 147.571L1757.52 147.863V148.272ZM1558.44 137.392C1558.44 112.344 1578.86 91.928 1603.91 91.928C1628.96 91.928 1649.37 112.344 1649.37 137.392C1649.37 162.44 1628.96 182.856 1603.91 182.856C1578.86 182.856 1558.44 162.44 1558.44 137.392ZM1632.94 137.392C1632.94 121.352 1619.95 108.36 1603.91 108.36C1587.87 108.36 1574.88 121.352 1574.88 137.392C1574.88 153.432 1587.87 166.424 1603.91 166.424C1619.95 166.424 1632.94 153.432 1632.94 137.392Z" stroke="#0A0A0A" stroke-width="2"/>
</g>
<defs>
<clipPath id="clip0_2150_1010">
<rect width="1728" height="184" fill="white"/>
</clipPath>
</defs>
</svg>
