<svg width="1728" height="220" viewBox="0 0 1728 220" fill="none" xmlns="http://www.w3.org/2000/svg">
<g clip-path="url(#clip0_2130_639)">
<path d="M-39.7795 -37.336H-40.4135L-40.6839 -36.7626L-63.201 10.9785L-85.5941 -36.7607L-85.864 -37.336H-86.4995H-106.339H-107.942L-107.238 -35.8966L-90.1806 -1.02418L-96.95 11.8596L-120.028 -36.7648L-120.299 -37.336H-120.931H-140.771H-142.327L-141.681 -35.9207L-100.721 53.8073L-100.454 54.392H-99.8115H-95.4595H-94.8183L-94.5507 53.8093L-80.3594 22.901L-66.2896 53.8063L-66.023 54.392H-65.3795H-61.0275H-60.3855L-60.1183 53.8083L-19.0303 -35.9197L-18.3817 -37.336H-19.9395H-39.7795ZM149.794 54.392H151.359L150.701 52.9716L133.326 15.4708C142.519 10.906 148.746 1.47033 148.746 -9.456C148.746 -24.8501 136.272 -37.464 120.866 -37.464H87.0735H86.0735V-36.464V53.264V54.264H87.0735H104.994H105.994V53.264V18.424H113.316L129.815 53.8145L130.084 54.392H130.722H149.794ZM210.1 53.7522L210.386 54.264H210.973H232.349H234.098L233.21 52.7564L201.453 -1.14212L232.326 -35.6694L233.816 -37.336H231.581H207.389H206.945L206.648 -37.0079L182.149 -9.99886V-36.336V-37.336H181.149H163.229H162.229V-36.336V53.264V54.264H163.229H181.149H182.149V53.264V19.7528L187.839 13.9568L210.1 53.7522ZM26.5375 -39C0.385239 -39 -20.9265 -17.6883 -20.9265 8.464C-20.9265 34.6163 0.385239 55.928 26.5375 55.928C52.6898 55.928 74.0015 34.6163 74.0015 8.464C74.0015 -17.6883 52.6898 -39 26.5375 -39ZM26.5375 -18.568C41.4732 -18.568 53.5695 -6.47171 53.5695 8.464C53.5695 23.3997 41.4732 35.496 26.5375 35.496C11.6018 35.496 -0.494476 23.3997 -0.494476 8.464C-0.494476 -6.47171 11.6018 -18.568 26.5375 -18.568ZM120.866 -17.544C125.287 -17.544 128.826 -13.9143 128.826 -9.456C128.826 -5.01628 125.305 -1.496 120.866 -1.496H105.994V-17.544H120.866Z" stroke="#0A0A0A" stroke-width="2"/>
<path d="M369.34 -37.336H368.706L368.436 -36.7626L345.919 10.9785L323.525 -36.7607L323.256 -37.336H322.62H302.78H301.178L301.882 -35.8966L318.939 -1.02418L312.17 11.8596L289.092 -36.7648L288.82 -37.336H288.188H268.348H266.792L267.438 -35.9207L308.398 53.8073L308.665 54.392H309.308H313.66H314.301L314.569 53.8093L328.76 22.901L342.83 53.8063L343.097 54.392H343.74H348.092H348.734L349.001 53.8083L390.089 -35.9197L390.738 -37.336H389.18H369.34ZM558.913 54.392H560.479L559.82 52.9716L542.445 15.4708C551.639 10.906 557.865 1.47033 557.865 -9.456C557.865 -24.8501 545.392 -37.464 529.985 -37.464H496.193H495.193V-36.464V53.264V54.264H496.193H514.113H515.113V53.264V18.424H522.436L538.935 53.8145L539.204 54.392H539.841H558.913ZM619.219 53.7522L619.506 54.264H620.092H641.468H643.218L642.33 52.7564L610.573 -1.14212L641.446 -35.6694L642.936 -37.336H640.7H616.508H616.065L615.767 -37.0079L591.268 -9.99886V-36.336V-37.336H590.268H572.348H571.348V-36.336V53.264V54.264H572.348H590.268H591.268V53.264V19.7528L596.959 13.9568L619.219 53.7522ZM435.657 -39C409.505 -39 388.193 -17.6883 388.193 8.464C388.193 34.6163 409.505 55.928 435.657 55.928C461.809 55.928 483.121 34.6163 483.121 8.464C483.121 -17.6883 461.809 -39 435.657 -39ZM435.657 -18.568C450.593 -18.568 462.689 -6.47171 462.689 8.464C462.689 23.3997 450.593 35.496 435.657 35.496C420.721 35.496 408.625 23.3997 408.625 8.464C408.625 -6.47171 420.721 -18.568 435.657 -18.568ZM529.985 -17.544C534.406 -17.544 537.945 -13.9143 537.945 -9.456C537.945 -5.01628 534.425 -1.496 529.985 -1.496H515.113V-17.544H529.985Z" stroke="#0A0A0A" stroke-width="2"/>
<path d="M778.46 -37.336H777.826L777.556 -36.7626L755.039 10.9785L732.646 -36.7607L732.376 -37.336H731.74H711.9H710.298L711.002 -35.8966L728.059 -1.02418L721.29 11.8596L698.212 -36.7648L697.941 -37.336H697.308H677.468H675.913L676.559 -35.9207L717.519 53.8073L717.785 54.392H718.428H722.78H723.421L723.689 53.8093L737.88 22.901L751.95 53.8063L752.217 54.392H752.86H757.212H757.854L758.121 53.8083L799.209 -35.9197L799.858 -37.336H798.3H778.46ZM968.033 54.392H969.599L968.941 52.9716L951.565 15.4708C960.759 10.906 966.985 1.47033 966.985 -9.456C966.985 -24.8501 954.512 -37.464 939.105 -37.464H905.313H904.313V-36.464V53.264V54.264H905.313H923.233H924.233V53.264V18.424H931.556L948.055 53.8145L948.324 54.392H948.961H968.033ZM1028.34 53.7522L1028.63 54.264H1029.21H1050.59H1052.34L1051.45 52.7564L1019.69 -1.14212L1050.57 -35.6694L1052.06 -37.336H1049.82H1025.63H1025.19L1024.89 -37.0079L1000.39 -9.99886V-36.336V-37.336H999.388H981.468H980.468V-36.336V53.264V54.264H981.468H999.388H1000.39V53.264V19.7528L1006.08 13.9568L1028.34 53.7522ZM844.777 -39C818.625 -39 797.313 -17.6883 797.313 8.464C797.313 34.6163 818.625 55.928 844.777 55.928C870.93 55.928 892.241 34.6163 892.241 8.464C892.241 -17.6883 870.93 -39 844.777 -39ZM844.777 -18.568C859.713 -18.568 871.809 -6.47171 871.809 8.464C871.809 23.3997 859.713 35.496 844.777 35.496C829.842 35.496 817.745 23.3997 817.745 8.464C817.745 -6.47171 829.842 -18.568 844.777 -18.568ZM939.105 -17.544C943.527 -17.544 947.065 -13.9143 947.065 -9.456C947.065 -5.01628 943.545 -1.496 939.105 -1.496H924.233V-17.544H939.105Z" stroke="#0A0A0A" stroke-width="2"/>
<path d="M1187.58 -37.336H1186.95L1186.68 -36.7626L1164.16 10.9785L1141.77 -36.7607L1141.5 -37.336H1140.86H1121.02H1119.42L1120.12 -35.8966L1137.18 -1.02418L1130.41 11.8596L1107.33 -36.7648L1107.06 -37.336H1106.43H1086.59H1085.03L1085.68 -35.9207L1126.64 53.8073L1126.91 54.392H1127.55H1131.9H1132.54L1132.81 53.8093L1147 22.901L1161.07 53.8063L1161.34 54.392H1161.98H1166.33H1166.97L1167.24 53.8083L1208.33 -35.9197L1208.98 -37.336H1207.42H1187.58ZM1377.15 54.392H1378.72L1378.06 52.9716L1360.69 15.4708C1369.88 10.906 1376.11 1.47033 1376.11 -9.456C1376.11 -24.8501 1363.63 -37.464 1348.23 -37.464H1314.43H1313.43V-36.464V53.264V54.264H1314.43H1332.35H1333.35V53.264V18.424H1340.68L1357.18 53.8145L1357.44 54.392H1358.08H1377.15ZM1437.46 53.7522L1437.75 54.264H1438.33H1459.71H1461.46L1460.57 52.7564L1428.81 -1.14212L1459.69 -35.6694L1461.18 -37.336H1458.94H1434.75H1434.31L1434.01 -37.0079L1409.51 -9.99886V-36.336V-37.336H1408.51H1390.59H1389.59V-36.336V53.264V54.264H1390.59H1408.51H1409.51V53.264V19.7528L1415.2 13.9568L1437.46 53.7522ZM1253.9 -39C1227.75 -39 1206.43 -17.6883 1206.43 8.464C1206.43 34.6163 1227.75 55.928 1253.9 55.928C1280.05 55.928 1301.36 34.6163 1301.36 8.464C1301.36 -17.6883 1280.05 -39 1253.9 -39ZM1253.9 -18.568C1268.83 -18.568 1280.93 -6.47171 1280.93 8.464C1280.93 23.3997 1268.83 35.496 1253.9 35.496C1238.96 35.496 1226.87 23.3997 1226.87 8.464C1226.87 -6.47171 1238.96 -18.568 1253.9 -18.568ZM1348.23 -17.544C1352.65 -17.544 1356.19 -13.9143 1356.19 -9.456C1356.19 -5.01628 1352.67 -1.496 1348.23 -1.496H1333.35V-17.544H1348.23Z" stroke="#0A0A0A" stroke-width="2"/>
<path d="M1596.7 -37.336H1596.07L1595.8 -36.7626L1573.28 10.9785L1550.89 -36.7607L1550.62 -37.336H1549.98H1530.14H1528.54L1529.24 -35.8966L1546.3 -1.02418L1539.53 11.8596L1516.45 -36.7648L1516.18 -37.336H1515.55H1495.71H1494.15L1494.8 -35.9207L1535.76 53.8073L1536.03 54.392H1536.67H1541.02H1541.66L1541.93 53.8093L1556.12 22.901L1570.19 53.8063L1570.46 54.392H1571.1H1575.45H1576.09L1576.36 53.8083L1617.45 -35.9197L1618.1 -37.336H1616.54H1596.7ZM1786.27 54.392H1787.84L1787.18 52.9716L1769.8 15.4708C1779 10.906 1785.23 1.47033 1785.23 -9.456C1785.23 -24.8501 1772.75 -37.464 1757.35 -37.464H1723.55H1722.55V-36.464V53.264V54.264H1723.55H1741.47H1742.47V53.264V18.424H1749.8L1766.29 53.8145L1766.56 54.392H1767.2H1786.27ZM1846.58 53.7522L1846.87 54.264H1847.45H1868.83H1870.58L1869.69 52.7564L1837.93 -1.14212L1868.81 -35.6694L1870.3 -37.336H1868.06H1843.87H1843.42L1843.13 -37.0079L1818.63 -9.99886V-36.336V-37.336H1817.63H1799.71H1798.71V-36.336V53.264V54.264H1799.71H1817.63H1818.63V53.264V19.7528L1824.32 13.9568L1846.58 53.7522ZM1663.02 -39C1636.86 -39 1615.55 -17.6883 1615.55 8.464C1615.55 34.6163 1636.86 55.928 1663.02 55.928C1689.17 55.928 1710.48 34.6163 1710.48 8.464C1710.48 -17.6883 1689.17 -39 1663.02 -39ZM1663.02 -18.568C1677.95 -18.568 1690.05 -6.47171 1690.05 8.464C1690.05 23.3997 1677.95 35.496 1663.02 35.496C1648.08 35.496 1635.99 23.3997 1635.99 8.464C1635.99 -6.47171 1648.08 -18.568 1663.02 -18.568ZM1757.35 -17.544C1761.77 -17.544 1765.31 -13.9143 1765.31 -9.456C1765.31 -5.01628 1761.78 -1.496 1757.35 -1.496H1742.47V-17.544H1757.35Z" stroke="#0A0A0A" stroke-width="2"/>
<path d="M-98.8879 91.592H-99.5219L-99.7923 92.1654L-122.309 139.907L-144.703 92.1673L-144.972 91.592H-145.608H-165.448H-167.05L-166.346 93.0314L-149.289 127.904L-156.058 140.788L-179.136 92.1632L-179.408 91.592H-180.04H-199.88H-201.436L-200.79 93.0072L-159.83 182.735L-159.563 183.32H-158.92H-154.568H-153.927L-153.659 182.737L-139.468 151.829L-125.398 182.734L-125.131 183.32H-124.488H-120.136H-119.494L-119.227 182.736L-78.1387 93.0083L-77.4901 91.592H-79.0479H-98.8879ZM90.6851 183.32H92.2506L91.5925 181.9L74.2171 144.399C83.4111 139.834 89.6371 130.398 89.6371 119.472C89.6371 104.078 77.1636 91.464 61.7571 91.464H27.9651H26.9651V92.464V182.192V183.192H27.9651H45.8851H46.8851V182.192V147.352H54.208L70.7068 182.743L70.976 183.32H71.6131H90.6851ZM150.991 182.68L151.278 183.192H151.864H173.24H174.99L174.102 181.684L142.345 127.786L173.218 93.2585L174.708 91.592H172.472H148.28H147.837L147.539 91.9201L123.04 118.929V92.592V91.592H122.04H104.12H103.12V92.592V182.192V183.192H104.12H122.04H123.04V182.192V148.681L128.731 142.885L150.991 182.68ZM-32.5709 89.928C-58.7232 89.928 -80.0349 111.24 -80.0349 137.392C-80.0349 163.544 -58.7232 184.856 -32.5709 184.856C-6.41859 184.856 14.8931 163.544 14.8931 137.392C14.8931 111.24 -6.41859 89.928 -32.5709 89.928ZM-32.5709 110.36C-17.6352 110.36 -5.53888 122.456 -5.53888 137.392C-5.53888 152.328 -17.6352 164.424 -32.5709 164.424C-47.5066 164.424 -59.6029 152.328 -59.6029 137.392C-59.6029 122.456 -47.5066 110.36 -32.5709 110.36ZM61.7571 111.384C66.1784 111.384 69.7171 115.014 69.7171 119.472C69.7171 123.912 66.1968 127.432 61.7571 127.432H46.8851V111.384H61.7571Z" stroke="#0A0A0A" stroke-width="2"/>
<path d="M310.232 91.592H309.598L309.328 92.1654L286.811 139.907L264.418 92.1673L264.148 91.592H263.512H243.672H242.07L242.774 93.0314L259.831 127.904L253.062 140.788L229.984 92.1632L229.713 91.592H229.08H209.24H207.684L208.331 93.0072L249.291 182.735L249.557 183.32H250.2H254.552H255.193L255.461 182.737L269.652 151.829L283.722 182.734L283.989 183.32H284.632H288.984H289.626L289.893 182.736L330.981 93.0083L331.63 91.592H330.072H310.232ZM499.805 183.32H501.371L500.713 181.9L483.337 144.399C492.531 139.834 498.757 130.398 498.757 119.472C498.757 104.078 486.284 91.464 470.877 91.464H437.085H436.085V92.464V182.192V183.192H437.085H455.005H456.005V182.192V147.352H463.328L479.827 182.743L480.096 183.32H480.733H499.805ZM560.111 182.68L560.398 183.192H560.984H582.36H584.11L583.222 181.684L551.465 127.786L582.338 93.2585L583.828 91.592H581.592H557.4H556.957L556.66 91.9201L532.16 118.929V92.592V91.592H531.16H513.24H512.24V92.592V182.192V183.192H513.24H531.16H532.16V182.192V148.681L537.851 142.885L560.111 182.68ZM376.549 89.928C350.397 89.928 329.085 111.24 329.085 137.392C329.085 163.544 350.397 184.856 376.549 184.856C402.702 184.856 424.013 163.544 424.013 137.392C424.013 111.24 402.702 89.928 376.549 89.928ZM376.549 110.36C391.485 110.36 403.581 122.456 403.581 137.392C403.581 152.328 391.485 164.424 376.549 164.424C361.614 164.424 349.517 152.328 349.517 137.392C349.517 122.456 361.614 110.36 376.549 110.36ZM470.877 111.384C475.299 111.384 478.837 115.014 478.837 119.472C478.837 123.912 475.317 127.432 470.877 127.432H456.005V111.384H470.877Z" stroke="#0A0A0A" stroke-width="2"/>
<path d="M719.352 92.592L695.928 142.256L672.632 92.592H652.792L670.072 127.92L662.136 143.024L638.2 92.592H618.36L659.32 182.32H663.672L678.776 149.424L693.752 182.32H698.104L739.192 92.592H719.352Z" fill="#FF6262"/>
<path d="M785.669 90.928C760.069 90.928 739.205 111.792 739.205 137.392C739.205 162.992 760.069 183.856 785.669 183.856C811.269 183.856 832.133 162.992 832.133 137.392C832.133 111.792 811.269 90.928 785.669 90.928ZM785.669 109.36C801.157 109.36 813.701 121.904 813.701 137.392C813.701 152.88 801.157 165.424 785.669 165.424C770.181 165.424 757.637 152.88 757.637 137.392C757.637 121.904 770.181 109.36 785.669 109.36Z" fill="#FF6262"/>
<path d="M908.925 182.32L891.133 143.92C900.477 139.696 906.877 130.352 906.877 119.472C906.877 104.624 894.845 92.464 879.997 92.464H846.205V182.192H864.125V146.352H873.085L889.853 182.32H908.925ZM879.997 110.384C884.989 110.384 888.957 114.48 888.957 119.472C888.957 124.464 884.989 128.432 879.997 128.432H864.125V110.384H879.997Z" fill="#FF6262"/>
<path d="M970.104 182.192H991.48L959.352 127.664L990.712 92.592H966.52L940.28 121.52V92.592H922.36V182.192H940.28V148.272L947.192 141.232L970.104 182.192Z" fill="#FF6262"/>
<path d="M1128.47 91.592H1127.84L1127.57 92.1654L1105.05 139.907L1082.66 92.1673L1082.39 91.592H1081.75H1061.91H1060.31L1061.01 93.0314L1078.07 127.904L1071.3 140.788L1048.22 92.1632L1047.95 91.592H1047.32H1027.48H1025.92L1026.57 93.0072L1067.53 182.735L1067.8 183.32H1068.44H1072.79H1073.43L1073.7 182.737L1087.89 151.829L1101.96 182.734L1102.23 183.32H1102.87H1107.22H1107.87L1108.13 182.736L1149.22 93.0083L1149.87 91.592H1148.31H1128.47ZM1318.04 183.32H1319.61L1318.95 181.9L1301.58 144.399C1310.77 139.834 1317 130.398 1317 119.472C1317 104.078 1304.52 91.464 1289.12 91.464H1255.32H1254.32V92.464V182.192V183.192H1255.32H1273.24H1274.24V182.192V147.352H1281.57L1298.07 182.743L1298.34 183.32H1298.97H1318.04ZM1378.35 182.68L1378.64 183.192H1379.22H1400.6H1402.35L1401.46 181.684L1369.7 127.786L1400.58 93.2585L1402.07 91.592H1399.83H1375.64H1375.2L1374.9 91.9201L1350.4 118.929V92.592V91.592H1349.4H1331.48H1330.48V92.592V182.192V183.192H1331.48H1349.4H1350.4V182.192V148.681L1356.09 142.885L1378.35 182.68ZM1194.79 89.928C1168.64 89.928 1147.32 111.24 1147.32 137.392C1147.32 163.544 1168.64 184.856 1194.79 184.856C1220.94 184.856 1242.25 163.544 1242.25 137.392C1242.25 111.24 1220.94 89.928 1194.79 89.928ZM1194.79 110.36C1209.72 110.36 1221.82 122.456 1221.82 137.392C1221.82 152.328 1209.72 164.424 1194.79 164.424C1179.85 164.424 1167.76 152.328 1167.76 137.392C1167.76 122.456 1179.85 110.36 1194.79 110.36ZM1289.12 111.384C1293.54 111.384 1297.08 115.014 1297.08 119.472C1297.08 123.912 1293.56 127.432 1289.12 127.432H1274.24V111.384H1289.12Z" stroke="#0A0A0A" stroke-width="2"/>
<path d="M1537.59 91.592H1536.96L1536.69 92.1654L1514.17 139.907L1491.78 92.1673L1491.51 91.592H1490.87H1471.03H1469.43L1470.13 93.0314L1487.19 127.904L1480.42 140.788L1457.34 92.1632L1457.07 91.592H1456.44H1436.6H1435.04L1435.69 93.0072L1476.65 182.735L1476.92 183.32H1477.56H1481.91H1482.55L1482.82 182.737L1497.01 151.829L1511.08 182.734L1511.35 183.32H1511.99H1516.34H1516.99L1517.25 182.736L1558.34 93.0083L1558.99 91.592H1557.43H1537.59ZM1727.17 183.32H1728.73L1728.07 181.9L1710.7 144.399C1719.89 139.834 1726.12 130.398 1726.12 119.472C1726.12 104.078 1713.64 91.464 1698.24 91.464H1664.45H1663.45V92.464V182.192V183.192H1664.45H1682.37H1683.37V182.192V147.352H1690.69L1707.19 182.743L1707.46 183.32H1708.09H1727.17ZM1787.47 182.68L1787.76 183.192H1788.34H1809.72H1811.47L1810.58 181.684L1778.82 127.786L1809.7 93.2585L1811.19 91.592H1808.95H1784.76H1784.32L1784.02 91.9201L1759.52 118.929V92.592V91.592H1758.52H1740.6H1739.6V92.592V182.192V183.192H1740.6H1758.52H1759.52V182.192V148.681L1765.21 142.885L1787.47 182.68ZM1603.91 89.928C1577.76 89.928 1556.45 111.24 1556.45 137.392C1556.45 163.544 1577.76 184.856 1603.91 184.856C1630.06 184.856 1651.37 163.544 1651.37 137.392C1651.37 111.24 1630.06 89.928 1603.91 89.928ZM1603.91 110.36C1618.84 110.36 1630.94 122.456 1630.94 137.392C1630.94 152.328 1618.84 164.424 1603.91 164.424C1588.97 164.424 1576.88 152.328 1576.88 137.392C1576.88 122.456 1588.97 110.36 1603.91 110.36ZM1698.24 111.384C1702.66 111.384 1706.2 115.014 1706.2 119.472C1706.2 123.912 1702.68 127.432 1698.24 127.432H1683.37V111.384H1698.24Z" stroke="#0A0A0A" stroke-width="2"/>
</g>
<defs>
<clipPath id="clip0_2130_639">
<rect width="1728" height="220" fill="white"/>
</clipPath>
</defs>
</svg>
