<svg width="1728" height="1117" viewBox="0 0 1728 1117" fill="none" xmlns="http://www.w3.org/2000/svg">
<g opacity="0.5" clip-path="url(#clip0_2153_1144)">
<path d="M19.2185 282.1H178.987V348H-48.6816V2H180.485V67.9001H19.2185H17.2185V69.9001V134.308V136.308H19.2185H152.026V202.208H19.2185H17.2185V204.208V280.1V282.1H19.2185Z" stroke="#FEFAE4" stroke-width="4"/>
<path d="M1301.7 282.1H1461.47V348H1233.8V2H1462.97V67.9001H1301.7H1299.7V69.9001V134.308V136.308H1301.7H1434.51V202.208H1301.7H1299.7V204.208V280.1V282.1H1301.7Z" stroke="#FEFAE4" stroke-width="4"/>
<path d="M1007.72 199.548L1098.06 2H1171.07L1015.1 348H996.709L840.244 2H913.252L1004.09 199.552L1005.91 203.514L1007.72 199.548Z" stroke="#FEFAE4" stroke-width="4"/>
<path d="M743.343 2L906.718 348H833.755L803.839 284.243L803.299 283.093H802.028H657.235H656.007L655.452 284.187L623.054 348H549.157L725.365 2H743.343ZM691.399 214.289L689.929 217.193H693.184H769.075H772.219L770.887 214.345L734.439 136.456L732.698 132.737L730.843 136.4L691.399 214.289Z" stroke="#FEFAE4" stroke-width="4"/>
<path d="M290.945 347.501H264.485V2H361.344C384.551 2 407.252 6.44281 428.467 15.3223C449.202 24.21 467.46 36.5479 483.254 52.3414C499.553 68.6402 511.879 86.8913 520.261 107.598L520.272 107.627L520.285 107.656C529.651 128.852 534.094 151.542 534.094 174.75C534.094 198.461 529.65 221.15 520.285 242.344L520.272 242.373L520.261 242.402C511.879 263.11 499.555 281.351 483.276 297.138L483.265 297.148L483.254 297.159C467.439 312.974 449.185 325.792 428.497 334.166L428.468 334.178L428.439 334.191C407.242 343.556 384.553 348 361.344 348H292.945V347.501H290.945ZM330.385 280.1V282.1H332.385H361.344C420.378 282.1 468.194 233.76 468.194 174.75C468.194 115.729 420.366 67.9001 361.344 67.9001H332.385H330.385V69.9001V280.1Z" stroke="#FEFAE4" stroke-width="4"/>
<path d="M1573.43 347.501H1546.97V2H1643.83C1667.04 2 1689.74 6.44281 1710.95 15.3223C1731.69 24.21 1749.95 36.5479 1765.74 52.3414C1782.04 68.6402 1794.36 86.8913 1802.75 107.598L1802.76 107.627L1802.77 107.656C1812.14 128.852 1816.58 151.542 1816.58 174.75C1816.58 198.461 1812.14 221.15 1802.77 242.344L1802.76 242.373L1802.75 242.402C1794.36 263.11 1782.04 281.351 1765.76 297.138L1765.75 297.148L1765.74 297.159C1749.92 312.974 1731.67 325.792 1710.98 334.166L1710.95 334.178L1710.92 334.191C1689.73 343.556 1667.04 348 1643.83 348H1575.43V347.501H1573.43ZM1612.87 280.1V282.1H1614.87H1643.83C1702.86 282.1 1750.68 233.76 1750.68 174.75C1750.68 115.729 1702.85 67.9001 1643.83 67.9001H1614.87H1612.87V69.9001V280.1Z" stroke="#FEFAE4" stroke-width="4"/>
<path d="M1429.64 523.376L1548.87 725.733H1473.03L1387.31 572.487L1386 570.158L1384.13 572.062L1358.1 598.577L1357.53 599.16V599.978V725.733H1294.04V392.267H1357.53V499.221V504.402L1361.01 500.564L1459.24 392.267H1545L1429.87 521.028L1428.9 522.117L1429.64 523.376Z" stroke="#FEFAE4" stroke-width="4"/>
<path d="M1097.65 392.267L1255.33 726.215H1185.03L1156.17 664.693L1155.63 663.543H1154.36H1014.55H1013.32L1012.77 664.638L981.504 726.215H910.305L1080.38 392.267H1097.65ZM1047.48 597.146L1046.01 600.05H1049.26H1122.54H1125.68L1124.35 597.202L1089.16 521.996L1087.42 518.276L1085.56 521.94L1047.48 597.146Z" stroke="#FEFAE4" stroke-width="4"/>
<path d="M797.022 582.973L884.229 392.267H954.573L804.035 726.215H786.37L635.355 392.267H705.698L793.386 582.976L795.208 586.939L797.022 582.973Z" stroke="#FEFAE4" stroke-width="4"/>
<path d="M459.888 386C555.202 386 632.888 463.686 632.888 559C632.888 654.314 555.202 732 459.888 732C364.574 732 286.888 654.314 286.888 559C286.888 463.686 364.574 386 459.888 386ZM459.888 451.421C400.45 451.421 352.309 499.562 352.309 559C352.309 618.438 400.45 666.579 459.888 666.579C519.326 666.579 567.466 618.438 567.466 559C567.466 499.562 519.326 451.421 459.888 451.421Z" stroke="#FEFAE4" stroke-width="4"/>
<path d="M161.465 579.248V392.267H224.958V726.215H209.971L20.6161 529.651L17.1757 526.08V531.039V726.215H-46.3174V392.267H-27.9412L158.042 580.653L161.465 584.121V579.248Z" stroke="#FEFAE4" stroke-width="4"/>
<path d="M1842.15 579.248V392.267H1905.64V726.215H1890.65L1701.3 529.651L1697.86 526.08V531.039V726.215H1634.37V392.267H1652.74L1838.72 580.653L1842.15 584.121V579.248Z" stroke="#FEFAE4" stroke-width="4"/>
<path d="M1673.44 961.069V773.827H1737.03V1108.24H1722.01L1532.4 911.405L1528.96 907.834V912.793V1108.24H1465.37V773.827H1483.78L1670.02 962.474L1673.44 965.941V961.069Z" stroke="#FEFAE4" stroke-width="4"/>
<path d="M1332.7 967.276H1256.49V903.69H1398.77V1108.24H1335.18V1076.45V1072.31L1331.94 1074.88C1292.76 1105.94 1251.71 1114.03 1226.5 1114.03C1130.56 1113.07 1054.23 1036.24 1055.18 940.33C1056.14 845.361 1133.45 769 1228.43 769H1229.86C1269.61 769.47 1305.68 783.224 1334.51 805.779L1288.54 850.836C1271.13 839.14 1250.96 833.065 1229.44 832.587L1229.41 832.586H1229.39H1228.43C1199.42 832.586 1171.88 843.896 1151.23 864.543C1130.58 884.702 1118.77 912.24 1118.77 941.259C1118.28 970.276 1129.6 998.3 1149.75 1018.95L1149.75 1018.95C1170.39 1040.08 1197.94 1051.9 1226.98 1051.9H1228.43C1257.44 1051.9 1284.49 1040.58 1305.13 1020.43C1319.88 1006.17 1329.72 988.953 1334.64 969.773L1335.28 967.276H1332.7Z" stroke="#FEFAE4" stroke-width="4"/>
<path d="M896.6 837.414H862.394V773.827H997.911V837.414H964.187H962.187V839.414V1042.65V1044.65H964.187H997.911V1108.24H862.394V1044.65H896.6H898.6V1042.65V839.414V837.414H896.6Z" stroke="#FEFAE4" stroke-width="4"/>
<path d="M683.033 965.447L682.915 965.408L682.793 965.384L680.436 964.912L680.109 964.827C668.919 961.909 648.715 956.64 629.934 943.963L629.925 943.957L629.917 943.952C603.41 926.438 588.784 900.952 587.364 869.255L587.364 869.247L587.364 869.238C585.944 842.733 594.45 819.622 611.433 801.692C636.043 776.14 671.647 769 688.677 769C737.24 769 764.337 786.533 788.859 802.4L788.964 802.468L788.97 802.472L798.437 808.647L765.279 862.699L754.933 856.077L754.927 856.074L754.338 855.694C743.775 848.886 734.831 843.122 724.916 839.071C714.755 834.92 703.633 832.586 688.677 832.586C686.209 832.586 680.671 833.496 674.696 835.529C668.72 837.562 661.98 840.826 657.312 845.743C653.997 849.067 650.453 854.931 650.954 866.52C651.214 875.759 654.604 883.075 662.022 889.01C669.309 894.84 680.398 899.268 695.916 903.147C699.693 904.092 702.524 905.034 705.415 905.998C737.544 917.028 762.318 931.84 779.405 950.347C796.48 969.322 805.435 991.542 805.435 1015.14C805.435 1038.25 795.517 1062.4 778.912 1080.91L778.908 1080.91C759.492 1102.69 732.517 1115 702.677 1115C687.817 1115 667.761 1114.04 643.888 1106.88C614.411 1097.52 588.141 1081.29 565.511 1057.7L611.839 1014.1C647.802 1051.41 687.765 1051.41 702.677 1051.41C717.382 1051.41 727.229 1044.66 733.344 1036.76C739.383 1028.96 741.849 1019.97 741.849 1015.14C741.849 1005.15 736.191 995.829 726.348 987.595C716.497 979.355 702.248 972.015 684.497 965.935L684.489 965.933L684.482 965.93L683.033 965.447Z" stroke="#FEFAE4" stroke-width="4"/>
<path d="M351.876 1044.65H506.29V1108.24H286.29V773.827H507.738V837.414H351.876H349.876V839.414V901.689V903.689H351.876H480.221V967.276H351.876H349.876V969.276V1042.65V1044.65H351.876Z" stroke="#FEFAE4" stroke-width="4"/>
<path d="M-5.94663 1107.76H-31.4639V773.827H62.1223C84.552 773.827 106.493 778.121 126.997 786.703C147.038 795.294 164.685 807.218 179.95 822.483C195.703 838.236 207.617 855.876 215.717 875.888L215.729 875.917L215.741 875.946C224.793 896.432 229.088 918.361 229.088 940.793C229.088 963.711 224.792 985.639 215.741 1006.12L215.729 1006.15L215.717 1006.18C207.616 1026.19 195.706 1043.82 179.971 1059.08L179.96 1059.09L179.95 1059.1C164.663 1074.39 147.021 1086.78 127.027 1094.87L126.998 1094.88L126.969 1094.89C106.483 1103.95 84.5543 1108.24 62.1223 1108.24H-3.94663V1107.76H-5.94663ZM32.1223 1042.65V1044.65H34.1223H62.1223C119.239 1044.65 165.502 997.885 165.502 940.793C165.502 883.688 119.227 837.414 62.1223 837.414H34.1223H32.1223V839.414V1042.65Z" stroke="#FEFAE4" stroke-width="4"/>
</g>
<defs>
<clipPath id="clip0_2153_1144">
<rect width="1728" height="1117" fill="white"/>
</clipPath>
</defs>
</svg>
