<svg width="1728" height="1117" viewBox="0 0 1728 1117" fill="none" xmlns="http://www.w3.org/2000/svg">
<g opacity="0.1" clip-path="url(#clip0_2160_854)">
<path d="M591.07 114.064H693.064V155H548.134V-66H694.027V-25.0642H591.07H589.07V-23.0642V18.3409V20.3409H591.07H675.731V61.2767H591.07H589.07V63.2767V112.064V114.064H591.07Z" stroke="#0A0A0A" stroke-width="4"/>
<path d="M402.731 60.5778L460.613 -66H505.983L406.36 155H395.462L295.523 -66H340.893L399.095 60.5816L400.917 64.5444L402.731 60.5778Z" stroke="#0A0A0A" stroke-width="4"/>
<path d="M231.669 -66L336.021 155H290.698L271.659 114.424L271.119 113.274H269.848H176.767H175.539L174.983 114.368L154.355 155H108.453L221.003 -66H231.669ZM198.092 69.4345L196.622 72.3381H199.877H248.664H251.808L250.475 69.4904L227.045 19.4191L225.304 15.6997L223.449 19.3632L198.092 69.4345Z" stroke="#0A0A0A" stroke-width="4"/>
<path d="M-58.7047 154.679H-75V-66H-13.4479C1.37765 -66 15.8763 -63.162 29.4238 -57.4922C42.6698 -51.8142 54.33 -43.9342 64.4174 -33.8469C74.8318 -23.4325 82.7007 -11.7791 88.0505 1.43797L88.0623 1.46713L88.075 1.49591C94.0529 15.0247 96.8916 29.5116 96.8916 44.3395C96.8916 59.4914 94.0517 73.9779 88.075 87.5041L88.0623 87.5329L88.0505 87.562C82.7 100.781 74.8344 112.424 64.4394 122.504L64.4283 122.515L64.4174 122.526C54.3084 132.635 42.6521 140.817 29.4536 146.159L29.4244 146.171L29.3956 146.183C15.8668 152.161 1.37997 155 -13.4479 155H-56.7047V154.679H-58.7047ZM-34.0642 112.064V114.064H-32.0642H-13.4479C24.9015 114.064 55.9557 82.6642 55.9557 44.3395C55.9557 6.00243 24.8891 -25.0642 -13.4479 -25.0642H-32.0642H-34.0642V-23.0642V112.064Z" stroke="#0A0A0A" stroke-width="4"/>
<path d="M1725.52 21.9616L1801.54 150.971H1754.45L1699.55 52.8212L1698.25 50.4921L1696.38 52.3964L1679.64 69.4418L1679.07 70.0253V70.843V150.971H1639.68V-61.971H1679.07V6.0703V11.252L1682.55 7.41402L1745.49 -61.971H1798.71L1725.76 19.6132L1724.78 20.7026L1725.52 21.9616Z" stroke="#0A0A0A" stroke-width="4"/>
<path d="M1512.27 -61.971L1612.96 151.281H1569.35L1550.99 112.142L1550.45 110.992H1549.18H1459.3H1458.07L1457.52 112.086L1437.62 151.281H1393.45L1502.05 -61.971H1512.27ZM1479.83 68.6998L1478.36 71.6034H1481.61H1528.72H1531.86L1530.53 68.7557L1507.91 20.4086L1506.17 16.6892L1504.31 20.3527L1479.83 68.6998Z" stroke="#0A0A0A" stroke-width="4"/>
<path d="M1320.11 60.2078L1375.98 -61.971H1419.64L1323.51 151.281H1313.07L1216.64 -61.971H1260.29L1316.47 60.2116L1318.3 64.1744L1320.11 60.2078Z" stroke="#0A0A0A" stroke-width="4"/>
<path d="M1102.73 -66C1163.61 -66 1213.23 -16.3789 1213.23 44.5C1213.23 105.379 1163.61 155 1102.73 155C1041.85 155 992.23 105.379 992.23 44.5C992.23 -16.3789 1041.85 -66 1102.73 -66ZM1102.73 -25.3719C1064.13 -25.3719 1032.86 5.89545 1032.86 44.5C1032.86 83.1046 1064.13 114.372 1102.73 114.372C1141.34 114.372 1172.6 83.1046 1172.6 44.5C1172.6 5.89544 1141.34 -25.3719 1102.73 -25.3719Z" stroke="#0A0A0A" stroke-width="4"/>
<path d="M911.602 57.5166V-61.971H950.99V151.281H942.374L820.856 25.1373L817.416 21.5659V26.5249V151.281H778.027V-61.971H788.828L908.178 58.9217L911.602 62.3892V57.5166Z" stroke="#0A0A0A" stroke-width="4"/>
<path d="M591.07 371.064H693.064V412H548.134V191H694.027V231.936H591.07H589.07V233.936V275.341V277.341H591.07H675.731V318.277H591.07H589.07V320.277V369.064V371.064H591.07Z" stroke="#0A0A0A" stroke-width="4"/>
<path d="M402.731 317.578L460.613 191H505.983L406.36 412H395.462L295.523 191H340.893L399.095 317.582L400.917 321.544L402.731 317.578Z" stroke="#0A0A0A" stroke-width="4"/>
<path d="M231.669 191L336.021 412H290.698L271.659 371.424L271.119 370.274H269.848H176.767H175.539L174.983 371.368L154.355 412H108.453L221.003 191H231.669ZM198.092 326.435L196.622 329.338H199.877H248.664H251.808L250.475 326.49L227.045 276.419L225.304 272.7L223.449 276.363L198.092 326.435Z" stroke="#0A0A0A" stroke-width="4"/>
<path d="M-58.7047 411.679H-75V191H-13.4479C1.37766 191 15.8763 193.838 29.4238 199.508C42.6699 205.186 54.33 213.066 64.4174 223.153C74.8318 233.567 82.7007 245.221 88.0505 258.438L88.0623 258.467L88.075 258.496C94.0529 272.025 96.8916 286.512 96.8916 301.34C96.8916 316.491 94.0517 330.978 88.075 344.504L88.0623 344.533L88.0505 344.562C82.7 357.781 74.8344 369.424 64.4394 379.504L64.4283 379.515L64.4174 379.526C54.3084 389.635 42.6521 397.817 29.4536 403.159L29.4244 403.171L29.3956 403.183C15.8668 409.161 1.37997 412 -13.4479 412H-56.7047V411.679H-58.7047ZM-34.0642 369.064V371.064H-32.0642H-13.4479C24.9015 371.064 55.9557 339.664 55.9557 301.34C55.9557 263.002 24.8891 231.936 -13.4479 231.936H-32.0642H-34.0642V233.936V369.064Z" stroke="#0A0A0A" stroke-width="4"/>
<path d="M1725.52 278.962L1801.54 407.971H1754.45L1699.55 309.821L1698.25 307.492L1696.38 309.396L1679.64 326.442L1679.07 327.025V327.843V407.971H1639.68V195.029H1679.07V263.07V268.252L1682.55 264.414L1745.49 195.029H1798.71L1725.76 276.613L1724.78 277.703L1725.52 278.962Z" stroke="#0A0A0A" stroke-width="4"/>
<path d="M1512.27 195.029L1612.96 408.281H1569.35L1550.99 369.142L1550.45 367.992H1549.18H1459.3H1458.07L1457.52 369.086L1437.62 408.281H1393.45L1502.05 195.029H1512.27ZM1479.83 325.7L1478.36 328.603H1481.61H1528.72H1531.86L1530.53 325.756L1507.91 277.409L1506.17 273.689L1504.31 277.353L1479.83 325.7Z" stroke="#0A0A0A" stroke-width="4"/>
<path d="M1320.11 317.208L1375.98 195.029H1419.64L1323.51 408.281H1313.07L1216.64 195.029H1260.29L1316.47 317.212L1318.3 321.174L1320.11 317.208Z" stroke="#0A0A0A" stroke-width="4"/>
<path d="M1102.73 191C1163.61 191 1213.23 240.621 1213.23 301.5C1213.23 362.379 1163.61 412 1102.73 412C1041.85 412 992.23 362.379 992.23 301.5C992.23 240.621 1041.85 191 1102.73 191ZM1102.73 231.628C1064.13 231.628 1032.86 262.895 1032.86 301.5C1032.86 340.105 1064.13 371.372 1102.73 371.372C1141.34 371.372 1172.6 340.105 1172.6 301.5C1172.6 262.895 1141.34 231.628 1102.73 231.628Z" stroke="#0A0A0A" stroke-width="4"/>
<path d="M911.602 314.517V195.029H950.99V408.281H942.374L820.856 282.137L817.416 278.566V283.525V408.281H778.027V195.029H788.828L908.178 315.922L911.602 319.389V314.517Z" stroke="#0A0A0A" stroke-width="4"/>
<path d="M591.07 628.064H693.064V669H548.134V448H694.027V488.936H591.07H589.07V490.936V532.341V534.341H591.07H675.731V575.277H591.07H589.07V577.277V626.064V628.064H591.07Z" stroke="#0A0A0A" stroke-width="4"/>
<path d="M402.731 574.578L460.613 448H505.983L406.36 669H395.462L295.523 448H340.893L399.095 574.582L400.917 578.544L402.731 574.578Z" stroke="#0A0A0A" stroke-width="4"/>
<path d="M231.669 448L336.021 669H290.698L271.659 628.424L271.119 627.274H269.848H176.767H175.539L174.983 628.368L154.355 669H108.453L221.003 448H231.669ZM198.092 583.435L196.622 586.338H199.877H248.664H251.808L250.475 583.49L227.045 533.419L225.304 529.7L223.449 533.363L198.092 583.435Z" stroke="#0A0A0A" stroke-width="4"/>
<path d="M-58.7047 668.679H-75V448H-13.4479C1.37766 448 15.8763 450.838 29.4238 456.508C42.6699 462.186 54.33 470.066 64.4174 480.153C74.8318 490.567 82.7007 502.221 88.0505 515.438L88.0623 515.467L88.075 515.496C94.0529 529.025 96.8916 543.512 96.8916 558.34C96.8916 573.491 94.0517 587.978 88.075 601.504L88.0623 601.533L88.0505 601.562C82.7 614.781 74.8344 626.424 64.4394 636.504L64.4283 636.515L64.4174 636.526C54.3084 646.635 42.6521 654.817 29.4536 660.159L29.4244 660.171L29.3956 660.183C15.8668 666.161 1.37997 669 -13.4479 669H-56.7047V668.679H-58.7047ZM-34.0642 626.064V628.064H-32.0642H-13.4479C24.9015 628.064 55.9557 596.664 55.9557 558.34C55.9557 520.002 24.8891 488.936 -13.4479 488.936H-32.0642H-34.0642V490.936V626.064Z" stroke="#0A0A0A" stroke-width="4"/>
<path d="M1725.52 535.962L1801.54 664.971H1754.45L1699.55 566.821L1698.25 564.492L1696.38 566.396L1679.64 583.442L1679.07 584.025V584.843V664.971H1639.68V452.029H1679.07V520.07V525.252L1682.55 521.414L1745.49 452.029H1798.71L1725.76 533.613L1724.78 534.703L1725.52 535.962Z" stroke="#0A0A0A" stroke-width="4"/>
<path d="M1512.27 452.029L1612.96 665.281H1569.35L1550.99 626.142L1550.45 624.992H1549.18H1459.3H1458.07L1457.52 626.086L1437.62 665.281H1393.45L1502.05 452.029H1512.27ZM1479.83 582.7L1478.36 585.603H1481.61H1528.72H1531.86L1530.53 582.756L1507.91 534.409L1506.17 530.689L1504.31 534.353L1479.83 582.7Z" stroke="#0A0A0A" stroke-width="4"/>
<path d="M1320.11 574.208L1375.98 452.029H1419.64L1323.51 665.281H1313.07L1216.64 452.029H1260.29L1316.47 574.212L1318.3 578.174L1320.11 574.208Z" stroke="#0A0A0A" stroke-width="4"/>
<path d="M1102.73 448C1163.61 448 1213.23 497.621 1213.23 558.5C1213.23 619.379 1163.61 669 1102.73 669C1041.85 669 992.23 619.379 992.23 558.5C992.23 497.621 1041.85 448 1102.73 448ZM1102.73 488.628C1064.13 488.628 1032.86 519.895 1032.86 558.5C1032.86 597.105 1064.13 628.372 1102.73 628.372C1141.34 628.372 1172.6 597.105 1172.6 558.5C1172.6 519.895 1141.34 488.628 1102.73 488.628Z" stroke="#0A0A0A" stroke-width="4"/>
<path d="M911.602 571.517V452.029H950.99V665.281H942.374L820.856 539.137L817.416 535.566V540.525V665.281H778.027V452.029H788.828L908.178 572.922L911.602 576.389V571.517Z" stroke="#0A0A0A" stroke-width="4"/>
<path d="M591.07 885.064H693.064V926H548.134V705H694.027V745.936H591.07H589.07V747.936V789.341V791.341H591.07H675.731V832.277H591.07H589.07V834.277V883.064V885.064H591.07Z" stroke="#0A0A0A" stroke-width="4"/>
<path d="M402.731 831.578L460.613 705H505.983L406.36 926H395.462L295.523 705H340.893L399.095 831.582L400.917 835.544L402.731 831.578Z" stroke="#0A0A0A" stroke-width="4"/>
<path d="M231.669 705L336.021 926H290.698L271.659 885.424L271.119 884.274H269.848H176.767H175.539L174.983 885.368L154.355 926H108.453L221.003 705H231.669ZM198.092 840.435L196.622 843.338H199.877H248.664H251.808L250.475 840.49L227.045 790.419L225.304 786.7L223.449 790.363L198.092 840.435Z" stroke="#0A0A0A" stroke-width="4"/>
<path d="M-58.7047 925.679H-75V705H-13.4479C1.37766 705 15.8763 707.838 29.4238 713.508C42.6699 719.186 54.33 727.066 64.4174 737.153C74.8318 747.567 82.7007 759.221 88.0505 772.438L88.0623 772.467L88.075 772.496C94.0529 786.025 96.8916 800.512 96.8916 815.34C96.8916 830.491 94.0517 844.978 88.075 858.504L88.0623 858.533L88.0505 858.562C82.7 871.781 74.8344 883.424 64.4394 893.504L64.4283 893.515L64.4174 893.526C54.3084 903.635 42.6521 911.817 29.4536 917.159L29.4244 917.171L29.3956 917.183C15.8668 923.161 1.37997 926 -13.4479 926H-56.7047V925.679H-58.7047ZM-34.0642 883.064V885.064H-32.0642H-13.4479C24.9015 885.064 55.9557 853.664 55.9557 815.34C55.9557 777.002 24.8891 745.936 -13.4479 745.936H-32.0642H-34.0642V747.936V883.064Z" stroke="#0A0A0A" stroke-width="4"/>
<path d="M1725.52 792.962L1801.54 921.971H1754.45L1699.55 823.821L1698.25 821.492L1696.38 823.396L1679.64 840.442L1679.07 841.025V841.843V921.971H1639.68V709.029H1679.07V777.07V782.252L1682.55 778.414L1745.49 709.029H1798.71L1725.76 790.613L1724.78 791.703L1725.52 792.962Z" stroke="#0A0A0A" stroke-width="4"/>
<path d="M1512.27 709.029L1612.96 922.281H1569.35L1550.99 883.142L1550.45 881.992H1549.18H1459.3H1458.07L1457.52 883.086L1437.62 922.281H1393.45L1502.05 709.029H1512.27ZM1479.83 839.7L1478.36 842.603H1481.61H1528.72H1531.86L1530.53 839.756L1507.91 791.409L1506.17 787.689L1504.31 791.353L1479.83 839.7Z" stroke="#0A0A0A" stroke-width="4"/>
<path d="M1320.11 831.208L1375.98 709.029H1419.64L1323.51 922.281H1313.07L1216.64 709.029H1260.29L1316.47 831.212L1318.3 835.174L1320.11 831.208Z" stroke="#0A0A0A" stroke-width="4"/>
<path d="M1102.73 705C1163.61 705 1213.23 754.621 1213.23 815.5C1213.23 876.379 1163.61 926 1102.73 926C1041.85 926 992.23 876.379 992.23 815.5C992.23 754.621 1041.85 705 1102.73 705ZM1102.73 745.628C1064.13 745.628 1032.86 776.895 1032.86 815.5C1032.86 854.105 1064.13 885.372 1102.73 885.372C1141.34 885.372 1172.6 854.105 1172.6 815.5C1172.6 776.895 1141.34 745.628 1102.73 745.628Z" stroke="#0A0A0A" stroke-width="4"/>
<path d="M911.602 828.517V709.029H950.99V922.281H942.374L820.856 796.137L817.416 792.566V797.525V922.281H778.027V709.029H788.828L908.178 829.922L911.602 833.389V828.517Z" stroke="#0A0A0A" stroke-width="4"/>
<path d="M591.07 1142.06H693.064V1183H548.134V962H694.027V1002.94H591.07H589.07V1004.94V1046.34V1048.34H591.07H675.731V1089.28H591.07H589.07V1091.28V1140.06V1142.06H591.07Z" stroke="#0A0A0A" stroke-width="4"/>
<path d="M402.731 1088.58L460.613 962H505.983L406.36 1183H395.462L295.523 962H340.893L399.095 1088.58L400.917 1092.54L402.731 1088.58Z" stroke="#0A0A0A" stroke-width="4"/>
<path d="M231.669 962L336.021 1183H290.698L271.659 1142.42L271.119 1141.27H269.848H176.767H175.539L174.983 1142.37L154.355 1183H108.453L221.003 962H231.669ZM198.092 1097.43L196.622 1100.34H199.877H248.664H251.808L250.475 1097.49L227.045 1047.42L225.304 1043.7L223.449 1047.36L198.092 1097.43Z" stroke="#0A0A0A" stroke-width="4"/>
<path d="M-58.7047 1182.68H-75V962H-13.4479C1.37766 962 15.8763 964.838 29.4238 970.508C42.6699 976.186 54.33 984.066 64.4174 994.153C74.8318 1004.57 82.7007 1016.22 88.0505 1029.44L88.0623 1029.47L88.075 1029.5C94.0529 1043.02 96.8916 1057.51 96.8916 1072.34C96.8916 1087.49 94.0517 1101.98 88.075 1115.5L88.0623 1115.53L88.0505 1115.56C82.7 1128.78 74.8344 1140.42 64.4394 1150.5L64.4283 1150.51L64.4174 1150.53C54.3084 1160.63 42.6521 1168.82 29.4536 1174.16L29.4244 1174.17L29.3956 1174.18C15.8668 1180.16 1.37997 1183 -13.4479 1183H-56.7047V1182.68H-58.7047ZM-34.0642 1140.06V1142.06H-32.0642H-13.4479C24.9015 1142.06 55.9557 1110.66 55.9557 1072.34C55.9557 1034 24.8891 1002.94 -13.4479 1002.94H-32.0642H-34.0642V1004.94V1140.06Z" stroke="#0A0A0A" stroke-width="4"/>
<path d="M1725.52 1049.96L1801.54 1178.97H1754.45L1699.55 1080.82L1698.25 1078.49L1696.38 1080.4L1679.64 1097.44L1679.07 1098.03V1098.84V1178.97H1639.68V966.029H1679.07V1034.07V1039.25L1682.55 1035.41L1745.49 966.029H1798.71L1725.76 1047.61L1724.78 1048.7L1725.52 1049.96Z" stroke="#0A0A0A" stroke-width="4"/>
<path d="M1512.27 966.029L1612.96 1179.28H1569.35L1550.99 1140.14L1550.45 1138.99H1549.18H1459.3H1458.07L1457.52 1140.09L1437.62 1179.28H1393.45L1502.05 966.029H1512.27ZM1479.83 1096.7L1478.36 1099.6H1481.61H1528.72H1531.86L1530.53 1096.76L1507.91 1048.41L1506.17 1044.69L1504.31 1048.35L1479.83 1096.7Z" stroke="#0A0A0A" stroke-width="4"/>
<path d="M1320.11 1088.21L1375.98 966.029H1419.64L1323.51 1179.28H1313.07L1216.64 966.029H1260.29L1316.47 1088.21L1318.3 1092.17L1320.11 1088.21Z" stroke="#0A0A0A" stroke-width="4"/>
<path d="M1102.73 962C1163.61 962 1213.23 1011.62 1213.23 1072.5C1213.23 1133.38 1163.61 1183 1102.73 1183C1041.85 1183 992.23 1133.38 992.23 1072.5C992.23 1011.62 1041.85 962 1102.73 962ZM1102.73 1002.63C1064.13 1002.63 1032.86 1033.9 1032.86 1072.5C1032.86 1111.1 1064.13 1142.37 1102.73 1142.37C1141.34 1142.37 1172.6 1111.1 1172.6 1072.5C1172.6 1033.9 1141.34 1002.63 1102.73 1002.63Z" stroke="#0A0A0A" stroke-width="4"/>
<path d="M911.602 1085.52V966.029H950.99V1179.28H942.374L820.856 1053.14L817.416 1049.57V1054.52V1179.28H778.027V966.029H788.828L908.178 1086.92L911.602 1090.39V1085.52Z" stroke="#0A0A0A" stroke-width="4"/>
</g>
<defs>
<clipPath id="clip0_2160_854">
<rect width="1728" height="1117" fill="white"/>
</clipPath>
</defs>
</svg>
